<svg width="222" height="157" viewBox="0 0 222 157" fill="none" xmlns="http://www.w3.org/2000/svg">
<path d="M40.4228 96.6665C30.2312 85.3875 34.2771 67.4177 48.319 61.5949L120.779 31.5476C131.011 27.3044 142.803 31.331 148.303 40.9464L177.68 92.306C183.713 102.853 180.053 116.293 169.506 122.326L115.065 153.466C106.09 158.6 94.7504 156.791 87.8183 149.119L40.4228 96.6665Z" fill="#EEF4F9"/>
<path d="M37.9071 21H17.9602L3 50.4972C19.4779 58.6522 43.6165 53.8951 52 50.4972L37.9071 21Z" stroke="#B2C5CF"/>
<path d="M26 55L26 137" stroke="#B2C5CF"/>
<rect x="15.5" y="137.5" width="22" height="7" stroke="#B2C5CF"/>
<rect x="11.5" y="144.5" width="30" height="6" stroke="#B2C5CF"/>
<path d="M176.522 123.56H191.423H198.139C204.855 123.56 205.484 114.116 202.966 111.387C207.793 111.387 209.262 101.733 200.657 101.733C195.41 76.3393 165.819 88.0919 169.806 104.672C162.461 108.029 162.671 123.56 176.522 123.56Z" stroke="#B2C5CF"/>
<path d="M185.547 123.56V137.621" stroke="#B2C5CF"/>
<path d="M177.991 137.621H185.981H193.102L189.454 150.213H182.16L177.991 137.621Z" stroke="#B2C5CF" stroke-linejoin="round"/>
<circle cx="180.09" cy="104.042" r="0.839474" fill="#B2C5CF"/>
<circle cx="189.744" cy="101.104" r="0.839474" fill="#B2C5CF"/>
<circle cx="198.139" cy="107.819" r="0.839474" fill="#B2C5CF"/>
<circle cx="188.904" cy="111.597" r="0.839474" fill="#B2C5CF"/>
<circle cx="175.473" cy="114.955" r="0.839474" fill="#B2C5CF"/>
<circle cx="193.522" cy="118.313" r="0.839474" fill="#B2C5CF"/>
<circle cx="200.237" cy="116.214" r="0.839474" fill="#B2C5CF"/>
<circle cx="183.868" cy="118.733" r="0.839474" fill="#B2C5CF"/>
<line x1="146.5" y1="150.5" x2="219.5" y2="150.5" stroke="#B2C5CF" stroke-linecap="round"/>
<line x1="46.5" y1="150.5" x2="55.5" y2="150.5" stroke="#B2C5CF" stroke-linecap="round"/>
<path d="M48.6086 80.6777C48.6086 108.18 71.1478 130.479 98.9565 130.479H140.956C148.162 130.479 154 124.702 154 117.575V58.2276C154 41.9818 140.685 28.812 124.261 28.812H74.6956C60.2904 28.812 48.6086 40.3655 48.6086 54.6145V80.6777Z" fill="url(#paint0_linear_795_12561)"/>
<mask id="path-20-inside-1_795_12561" fill="white">
<path fill-rule="evenodd" clip-rule="evenodd" d="M46 83.8164C46 106.705 61.297 126.027 82.2354 132.125L79.5328 144.54V144.545C79.465 144.832 79.2824 145.082 79.0268 145.228L72.6146 148.873C71.6859 149.404 72.0615 150.823 73.1311 150.823H91.2355C91.6685 150.823 92.0546 150.557 92.2111 150.155L97.7544 134.128H112.244L117.788 150.155C117.944 150.557 118.33 150.823 118.763 150.823H136.868C137.937 150.823 138.313 149.404 137.384 148.873L130.972 145.228C130.716 145.082 130.534 144.832 130.466 144.545V144.54L128.2 134.128H136.261C143.466 134.128 149.304 128.294 149.304 121.094V59.5728C149.304 45.1778 137.623 33.5044 123.217 33.5044H72.087C57.6817 33.5044 46 45.1726 46 59.5728V83.8164Z"/>
</mask>
<path d="M82.2354 132.125L83.2125 132.338L83.411 131.426L82.515 131.165L82.2354 132.125ZM79.5328 144.54L78.5557 144.327L78.5328 144.433V144.54H79.5328ZM79.5328 144.545L80.506 144.775L80.5328 144.662V144.545H79.5328ZM79.0268 145.228L79.5209 146.098L79.5226 146.097L79.0268 145.228ZM72.6146 148.873L72.1205 148.003L72.1177 148.005L72.6146 148.873ZM92.2111 150.155L93.1428 150.518L93.1498 150.5L93.1562 150.482L92.2111 150.155ZM97.7544 134.128V133.128H97.0422L96.8093 133.801L97.7544 134.128ZM112.244 134.128L113.189 133.801L112.957 133.128H112.244V134.128ZM117.788 150.155L116.843 150.482L116.849 150.5L116.856 150.518L117.788 150.155ZM137.384 148.873L137.881 148.005L137.878 148.003L137.384 148.873ZM130.972 145.228L130.476 146.097L130.478 146.098L130.972 145.228ZM130.466 144.545H129.466V144.662L129.493 144.775L130.466 144.545ZM130.466 144.54H131.466V144.433L131.443 144.327L130.466 144.54ZM128.2 134.128V133.128H126.958L127.222 134.341L128.2 134.128ZM82.515 131.165C61.9916 125.188 47 106.248 47 83.8164H45C45 107.162 60.6025 126.867 81.9558 133.085L82.515 131.165ZM80.51 144.753L83.2125 132.338L81.2583 131.912L78.5557 144.327L80.51 144.753ZM80.5328 144.545V144.54H78.5328V144.545H80.5328ZM79.5226 146.097C80.0269 145.809 80.3765 145.323 80.506 144.775L78.5597 144.315C78.557 144.327 78.5519 144.337 78.5456 144.346C78.5395 144.354 78.5339 144.358 78.5309 144.36L79.5226 146.097ZM73.1087 149.742L79.5209 146.098L78.5326 144.359L72.1205 148.003L73.1087 149.742ZM73.1311 149.823C73.1197 149.823 73.1121 149.822 73.108 149.821C73.1038 149.82 73.102 149.82 73.1019 149.819C73.1017 149.819 73.1023 149.82 73.1033 149.82C73.1042 149.821 73.1049 149.821 73.1052 149.821C73.106 149.822 73.0961 149.813 73.0902 149.791C73.0842 149.768 73.0884 149.756 73.0883 149.756C73.0882 149.756 73.0879 149.757 73.0875 149.757C73.087 149.758 73.0867 149.758 73.087 149.758C73.0872 149.758 73.0886 149.756 73.0919 149.754C73.0953 149.751 73.1015 149.746 73.1115 149.74L72.1177 148.005C70.3043 149.043 71.031 151.823 73.1311 151.823V149.823ZM91.2355 149.823H73.1311V151.823H91.2355V149.823ZM91.2794 149.792C91.2718 149.811 91.2543 149.823 91.2355 149.823V151.823C92.0827 151.823 92.8373 151.302 93.1428 150.518L91.2794 149.792ZM96.8093 133.801L91.266 149.828L93.1562 150.482L98.6995 134.455L96.8093 133.801ZM112.244 133.128H97.7544V135.128H112.244V133.128ZM111.299 134.455L116.843 150.482L118.733 149.828L113.189 133.801L111.299 134.455ZM116.856 150.518C117.162 151.302 117.916 151.823 118.763 151.823V149.823C118.745 149.823 118.727 149.811 118.719 149.792L116.856 150.518ZM118.763 151.823H136.868V149.823H118.763V151.823ZM136.868 151.823C138.968 151.823 139.694 149.043 137.881 148.005L136.887 149.74C136.897 149.746 136.904 149.751 136.907 149.754C136.91 149.756 136.912 149.758 136.912 149.758C136.912 149.758 136.912 149.758 136.911 149.757C136.911 149.757 136.911 149.756 136.911 149.756C136.91 149.756 136.915 149.768 136.909 149.791C136.903 149.813 136.893 149.822 136.894 149.821C136.894 149.821 136.895 149.821 136.896 149.82C136.897 149.82 136.897 149.819 136.897 149.819C136.897 149.82 136.895 149.82 136.891 149.821C136.887 149.822 136.879 149.823 136.868 149.823V151.823ZM137.878 148.003L131.466 144.359L130.478 146.098L136.89 149.742L137.878 148.003ZM131.468 144.36C131.465 144.358 131.459 144.354 131.453 144.346C131.447 144.337 131.442 144.327 131.439 144.315L129.493 144.775C129.622 145.323 129.972 145.809 130.476 146.097L131.468 144.36ZM131.466 144.545V144.54H129.466V144.545H131.466ZM131.443 144.327L129.177 133.916L127.222 134.341L129.489 144.753L131.443 144.327ZM136.261 133.128H128.2V135.128H136.261V133.128ZM148.304 121.094C148.304 127.741 142.914 133.128 136.261 133.128V135.128C144.018 135.128 150.304 128.847 150.304 121.094H148.304ZM148.304 59.5728V121.094H150.304V59.5728H148.304ZM123.217 34.5044C137.071 34.5044 148.304 45.7308 148.304 59.5728H150.304C150.304 44.6249 138.174 32.5044 123.217 32.5044V34.5044ZM72.087 34.5044H123.217V32.5044H72.087V34.5044ZM47 59.5728C47 45.7257 58.2332 34.5044 72.087 34.5044V32.5044C57.1303 32.5044 45 44.6195 45 59.5728H47ZM47 83.8164V59.5728H45V83.8164H47Z" fill="black" mask="url(#path-20-inside-1_795_12561)"/>
<path d="M97.9141 94.0801V98.0344C97.9141 99.7386 99.2956 101.12 101 101.12V101.12C102.704 101.12 104.085 99.7386 104.085 98.0344V94.0801" stroke="black" stroke-linecap="round"/>
<path d="M94.0682 81.4622C94.3085 81.5983 94.6136 81.5137 94.7496 81.2734C94.8857 81.0331 94.8012 80.728 94.5608 80.592L94.0682 81.4622ZM82.5332 85.765C82.4343 86.0229 82.5631 86.312 82.821 86.4109C83.0788 86.5098 83.368 86.381 83.4668 86.1231L82.5332 85.765ZM94.5608 80.592C91.3797 78.7912 88.5811 79.4515 86.4891 80.8834C84.4306 82.2924 83.0361 84.4536 82.5332 85.765L83.4668 86.1231C83.9068 84.9761 85.1838 82.9886 87.0539 81.7086C88.8905 80.4515 91.2778 79.8826 94.0682 81.4622L94.5608 80.592Z" fill="black"/>
<path d="M92.5143 90.8115C91.4 92.0687 88.2972 93.8287 84.8 90.8115" stroke="black" stroke-linecap="round"/>
<path d="M107.932 81.4622C107.691 81.5983 107.386 81.5137 107.25 81.2734C107.114 81.0331 107.199 80.728 107.439 80.592L107.932 81.4622ZM119.467 85.765C119.566 86.0229 119.437 86.312 119.179 86.4109C118.921 86.5098 118.632 86.381 118.533 86.1231L119.467 85.765ZM107.439 80.592C110.62 78.7912 113.419 79.4515 115.511 80.8834C117.569 82.2924 118.964 84.4536 119.467 85.765L118.533 86.1231C118.093 84.9761 116.816 82.9886 114.946 81.7086C113.109 80.4515 110.722 79.8826 107.932 81.4622L107.439 80.592Z" fill="black"/>
<path d="M109.486 90.8115C110.6 92.0687 113.703 93.8287 117.2 90.8115" stroke="black" stroke-linecap="round"/>
<path d="M90.7141 105.646C95.3426 112.434 109.742 111.177 111.542 102.628" stroke="black" stroke-linecap="round"/>
<defs>
<linearGradient id="paint0_linear_795_12561" x1="48.6086" y1="28.812" x2="150.21" y2="134.135" gradientUnits="userSpaceOnUse">
<stop offset="0.432292" stop-color="#96E57B"/>
<stop offset="1" stop-color="#4EAC3E"/>
</linearGradient>
</defs>
</svg>
