<svg width="222" height="151" viewBox="0 0 222 151" fill="none" xmlns="http://www.w3.org/2000/svg">
<circle cx="96" cy="85" r="65" fill="#EEF4F9"/>
<path d="M204.665 53.3838V81.6988" stroke="#B2C5CF" stroke-linecap="round" stroke-dasharray="3 3"/>
<path d="M176 53.3838L192.605 36.7793L209.034 53.3838H176Z" stroke="#B2C5CF"/>
<path d="M192.604 20V31.1862" stroke="#B2C5CF" stroke-linecap="round"/>
<rect x="190.133" y="31.686" width="5.29223" height="4.5931" rx="1.5" fill="#B2C5CF" stroke="#B2C5CF"/>
<path d="M200.12 53.2091C200.12 55.156 199.347 57.0232 197.97 58.3999C196.593 59.7766 194.726 60.55 192.779 60.55C190.832 60.55 188.965 59.7766 187.588 58.3999C186.212 57.0232 185.438 55.156 185.438 53.2091L192.779 53.2091H200.12Z" fill="#B2C5CF"/>
<path d="M50.0433 128.077C56.6134 122 65.3734 124.587 68.9322 126.435C67.2213 121.576 60.4322 113.048 46.9636 117.812" stroke="#B2C5CF" stroke-linejoin="round"/>
<path d="M65.4418 123.766C63.5939 121.986 57.9683 119.085 50.2485 121.713" stroke="#B2C5CF" stroke-linejoin="round"/>
<path d="M34.2339 128.077H43.6783H52.0962L47.7846 150.046H39.1614L34.2339 128.077Z" fill="#B2C5CF" stroke="#B2C5CF" stroke-linejoin="round"/>
<path d="M39.3668 128.077C36.8346 120.481 31.5239 102.947 30.5383 93.5845C29.5528 84.2222 26.4321 74.6272 24.9949 71C47.0045 84.6328 48.4007 114.732 46.3475 128.077" stroke="#B2C5CF" stroke-linejoin="round"/>
<path d="M33.4126 85.3721C36.5607 92.2159 42.9392 110.338 43.2677 128.077" stroke="#B2C5CF" stroke-linejoin="round"/>
<path d="M34.3939 128.569C31.342 125.993 24.6918 119.905 22.5066 116.158C20.3213 112.411 16.5238 109.137 14.8982 107.969C32.5006 111.664 35.0383 117.041 35.8784 117.609" stroke="#B2C5CF" stroke-linejoin="round"/>
<path d="M16 108.3C19.2634 109.747 26.7886 114.233 30.7826 120.605" stroke="#B2C5CF" stroke-linejoin="round"/>
<line x1="4.5" y1="150.5" x2="77.5" y2="150.5" stroke="#B2C5CF" stroke-linecap="round"/>
<line x1="172.5" y1="150.5" x2="202.5" y2="150.5" stroke="#B2C5CF" stroke-linecap="round"/>
<line x1="208.5" y1="150.5" x2="218.5" y2="150.5" stroke="#B2C5CF" stroke-linecap="round"/>
<path d="M65.3188 85.3247C62.8057 61.3985 77.7954 39.4238 100.497 30.7386C106.845 28.3109 113.627 27.1284 120.434 27.0238C176.422 26.1657 144.024 48.627 146.976 76.7337C149.928 104.84 157.29 128.542 126.521 131.78C95.7528 135.019 68.3544 114.221 65.3188 85.33V85.3247Z" fill="url(#paint0_linear_795_12582)"/>
<mask id="path-18-inside-1_795_12582" fill="white">
<path fill-rule="evenodd" clip-rule="evenodd" d="M70.6166 88.0142C68.1662 64.6739 82.3461 43.212 104.034 34.2704C110.669 31.534 117.832 30.1894 125.027 30.09C162.894 29.5442 159.732 39.8749 154.968 55.4408C152.791 62.557 150.278 70.7674 151.197 79.533C151.569 83.0775 152.005 86.5316 152.426 89.8696C154.808 108.748 156.721 123.913 143.977 130.728L146.972 144.518V144.523C147.04 144.811 147.223 145.062 147.479 145.208L153.9 148.866C154.83 149.399 154.454 150.822 153.383 150.822H135.253C134.82 150.822 134.433 150.555 134.276 150.153L128.851 134.435C123.892 134.772 119.035 134.474 114.373 133.612L108.664 150.153C108.507 150.555 108.12 150.822 107.687 150.822H89.5569C88.4858 150.822 88.1096 149.399 89.0396 148.866L95.4608 145.208C95.7168 145.062 95.8997 144.811 95.9676 144.523V144.518L99.4212 128.619C83.7928 120.816 72.4973 105.987 70.6114 88.0142H70.6166Z"/>
</mask>
<path d="M104.034 34.2704L104.415 35.1949L104.415 35.1949L104.034 34.2704ZM70.6166 88.0142V89.0142H71.7271L71.6111 87.9098L70.6166 88.0142ZM125.027 30.09L125.041 31.0899L125.041 31.0899L125.027 30.09ZM154.968 55.4408L154.012 55.1482L154.968 55.4408ZM151.197 79.533L150.203 79.6373L150.203 79.6374L151.197 79.533ZM152.426 89.8696L153.418 89.7444L152.426 89.8696ZM143.977 130.728L143.505 129.846L142.839 130.202L143 130.94L143.977 130.728ZM146.972 144.518H147.972V144.41L147.95 144.305L146.972 144.518ZM146.972 144.523H145.972V144.639L145.999 144.753L146.972 144.523ZM147.479 145.208L146.982 146.076L146.984 146.077L147.479 145.208ZM153.9 148.866L154.398 147.998L154.395 147.997L153.9 148.866ZM134.276 150.153L133.331 150.479L133.337 150.497L133.344 150.515L134.276 150.153ZM128.851 134.435L129.797 134.109L129.547 133.386L128.784 133.437L128.851 134.435ZM114.373 133.612L114.554 132.629L113.708 132.472L113.427 133.286L114.373 133.612ZM108.664 150.153L109.596 150.515L109.603 150.497L109.609 150.479L108.664 150.153ZM89.0396 148.866L88.5447 147.997L88.5419 147.998L89.0396 148.866ZM95.4608 145.208L95.9557 146.077L95.9575 146.076L95.4608 145.208ZM95.9676 144.523L96.9409 144.753L96.9676 144.639V144.523H95.9676ZM95.9676 144.518L94.9904 144.305L94.9676 144.41V144.518H95.9676ZM99.4212 128.619L100.398 128.831L100.563 128.071L99.8679 127.724L99.4212 128.619ZM70.6114 88.0142V87.0142H69.5009L69.6168 88.1185L70.6114 88.0142ZM103.653 33.3459C81.5967 42.4393 67.1208 64.2939 69.6221 88.1186L71.6111 87.9098C69.2116 65.054 83.0954 43.9847 104.415 35.1949L103.653 33.3459ZM125.013 29.0901C117.705 29.191 110.415 30.557 103.653 33.3459L104.415 35.1949C110.923 32.511 117.96 31.1877 125.041 31.0899L125.013 29.0901ZM155.925 55.7334C157.107 51.8685 158.23 48.2107 158.618 44.9543C159.007 41.6786 158.675 38.6435 156.784 36.1232C154.907 33.6221 151.633 31.8162 146.573 30.6571C141.505 29.496 134.511 28.9532 125.012 29.0901L125.041 31.0899C134.476 30.9539 141.287 31.4977 146.127 32.6066C150.976 33.7174 153.714 35.3648 155.184 37.3238C156.64 39.2637 156.991 41.6957 156.632 44.718C156.27 47.7594 155.211 51.2301 154.012 55.1482L155.925 55.7334ZM152.192 79.4287C151.297 70.8957 153.739 62.8752 155.925 55.7334L154.012 55.1482C151.842 62.2389 149.259 70.6392 150.203 79.6373L152.192 79.4287ZM153.418 89.7444C152.997 86.405 152.563 82.9611 152.192 79.4286L150.203 79.6374C150.576 83.194 151.013 86.6582 151.434 89.9947L153.418 89.7444ZM144.448 131.61C151.191 128.004 154.024 122.162 154.867 114.938C155.701 107.789 154.604 99.1425 153.418 89.7444L151.434 89.9947C152.63 99.4751 153.68 107.851 152.88 114.707C152.089 121.488 149.507 126.637 143.505 129.846L144.448 131.61ZM147.95 144.305L144.954 130.516L143 130.94L145.995 144.73L147.95 144.305ZM147.972 144.523V144.518H145.972V144.523H147.972ZM147.976 144.34C147.973 144.339 147.967 144.334 147.96 144.326C147.954 144.317 147.948 144.305 147.946 144.293L145.999 144.753C146.128 145.3 146.478 145.787 146.982 146.076L147.976 144.34ZM154.395 147.997L147.974 144.339L146.984 146.077L153.405 149.734L154.395 147.997ZM153.383 151.822C155.489 151.822 156.207 149.036 154.398 147.998L153.403 149.733C153.413 149.739 153.419 149.743 153.422 149.746C153.426 149.749 153.427 149.751 153.428 149.751C153.428 149.752 153.428 149.751 153.427 149.751C153.427 149.75 153.427 149.75 153.427 149.75C153.427 149.751 153.432 149.765 153.425 149.789C153.419 149.812 153.409 149.822 153.409 149.821C153.409 149.821 153.41 149.82 153.411 149.82C153.412 149.819 153.412 149.819 153.412 149.819C153.412 149.819 153.41 149.82 153.406 149.821C153.402 149.821 153.394 149.822 153.383 149.822V151.822ZM135.253 151.822H153.383V149.822H135.253V151.822ZM133.344 150.515C133.649 151.299 134.404 151.822 135.253 151.822V149.822C135.235 149.822 135.217 149.812 135.208 149.79L133.344 150.515ZM127.906 134.761L133.331 150.479L135.222 149.826L129.797 134.109L127.906 134.761ZM114.191 134.595C118.935 135.472 123.875 135.775 128.919 135.433L128.784 133.437C123.908 133.768 119.135 133.475 114.554 132.629L114.191 134.595ZM109.609 150.479L115.318 133.938L113.427 133.286L107.718 149.826L109.609 150.479ZM107.687 151.822C108.536 151.822 109.291 151.299 109.596 150.515L107.732 149.79C107.723 149.812 107.705 149.822 107.687 149.822V151.822ZM89.5569 151.822H107.687V149.822H89.5569V151.822ZM88.5419 147.998C86.7326 149.036 87.4507 151.822 89.5569 151.822V149.822C89.5455 149.822 89.538 149.821 89.5338 149.821C89.5297 149.82 89.5279 149.819 89.5278 149.819C89.5276 149.819 89.5282 149.819 89.5291 149.82C89.53 149.82 89.5306 149.821 89.5308 149.821C89.5313 149.822 89.5209 149.812 89.5147 149.789C89.5084 149.765 89.5126 149.751 89.5129 149.75C89.5129 149.75 89.5128 149.75 89.5125 149.751C89.5121 149.751 89.5119 149.752 89.5123 149.751C89.5126 149.751 89.5141 149.749 89.5176 149.746C89.521 149.743 89.5273 149.739 89.5373 149.733L88.5419 147.998ZM94.9659 144.339L88.5447 147.997L89.5345 149.734L95.9557 146.077L94.9659 144.339ZM94.9944 144.293C94.9915 144.305 94.9861 144.317 94.9795 144.326C94.9731 144.334 94.9672 144.339 94.9642 144.34L95.9575 146.076C96.4623 145.787 96.8116 145.3 96.9409 144.753L94.9944 144.293ZM94.9676 144.518V144.523H96.9676V144.518H94.9676ZM98.444 128.406L94.9904 144.305L96.9448 144.73L100.398 128.831L98.444 128.406ZM69.6168 88.1185C71.5415 106.461 83.0685 121.572 98.9745 129.513L99.8679 127.724C84.5172 120.06 73.453 105.513 71.6059 87.9098L69.6168 88.1185ZM70.6166 87.0142H70.6114V89.0142H70.6166V87.0142Z" fill="black" mask="url(#path-18-inside-1_795_12582)"/>
<path d="M109.108 93V96.911C109.108 98.617 110.491 100 112.197 100V100C113.903 100 115.286 98.617 115.286 96.911V93" stroke="black" stroke-linecap="round"/>
<ellipse cx="98.5364" cy="89.3096" rx="7.02424" ry="6.8218" fill="white"/>
<ellipse cx="98.2438" cy="91.0149" rx="0.87803" ry="1.13697" fill="black"/>
<ellipse cx="125.463" cy="89.3096" rx="7.02424" ry="6.8218" fill="white"/>
<ellipse cx="125.17" cy="91.0149" rx="0.87803" ry="1.13697" fill="black"/>
<path d="M99.5508 76.232C99.8225 76.2868 100.085 76.1122 100.137 75.8421C100.19 75.572 100.012 75.3086 99.74 75.2539L99.5508 76.232ZM88.3664 81.2788C88.2846 81.5412 88.4327 81.8221 88.6971 81.9061C88.9614 81.9902 89.2419 81.8455 89.3237 81.583L88.3664 81.2788ZM99.74 75.2539C96.307 74.5624 93.6174 75.5433 91.7151 76.9579C89.8329 78.3575 88.7042 80.1936 88.3664 81.2788L89.3237 81.583C89.5946 80.7126 90.5912 79.0451 92.3197 77.7598C94.0279 76.4895 96.4341 75.6042 99.5508 76.232L99.74 75.2539Z" fill="black"/>
<path d="M121.346 75.9412C121.104 76.0736 121.015 76.3774 121.147 76.6197C121.279 76.8621 121.583 76.9512 121.825 76.8188L121.346 75.9412ZM132.518 81.913C132.591 82.1793 132.866 82.3359 133.132 82.2628C133.399 82.1897 133.555 81.9145 133.482 81.6482L132.518 81.913ZM121.825 76.8188C123.988 75.6375 126.367 75.8875 128.374 76.9629C130.391 78.0436 131.973 79.9297 132.518 81.913L133.482 81.6482C132.856 79.368 131.073 77.2747 128.846 76.0814C126.609 74.8829 123.866 74.5644 121.346 75.9412L121.825 76.8188Z" fill="black"/>
<path d="M120.795 103.838C120.519 103.816 120.274 104.022 120.248 104.296C120.222 104.57 120.425 104.81 120.701 104.831L120.795 103.838ZM122.935 105.888C123.004 106.153 123.278 106.309 123.546 106.236C123.815 106.163 123.976 105.888 123.907 105.623L122.935 105.888ZM120.701 104.831C122.452 104.966 122.898 105.746 122.935 105.888L123.907 105.623C123.728 104.939 122.803 103.993 120.795 103.838L120.701 104.831Z" fill="black"/>
<path d="M122.324 102.392C122.049 102.364 121.799 102.563 121.767 102.837C121.734 103.11 121.93 103.355 122.206 103.383L122.324 102.392ZM123.273 107.769L122.993 108.187L123.273 107.769ZM118.368 105.397C118.092 105.376 117.847 105.581 117.821 105.855C117.795 106.129 117.997 106.369 118.273 106.39L118.368 105.397ZM122.206 103.383C123.577 103.522 124.407 103.97 124.877 104.478C125.346 104.984 125.496 105.591 125.435 106.139C125.372 106.7 125.095 107.163 124.754 107.396C124.447 107.608 124.041 107.669 123.553 107.351L122.993 108.187C123.808 108.717 124.657 108.665 125.316 108.213C125.942 107.782 126.344 107.03 126.433 106.232C126.523 105.421 126.297 104.527 125.622 103.797C124.949 103.07 123.869 102.548 122.324 102.392L122.206 103.383ZM123.553 107.351C121.395 105.948 119.229 105.463 118.368 105.397L118.273 106.39C118.975 106.444 120.98 106.878 122.993 108.187L123.553 107.351Z" fill="black"/>
<path d="M124.665 99.5885C124.742 99.3227 124.587 99.0497 124.321 98.9787C124.054 98.9077 123.776 99.0656 123.7 99.3314L124.665 99.5885ZM108.124 107.11C107.848 107.09 107.604 107.297 107.58 107.571C107.555 107.846 107.759 108.084 108.035 108.104L108.124 107.11ZM123.7 99.3314C122.898 102.129 118.687 107.867 108.124 107.11L108.035 108.104C119.059 108.893 123.726 102.866 124.665 99.5885L123.7 99.3314Z" fill="black"/>
<defs>
<linearGradient id="paint0_linear_795_12582" x1="65.0444" y1="27" x2="168.642" y2="114.33" gradientUnits="userSpaceOnUse">
<stop offset="0.432292" stop-color="#FDB8D9"/>
<stop offset="1" stop-color="#FFB9B3"/>
</linearGradient>
</defs>
</svg>
