<svg width="222" height="151" viewBox="0 0 222 151" fill="none" xmlns="http://www.w3.org/2000/svg">
<circle cx="95.9999" cy="85" r="65" fill="#EEF4F9"/>
<path d="M204.664 53.3838V81.6988" stroke="#B2C5CF" stroke-linecap="round" stroke-dasharray="3 3"/>
<path d="M176 53.3838L192.605 36.7793L209.034 53.3838H176Z" stroke="#B2C5CF"/>
<path d="M192.604 20V31.1862" stroke="#B2C5CF" stroke-linecap="round"/>
<rect x="190.133" y="31.686" width="5.29223" height="4.5931" rx="1.5" fill="#B2C5CF" stroke="#B2C5CF"/>
<path d="M200.12 53.2091C200.12 55.156 199.347 57.0232 197.97 58.3999C196.593 59.7766 194.726 60.55 192.779 60.55C190.832 60.55 188.965 59.7766 187.588 58.3999C186.212 57.0232 185.438 55.156 185.438 53.2091L192.779 53.2091H200.12Z" fill="#B2C5CF"/>
<path d="M50.0433 128.077C56.6133 122 65.3734 124.587 68.9321 126.435C67.2212 121.576 60.4321 113.048 46.9636 117.812" stroke="#B2C5CF" stroke-linejoin="round"/>
<path d="M65.4416 123.766C63.5938 121.986 57.9682 119.085 50.2484 121.713" stroke="#B2C5CF" stroke-linejoin="round"/>
<path d="M34.2339 128.077H43.6783H52.0962L47.7846 150.046H39.1614L34.2339 128.077Z" fill="#B2C5CF" stroke="#B2C5CF" stroke-linejoin="round"/>
<path d="M39.3669 128.077C36.8347 120.481 31.5239 102.947 30.5384 93.5845C29.5529 84.2222 26.4321 74.6272 24.9949 71C47.0046 84.6328 48.4007 114.732 46.3476 128.077" stroke="#B2C5CF" stroke-linejoin="round"/>
<path d="M33.4127 85.3721C36.5609 92.2159 42.9393 110.338 43.2678 128.077" stroke="#B2C5CF" stroke-linejoin="round"/>
<path d="M34.3939 128.569C31.342 125.993 24.6918 119.905 22.5065 116.158C20.3213 112.411 16.5237 109.137 14.8981 107.969C32.5006 111.664 35.0383 117.041 35.8783 117.609" stroke="#B2C5CF" stroke-linejoin="round"/>
<path d="M15.9999 108.3C19.2633 109.747 26.7885 114.233 30.7825 120.605" stroke="#B2C5CF" stroke-linejoin="round"/>
<line x1="4.5" y1="150.5" x2="77.5" y2="150.5" stroke="#B2C5CF" stroke-linecap="round"/>
<line x1="172.5" y1="150.5" x2="202.5" y2="150.5" stroke="#B2C5CF" stroke-linecap="round"/>
<line x1="208.5" y1="150.5" x2="218.5" y2="150.5" stroke="#B2C5CF" stroke-linecap="round"/>
<path d="M59.6087 80.6777C59.6087 108.18 82.1478 130.479 109.957 130.479H151.957C159.162 130.479 165 124.702 165 117.575V58.2276C165 41.9818 151.685 28.812 135.261 28.812H85.6957C71.2904 28.812 59.6087 40.3655 59.6087 54.6145V80.6777Z" fill="url(#paint0_linear_795_12573)"/>
<mask id="path-18-inside-1_795_12573" fill="white">
<path fill-rule="evenodd" clip-rule="evenodd" d="M57 83.8164C57 106.705 72.297 126.027 93.2354 132.125L90.5328 144.54V144.545C90.465 144.832 90.2824 145.082 90.0268 145.228L83.6146 148.873C82.6859 149.404 83.0615 150.823 84.1311 150.823H102.235C102.668 150.823 103.055 150.557 103.211 150.155L108.754 134.128H123.244L128.788 150.155C128.944 150.557 129.33 150.823 129.763 150.823H147.868C148.937 150.823 149.313 149.404 148.384 148.873L141.972 145.228C141.716 145.082 141.534 144.832 141.466 144.545V144.54L139.2 134.128H147.261C154.466 134.128 160.304 128.294 160.304 121.094V59.5728C160.304 45.1778 148.623 33.5044 134.217 33.5044H83.087C68.6817 33.5044 57 45.1726 57 59.5728V83.8164Z"/>
</mask>
<path d="M93.2354 132.125L94.2125 132.338L94.411 131.426L93.515 131.165L93.2354 132.125ZM90.5328 144.54L89.5557 144.327L89.5328 144.433V144.54H90.5328ZM90.5328 144.545L91.506 144.775L91.5328 144.662V144.545H90.5328ZM90.0268 145.228L90.5209 146.098L90.5226 146.097L90.0268 145.228ZM83.6146 148.873L83.1205 148.003L83.1177 148.005L83.6146 148.873ZM103.211 150.155L104.143 150.518L104.15 150.5L104.156 150.482L103.211 150.155ZM108.754 134.128V133.128H108.042L107.809 133.801L108.754 134.128ZM123.244 134.128L124.189 133.801L123.957 133.128H123.244V134.128ZM128.788 150.155L127.843 150.482L127.849 150.5L127.856 150.518L128.788 150.155ZM148.384 148.873L148.881 148.005L148.878 148.003L148.384 148.873ZM141.972 145.228L141.476 146.097L141.478 146.098L141.972 145.228ZM141.466 144.545H140.466V144.662L140.493 144.775L141.466 144.545ZM141.466 144.54H142.466V144.433L142.443 144.327L141.466 144.54ZM139.2 134.128V133.128H137.958L138.222 134.341L139.2 134.128ZM93.515 131.165C72.9916 125.188 58 106.248 58 83.8164H56C56 107.162 71.6025 126.867 92.9558 133.085L93.515 131.165ZM91.51 144.753L94.2125 132.338L92.2583 131.912L89.5557 144.327L91.51 144.753ZM91.5328 144.545V144.54H89.5328V144.545H91.5328ZM90.5226 146.097C91.0269 145.809 91.3765 145.323 91.506 144.775L89.5597 144.315C89.557 144.327 89.5519 144.337 89.5456 144.346C89.5395 144.354 89.5339 144.358 89.5309 144.36L90.5226 146.097ZM84.1087 149.742L90.5209 146.098L89.5326 144.359L83.1205 148.003L84.1087 149.742ZM84.1311 149.823C84.1197 149.823 84.1121 149.822 84.108 149.821C84.1038 149.82 84.102 149.82 84.1019 149.819C84.1017 149.819 84.1023 149.82 84.1033 149.82C84.1042 149.821 84.1049 149.821 84.1052 149.821C84.106 149.822 84.0961 149.813 84.0902 149.791C84.0842 149.768 84.0884 149.756 84.0883 149.756C84.0882 149.756 84.0879 149.757 84.0875 149.757C84.087 149.758 84.0867 149.758 84.087 149.758C84.0872 149.758 84.0886 149.756 84.0919 149.754C84.0953 149.751 84.1015 149.746 84.1115 149.74L83.1177 148.005C81.3043 149.043 82.031 151.823 84.1311 151.823V149.823ZM102.235 149.823H84.1311V151.823H102.235V149.823ZM102.279 149.792C102.272 149.811 102.254 149.823 102.235 149.823V151.823C103.083 151.823 103.837 151.302 104.143 150.518L102.279 149.792ZM107.809 133.801L102.266 149.828L104.156 150.482L109.699 134.455L107.809 133.801ZM123.244 133.128H108.754V135.128H123.244V133.128ZM122.299 134.455L127.843 150.482L129.733 149.828L124.189 133.801L122.299 134.455ZM127.856 150.518C128.162 151.302 128.916 151.823 129.763 151.823V149.823C129.745 149.823 129.727 149.811 129.719 149.792L127.856 150.518ZM129.763 151.823H147.868V149.823H129.763V151.823ZM147.868 151.823C149.968 151.823 150.694 149.043 148.881 148.005L147.887 149.74C147.897 149.746 147.904 149.751 147.907 149.754C147.91 149.756 147.912 149.758 147.912 149.758C147.912 149.758 147.912 149.758 147.911 149.757C147.911 149.757 147.911 149.756 147.911 149.756C147.91 149.756 147.915 149.768 147.909 149.791C147.903 149.813 147.893 149.822 147.894 149.821C147.894 149.821 147.895 149.821 147.896 149.82C147.897 149.82 147.897 149.819 147.897 149.819C147.897 149.82 147.895 149.82 147.891 149.821C147.887 149.822 147.879 149.823 147.868 149.823V151.823ZM148.878 148.003L142.466 144.359L141.478 146.098L147.89 149.742L148.878 148.003ZM142.468 144.36C142.465 144.358 142.459 144.354 142.453 144.346C142.447 144.337 142.442 144.327 142.439 144.315L140.493 144.775C140.622 145.323 140.972 145.809 141.476 146.097L142.468 144.36ZM142.466 144.545V144.54H140.466V144.545H142.466ZM142.443 144.327L140.177 133.916L138.222 134.341L140.489 144.753L142.443 144.327ZM147.261 133.128H139.2V135.128H147.261V133.128ZM159.304 121.094C159.304 127.741 153.914 133.128 147.261 133.128V135.128C155.018 135.128 161.304 128.847 161.304 121.094H159.304ZM159.304 59.5728V121.094H161.304V59.5728H159.304ZM134.217 34.5044C148.071 34.5044 159.304 45.7308 159.304 59.5728H161.304C161.304 44.6249 149.174 32.5044 134.217 32.5044V34.5044ZM83.087 34.5044H134.217V32.5044H83.087V34.5044ZM58 59.5728C58 45.7257 69.2332 34.5044 83.087 34.5044V32.5044C68.1303 32.5044 56 44.6195 56 59.5728H58ZM58 83.8164V59.5728H56V83.8164H58Z" fill="black" mask="url(#path-18-inside-1_795_12573)"/>
<path d="M102.589 75.4665C102.656 75.7343 102.928 75.897 103.196 75.8297C103.464 75.7625 103.626 75.4909 103.559 75.2231L102.589 75.4665ZM95.6952 77.134C95.5501 77.369 95.6229 77.6771 95.8578 77.8222C96.0927 77.9674 96.4008 77.8946 96.546 77.6597L95.6952 77.134ZM103.559 75.2231C103.284 74.129 102.781 73.2809 102.046 72.8335C101.287 72.3712 100.391 72.403 99.5032 72.8451L99.949 73.7403C100.606 73.4129 101.127 73.4447 101.526 73.6878C101.95 73.9458 102.349 74.5085 102.589 75.4665L103.559 75.2231ZM99.5032 72.8451C98.7789 73.2059 97.9902 74.0335 97.3299 74.8427C96.6528 75.6726 96.048 76.563 95.6952 77.134L96.546 77.6597C96.8799 77.1191 97.4598 76.2654 98.1047 75.4749C98.7665 74.6639 99.4372 73.9952 99.949 73.7403L99.5032 72.8451Z" fill="black"/>
<ellipse cx="99.108" cy="86.7491" rx="7.10803" ry="7.07966" fill="white"/>
<ellipse cx="98.8118" cy="88.5188" rx="0.888504" ry="1.17994" fill="black"/>
<path d="M122.411 75.4665C122.344 75.7343 122.072 75.897 121.804 75.8297C121.536 75.7625 121.374 75.4909 121.441 75.2231L122.411 75.4665ZM129.305 77.134C129.45 77.369 129.377 77.6771 129.142 77.8222C128.907 77.9674 128.599 77.8946 128.454 77.6597L129.305 77.134ZM121.441 75.2231C121.716 74.129 122.219 73.2809 122.954 72.8335C123.713 72.3712 124.609 72.403 125.497 72.8451L125.051 73.7403C124.394 73.4129 123.873 73.4447 123.474 73.6878C123.05 73.9458 122.651 74.5085 122.411 75.4665L121.441 75.2231ZM125.497 72.8451C126.221 73.2059 127.01 74.0335 127.67 74.8427C128.347 75.6726 128.952 76.563 129.305 77.134L128.454 77.6597C128.12 77.1191 127.54 76.2654 126.895 75.4749C126.234 74.6639 125.563 73.9952 125.051 73.7403L125.497 72.8451Z" fill="black"/>
<ellipse rx="7.10803" ry="7.07966" transform="matrix(-1 0 0 1 125.892 86.7491)" fill="white"/>
<ellipse rx="0.888504" ry="1.17994" transform="matrix(-1 0 0 1 126.188 88.5188)" fill="black"/>
<path d="M109.513 91.9819V96.0738C109.513 97.7806 110.896 99.1642 112.603 99.1642V99.1642C114.31 99.1642 115.693 97.7806 115.693 96.0738V91.9819" stroke="black" stroke-linecap="round"/>
<path d="M99.7261 103.268C106.68 109.681 120.844 107.629 128.313 98.6509" stroke="black" stroke-linecap="round"/>
<defs>
<linearGradient id="paint0_linear_795_12573" x1="59.6087" y1="28.812" x2="161.21" y2="134.135" gradientUnits="userSpaceOnUse">
<stop offset="0.432292" stop-color="#68CB57"/>
<stop offset="1" stop-color="#589F55"/>
</linearGradient>
</defs>
</svg>
