<svg width="222" height="157" viewBox="0 0 222 157" fill="none" xmlns="http://www.w3.org/2000/svg">
<path d="M40.4228 96.6665C30.2312 85.3875 34.2771 67.4177 48.319 61.5949L120.779 31.5476C131.011 27.3044 142.803 31.331 148.303 40.9464L177.68 92.306C183.713 102.853 180.053 116.293 169.506 122.326L115.065 153.466C106.09 158.6 94.7504 156.791 87.8183 149.119L40.4228 96.6665Z" fill="#EEF4F9"/>
<path d="M37.9071 21H17.9602L3 50.4972C19.4779 58.6522 43.6165 53.8951 52 50.4972L37.9071 21Z" stroke="#B2C5CF"/>
<path d="M26 55L26 137" stroke="#B2C5CF"/>
<rect x="15.5" y="137.5" width="22" height="7" stroke="#B2C5CF"/>
<rect x="11.5" y="144.5" width="30" height="6" stroke="#B2C5CF"/>
<path d="M176.522 123.56H191.423H198.139C204.855 123.56 205.484 114.116 202.966 111.387C207.793 111.387 209.262 101.733 200.657 101.733C195.41 76.3393 165.819 88.0919 169.806 104.672C162.461 108.029 162.671 123.56 176.522 123.56Z" stroke="#B2C5CF"/>
<path d="M185.547 123.56V137.621" stroke="#B2C5CF"/>
<path d="M177.991 137.621H185.981H193.102L189.454 150.213H182.16L177.991 137.621Z" stroke="#B2C5CF" stroke-linejoin="round"/>
<circle cx="180.09" cy="104.042" r="0.839474" fill="#B2C5CF"/>
<circle cx="189.744" cy="101.104" r="0.839474" fill="#B2C5CF"/>
<circle cx="198.139" cy="107.819" r="0.839474" fill="#B2C5CF"/>
<circle cx="188.904" cy="111.597" r="0.839474" fill="#B2C5CF"/>
<circle cx="175.473" cy="114.955" r="0.839474" fill="#B2C5CF"/>
<circle cx="193.522" cy="118.313" r="0.839474" fill="#B2C5CF"/>
<circle cx="200.237" cy="116.214" r="0.839474" fill="#B2C5CF"/>
<circle cx="183.868" cy="118.733" r="0.839474" fill="#B2C5CF"/>
<line x1="146.5" y1="150.5" x2="219.5" y2="150.5" stroke="#B2C5CF" stroke-linecap="round"/>
<line x1="46.5" y1="150.5" x2="55.5" y2="150.5" stroke="#B2C5CF" stroke-linecap="round"/>
<path d="M65.3188 85.3247C62.8057 61.3985 77.7954 39.4238 100.497 30.7386C106.845 28.3109 113.627 27.1284 120.434 27.0238C176.422 26.1657 144.024 48.627 146.976 76.7337C149.928 104.84 157.29 128.542 126.521 131.78C95.7528 135.019 68.3544 114.221 65.3188 85.33V85.3247Z" fill="url(#paint0_linear_795_12633)"/>
<mask id="path-20-inside-1_795_12633" fill="white">
<path fill-rule="evenodd" clip-rule="evenodd" d="M70.6166 88.0142C68.1662 64.6739 82.3461 43.212 104.034 34.2704C110.669 31.534 117.832 30.1894 125.027 30.09C162.894 29.5442 159.732 39.8749 154.968 55.4408C152.791 62.557 150.278 70.7674 151.197 79.533C151.569 83.0775 152.005 86.5316 152.426 89.8696C154.808 108.748 156.721 123.913 143.977 130.728L146.972 144.518V144.523C147.04 144.811 147.223 145.062 147.479 145.208L153.9 148.866C154.83 149.399 154.454 150.822 153.383 150.822H135.253C134.82 150.822 134.433 150.555 134.276 150.153L128.851 134.435C123.892 134.772 119.035 134.474 114.373 133.612L108.664 150.153C108.507 150.555 108.12 150.822 107.687 150.822H89.5569C88.4858 150.822 88.1096 149.399 89.0396 148.866L95.4608 145.208C95.7168 145.062 95.8997 144.811 95.9676 144.523V144.518L99.4212 128.619C83.7928 120.816 72.4973 105.987 70.6114 88.0142H70.6166Z"/>
</mask>
<path d="M104.034 34.2704L104.415 35.1949L104.415 35.1949L104.034 34.2704ZM70.6166 88.0142V89.0142H71.7271L71.6111 87.9098L70.6166 88.0142ZM125.027 30.09L125.041 31.0899L125.041 31.0899L125.027 30.09ZM154.968 55.4408L154.012 55.1482L154.968 55.4408ZM151.197 79.533L150.203 79.6373L150.203 79.6374L151.197 79.533ZM152.426 89.8696L153.418 89.7444L152.426 89.8696ZM143.977 130.728L143.505 129.846L142.839 130.202L143 130.94L143.977 130.728ZM146.972 144.518H147.972V144.41L147.95 144.305L146.972 144.518ZM146.972 144.523H145.972V144.639L145.999 144.753L146.972 144.523ZM147.479 145.208L146.982 146.076L146.984 146.077L147.479 145.208ZM153.9 148.866L154.398 147.998L154.395 147.997L153.9 148.866ZM134.276 150.153L133.331 150.479L133.337 150.497L133.344 150.515L134.276 150.153ZM128.851 134.435L129.797 134.109L129.547 133.386L128.784 133.437L128.851 134.435ZM114.373 133.612L114.554 132.629L113.708 132.472L113.427 133.286L114.373 133.612ZM108.664 150.153L109.596 150.515L109.603 150.497L109.609 150.479L108.664 150.153ZM89.0396 148.866L88.5447 147.997L88.5419 147.998L89.0396 148.866ZM95.4608 145.208L95.9557 146.077L95.9575 146.076L95.4608 145.208ZM95.9676 144.523L96.9409 144.753L96.9676 144.639V144.523H95.9676ZM95.9676 144.518L94.9904 144.305L94.9676 144.41V144.518H95.9676ZM99.4212 128.619L100.398 128.831L100.563 128.071L99.8679 127.724L99.4212 128.619ZM70.6114 88.0142V87.0142H69.5009L69.6168 88.1185L70.6114 88.0142ZM103.653 33.3459C81.5967 42.4393 67.1208 64.2939 69.6221 88.1186L71.6111 87.9098C69.2116 65.054 83.0954 43.9847 104.415 35.1949L103.653 33.3459ZM125.013 29.0901C117.705 29.191 110.415 30.557 103.653 33.3459L104.415 35.1949C110.923 32.511 117.96 31.1877 125.041 31.0899L125.013 29.0901ZM155.925 55.7334C157.107 51.8685 158.23 48.2107 158.618 44.9543C159.007 41.6786 158.675 38.6435 156.784 36.1232C154.907 33.6221 151.633 31.8162 146.573 30.6571C141.505 29.496 134.511 28.9532 125.012 29.0901L125.041 31.0899C134.476 30.9539 141.287 31.4977 146.127 32.6066C150.976 33.7174 153.714 35.3648 155.184 37.3238C156.64 39.2637 156.991 41.6957 156.632 44.718C156.27 47.7594 155.211 51.2301 154.012 55.1482L155.925 55.7334ZM152.192 79.4287C151.297 70.8957 153.739 62.8752 155.925 55.7334L154.012 55.1482C151.842 62.2389 149.259 70.6392 150.203 79.6373L152.192 79.4287ZM153.418 89.7444C152.997 86.405 152.563 82.9611 152.192 79.4286L150.203 79.6374C150.576 83.194 151.013 86.6582 151.434 89.9947L153.418 89.7444ZM144.448 131.61C151.191 128.004 154.024 122.162 154.867 114.938C155.701 107.789 154.604 99.1425 153.418 89.7444L151.434 89.9947C152.63 99.4751 153.68 107.851 152.88 114.707C152.089 121.488 149.507 126.637 143.505 129.846L144.448 131.61ZM147.95 144.305L144.954 130.516L143 130.94L145.995 144.73L147.95 144.305ZM147.972 144.523V144.518H145.972V144.523H147.972ZM147.976 144.34C147.973 144.339 147.967 144.334 147.96 144.326C147.954 144.317 147.948 144.305 147.946 144.293L145.999 144.753C146.128 145.3 146.478 145.787 146.982 146.076L147.976 144.34ZM154.395 147.997L147.974 144.339L146.984 146.077L153.405 149.734L154.395 147.997ZM153.383 151.822C155.489 151.822 156.207 149.036 154.398 147.998L153.403 149.733C153.413 149.739 153.419 149.743 153.422 149.746C153.426 149.749 153.427 149.751 153.428 149.751C153.428 149.752 153.428 149.751 153.427 149.751C153.427 149.75 153.427 149.75 153.427 149.75C153.427 149.751 153.432 149.765 153.425 149.789C153.419 149.812 153.409 149.822 153.409 149.821C153.409 149.821 153.41 149.82 153.411 149.82C153.412 149.819 153.412 149.819 153.412 149.819C153.412 149.819 153.41 149.82 153.406 149.821C153.402 149.821 153.394 149.822 153.383 149.822V151.822ZM135.253 151.822H153.383V149.822H135.253V151.822ZM133.344 150.515C133.649 151.299 134.404 151.822 135.253 151.822V149.822C135.235 149.822 135.217 149.812 135.208 149.79L133.344 150.515ZM127.906 134.761L133.331 150.479L135.222 149.826L129.797 134.109L127.906 134.761ZM114.191 134.595C118.935 135.472 123.875 135.775 128.919 135.433L128.784 133.437C123.908 133.768 119.135 133.475 114.554 132.629L114.191 134.595ZM109.609 150.479L115.318 133.938L113.427 133.286L107.718 149.826L109.609 150.479ZM107.687 151.822C108.536 151.822 109.291 151.299 109.596 150.515L107.732 149.79C107.723 149.812 107.705 149.822 107.687 149.822V151.822ZM89.5569 151.822H107.687V149.822H89.5569V151.822ZM88.5419 147.998C86.7326 149.036 87.4507 151.822 89.5569 151.822V149.822C89.5455 149.822 89.538 149.821 89.5338 149.821C89.5297 149.82 89.5279 149.819 89.5278 149.819C89.5276 149.819 89.5282 149.819 89.5291 149.82C89.53 149.82 89.5306 149.821 89.5308 149.821C89.5313 149.822 89.5209 149.812 89.5147 149.789C89.5084 149.765 89.5126 149.751 89.5129 149.75C89.5129 149.75 89.5128 149.75 89.5125 149.751C89.5121 149.751 89.5119 149.752 89.5123 149.751C89.5126 149.751 89.5141 149.749 89.5176 149.746C89.521 149.743 89.5273 149.739 89.5373 149.733L88.5419 147.998ZM94.9659 144.339L88.5447 147.997L89.5345 149.734L95.9557 146.077L94.9659 144.339ZM94.9944 144.293C94.9915 144.305 94.9861 144.317 94.9795 144.326C94.9731 144.334 94.9672 144.339 94.9642 144.34L95.9575 146.076C96.4623 145.787 96.8116 145.3 96.9409 144.753L94.9944 144.293ZM94.9676 144.518V144.523H96.9676V144.518H94.9676ZM98.444 128.406L94.9904 144.305L96.9448 144.73L100.398 128.831L98.444 128.406ZM69.6168 88.1185C71.5415 106.461 83.0685 121.572 98.9745 129.513L99.8679 127.724C84.5172 120.06 73.453 105.513 71.6059 87.9098L69.6168 88.1185ZM70.6166 87.0142H70.6114V89.0142H70.6166V87.0142Z" fill="black" mask="url(#path-20-inside-1_795_12633)"/>
<path d="M110.363 90.9067V95.0055C110.363 96.6977 111.734 98.0695 113.427 98.0695V98.0695C115.119 98.0695 116.491 96.6977 116.491 95.0055V90.9067" stroke="black" stroke-linecap="round"/>
<path d="M100.149 106C105.597 105.233 118.584 103.595 126.959 103.186" stroke="black" stroke-linecap="round"/>
<ellipse cx="99.9673" cy="87.143" rx="6.96733" ry="6.98045" fill="white"/>
<ellipse cx="99.6771" cy="88.888" rx="0.870917" ry="1.16341" fill="black"/>
<path d="M97.3406 78.1161C98.3619 77.4339 101.273 76.5812 104.745 78.6277" stroke="black" stroke-linecap="round"/>
<ellipse cx="127.033" cy="87.143" rx="6.96733" ry="6.98045" fill="white"/>
<ellipse cx="126.743" cy="88.888" rx="0.870917" ry="1.16341" fill="black"/>
<path d="M120.065 76.8481C121.597 77.1039 123.895 72.7551 126.449 73.0109" stroke="black" stroke-linecap="round"/>
<defs>
<linearGradient id="paint0_linear_795_12633" x1="65.0444" y1="27" x2="168.642" y2="114.33" gradientUnits="userSpaceOnUse">
<stop offset="0.432292" stop-color="#62ECDD"/>
<stop offset="1" stop-color="#A4FFF2"/>
</linearGradient>
</defs>
</svg>
