<svg width="222" height="151" viewBox="0 0 222 151" fill="none" xmlns="http://www.w3.org/2000/svg">
<circle cx="95.9999" cy="85" r="65" fill="#EEF4F9"/>
<path d="M204.664 53.3838V81.6988" stroke="#B2C5CF" stroke-linecap="round" stroke-dasharray="3 3"/>
<path d="M176 53.3838L192.605 36.7793L209.034 53.3838H176Z" stroke="#B2C5CF"/>
<path d="M192.604 20V31.1862" stroke="#B2C5CF" stroke-linecap="round"/>
<rect x="190.133" y="31.686" width="5.29223" height="4.5931" rx="1.5" fill="#B2C5CF" stroke="#B2C5CF"/>
<path d="M200.12 53.2091C200.12 55.156 199.347 57.0232 197.97 58.3999C196.593 59.7766 194.726 60.55 192.779 60.55C190.832 60.55 188.965 59.7766 187.588 58.3999C186.212 57.0232 185.438 55.156 185.438 53.2091L192.779 53.2091H200.12Z" fill="#B2C5CF"/>
<path d="M50.0433 128.077C56.6133 122 65.3734 124.587 68.9321 126.435C67.2212 121.576 60.4321 113.048 46.9636 117.812" stroke="#B2C5CF" stroke-linejoin="round"/>
<path d="M65.4416 123.766C63.5938 121.986 57.9682 119.085 50.2484 121.713" stroke="#B2C5CF" stroke-linejoin="round"/>
<path d="M34.2339 128.077H43.6783H52.0962L47.7846 150.046H39.1614L34.2339 128.077Z" fill="#B2C5CF" stroke="#B2C5CF" stroke-linejoin="round"/>
<path d="M39.3669 128.077C36.8347 120.481 31.5239 102.947 30.5384 93.5845C29.5529 84.2222 26.4321 74.6272 24.9949 71C47.0046 84.6328 48.4007 114.732 46.3476 128.077" stroke="#B2C5CF" stroke-linejoin="round"/>
<path d="M33.4127 85.3721C36.5609 92.2159 42.9393 110.338 43.2678 128.077" stroke="#B2C5CF" stroke-linejoin="round"/>
<path d="M34.3939 128.569C31.342 125.993 24.6918 119.905 22.5065 116.158C20.3213 112.411 16.5237 109.137 14.8981 107.969C32.5006 111.664 35.0383 117.041 35.8783 117.609" stroke="#B2C5CF" stroke-linejoin="round"/>
<path d="M15.9999 108.3C19.2633 109.747 26.7885 114.233 30.7825 120.605" stroke="#B2C5CF" stroke-linejoin="round"/>
<line x1="4.5" y1="150.5" x2="77.5" y2="150.5" stroke="#B2C5CF" stroke-linecap="round"/>
<line x1="172.5" y1="150.5" x2="202.5" y2="150.5" stroke="#B2C5CF" stroke-linecap="round"/>
<line x1="208.5" y1="150.5" x2="218.5" y2="150.5" stroke="#B2C5CF" stroke-linecap="round"/>
<path fill-rule="evenodd" clip-rule="evenodd" d="M116.844 132.331C146.003 132.331 169.642 109.198 169.642 80.6657C169.642 52.1333 146.008 29 116.844 29C87.6791 29 64.04 55.0042 64.04 83.5366C64.04 84.7514 64.0815 85.9558 64.1646 87.1499C64.4398 91.0798 62.6846 94.8956 59.5064 97.2266C54.5885 100.84 51.2648 105.305 50.8027 111.529C49.9718 122.815 59.2 132.331 70.5366 132.331H112.996C113.489 132.331 113.982 132.316 114.465 132.279C114.465 132.279 114.465 132.279 114.47 132.279C115.26 132.316 116.049 132.331 116.839 132.331H116.844Z" fill="url(#paint0_linear_795_12609)"/>
<mask id="path-18-inside-1_795_12609" fill="white">
<path fill-rule="evenodd" clip-rule="evenodd" d="M142.257 129.851C159.851 121.556 171.995 103.924 171.995 83.5105C171.995 55.1234 148.511 32.1147 119.544 32.1147C90.5769 32.1147 66.6262 55.1234 66.6262 83.5105C66.6262 84.6059 66.6625 85.6961 66.73 86.7707C66.9897 90.8772 65.6602 94.8591 62.3522 97.3043C57.1071 101.182 53.7472 107.454 53.8926 114.509C54.1263 125.733 63.8842 134.906 75.1117 134.906H86.4792L84.3769 144.568V144.573C84.3094 144.858 84.1277 145.108 83.8732 145.253L77.4909 148.882C76.5665 149.411 76.9404 150.823 78.005 150.823H96.0251C96.4562 150.823 96.8405 150.559 96.9963 150.159L102.27 134.906H115.722C116.215 134.906 116.704 134.891 117.186 134.854C117.971 134.891 118.755 134.906 119.544 134.906C122.204 134.906 124.817 134.712 127.37 134.338L132.84 150.159C132.996 150.559 133.38 150.823 133.811 150.823H151.832C152.896 150.823 153.27 149.411 152.346 148.882L145.963 145.253C145.709 145.108 145.527 144.858 145.46 144.573V144.568L142.257 129.851Z"/>
</mask>
<path d="M142.257 129.851L141.831 128.946L141.111 129.286L141.28 130.063L142.257 129.851ZM66.73 86.7707L65.732 86.8334L65.732 86.8339L66.73 86.7707ZM62.3522 97.3043L61.7578 96.5001L61.7577 96.5002L62.3522 97.3043ZM53.8926 114.509L52.8928 114.529L52.8928 114.53L53.8926 114.509ZM86.4792 134.906L87.4564 135.119L87.7202 133.906H86.4792V134.906ZM84.3769 144.568L83.3998 144.355L83.3769 144.46V144.568H84.3769ZM84.3769 144.573L85.3501 144.803L85.3769 144.689V144.573H84.3769ZM83.8732 145.253L84.3675 146.122L84.3692 146.121L83.8732 145.253ZM77.4909 148.882L76.9966 148.012L76.9938 148.014L77.4909 148.882ZM96.9963 150.159L97.928 150.522L97.935 150.504L97.9414 150.486L96.9963 150.159ZM102.27 134.906V133.906H101.557L101.325 134.579L102.27 134.906ZM117.186 134.854L117.233 133.855L117.172 133.853L117.111 133.857L117.186 134.854ZM127.37 134.338L128.315 134.011L128.045 133.228L127.225 133.349L127.37 134.338ZM132.84 150.159L131.895 150.486L131.901 150.504L131.908 150.522L132.84 150.159ZM152.346 148.882L152.843 148.014L152.84 148.012L152.346 148.882ZM145.963 145.253L145.467 146.121L145.469 146.122L145.963 145.253ZM145.46 144.573H144.46V144.689L144.486 144.803L145.46 144.573ZM145.46 144.568H146.46V144.46L146.437 144.355L145.46 144.568ZM170.995 83.5105C170.995 103.514 159.096 120.807 141.831 128.946L142.684 130.755C160.607 122.305 172.995 104.334 172.995 83.5105H170.995ZM119.544 33.1147C147.978 33.1147 170.995 55.6948 170.995 83.5105H172.995C172.995 54.5521 149.044 31.1147 119.544 31.1147V33.1147ZM67.6262 83.5105C67.6262 55.7062 91.0982 33.1147 119.544 33.1147V31.1147C90.0556 31.1147 65.6262 54.5407 65.6262 83.5105H67.6262ZM67.728 86.708C67.6618 85.6532 67.6262 84.5839 67.6262 83.5105H65.6262C65.6262 84.6279 65.6632 85.7391 65.732 86.8334L67.728 86.708ZM62.9466 98.1084C66.5979 95.4095 68.0029 91.0555 67.728 86.7076L65.732 86.8339C65.9764 90.6989 64.7226 94.3086 61.7578 96.5001L62.9466 98.1084ZM54.8924 114.488C54.754 107.772 57.9508 101.802 62.9467 98.1084L61.7577 96.5002C56.2635 100.562 52.7404 107.136 52.8928 114.529L54.8924 114.488ZM75.1117 133.906C64.4043 133.906 55.1143 125.144 54.8924 114.488L52.8928 114.53C53.1383 126.322 63.3641 135.906 75.1117 135.906V133.906ZM86.4792 133.906H75.1117V135.906H86.4792V133.906ZM85.3541 144.78L87.4564 135.119L85.5021 134.694L83.3998 144.355L85.3541 144.78ZM85.3769 144.573V144.568H83.3769V144.573H85.3769ZM84.3692 146.121C84.8723 145.834 85.221 145.349 85.3501 144.803L83.4038 144.343C83.4012 144.354 83.3963 144.364 83.3904 144.372C83.3847 144.38 83.3796 144.383 83.3772 144.385L84.3692 146.121ZM77.9851 149.751L84.3675 146.122L83.3789 144.384L76.9966 148.012L77.9851 149.751ZM78.005 149.823C77.9939 149.823 77.9867 149.822 77.9828 149.822C77.9808 149.821 77.9795 149.821 77.9787 149.821C77.9783 149.821 77.978 149.821 77.9778 149.821C77.9776 149.821 77.9776 149.821 77.9776 149.821C77.9775 149.821 77.9776 149.821 77.9777 149.821C77.9779 149.821 77.978 149.821 77.9782 149.821C77.9787 149.821 77.9792 149.821 77.9797 149.822C77.9809 149.822 77.9818 149.823 77.9823 149.823C77.9839 149.825 77.9745 149.817 77.9687 149.795C77.963 149.773 77.9671 149.761 77.9667 149.763C77.9666 149.763 77.9662 149.764 77.9657 149.765C77.9651 149.766 77.9646 149.766 77.9647 149.766C77.9647 149.766 77.966 149.765 77.9691 149.762C77.9723 149.759 77.9782 149.755 77.9879 149.749L76.9938 148.014C75.1858 149.05 75.9089 151.823 78.005 151.823V149.823ZM96.0251 149.823H78.005V151.823H96.0251V149.823ZM96.0645 149.796C96.0576 149.814 96.0417 149.823 96.0251 149.823V151.823C96.8706 151.823 97.6234 151.304 97.928 150.522L96.0645 149.796ZM101.325 134.579L96.0512 149.832L97.9414 150.486L103.215 135.233L101.325 134.579ZM115.722 133.906H102.27V135.906H115.722V133.906ZM117.111 133.857C116.657 133.891 116.195 133.906 115.722 133.906V135.906C116.236 135.906 116.75 135.89 117.262 135.851L117.111 133.857ZM119.544 133.906C118.768 133.906 117.999 133.891 117.233 133.855L117.14 135.853C117.942 135.89 118.742 135.906 119.544 135.906V133.906ZM127.225 133.349C124.72 133.716 122.155 133.906 119.544 133.906V135.906C122.252 135.906 124.914 135.709 127.515 135.327L127.225 133.349ZM126.425 134.665L131.895 150.486L133.785 149.832L128.315 134.011L126.425 134.665ZM131.908 150.522C132.213 151.304 132.966 151.823 133.811 151.823V149.823C133.795 149.823 133.779 149.814 133.772 149.796L131.908 150.522ZM133.811 151.823H151.832V149.823H133.811V151.823ZM151.832 151.823C153.928 151.823 154.651 149.05 152.843 148.014L151.849 149.749C151.858 149.755 151.864 149.759 151.867 149.762C151.871 149.765 151.872 149.766 151.872 149.766C151.872 149.766 151.871 149.766 151.871 149.765C151.87 149.764 151.87 149.763 151.87 149.763C151.869 149.761 151.873 149.773 151.868 149.795C151.862 149.817 151.853 149.825 151.854 149.823C151.855 149.823 151.856 149.822 151.857 149.822C151.857 149.821 151.858 149.821 151.858 149.821C151.858 149.821 151.859 149.821 151.859 149.821C151.859 149.821 151.859 149.821 151.859 149.821C151.859 149.821 151.859 149.821 151.859 149.821C151.858 149.821 151.858 149.821 151.858 149.821C151.857 149.821 151.856 149.821 151.854 149.822C151.85 149.822 151.843 149.823 151.832 149.823V151.823ZM152.84 148.012L146.458 144.384L145.469 146.122L151.851 149.751L152.84 148.012ZM146.459 144.385C146.457 144.383 146.452 144.38 146.446 144.372C146.44 144.364 146.435 144.354 146.433 144.343L144.486 144.803C144.615 145.349 144.964 145.834 145.467 146.121L146.459 144.385ZM146.46 144.573V144.568H144.46V144.573H146.46ZM146.437 144.355L143.234 129.638L141.28 130.063L144.482 144.78L146.437 144.355Z" fill="black" mask="url(#path-18-inside-1_795_12609)"/>
<path d="M113.718 109.404C116.036 110.855 118.286 108.086 119.74 107.158C121.194 106.229 123.236 105.725 124.482 107.061" stroke="black" stroke-linecap="round"/>
<path d="M119.328 84.2373C122.732 80.0451 125.874 82.7577 126.922 84.2373" stroke="black" stroke-linecap="round"/>
<path d="M107.283 98.0469V101.809C107.283 103.545 108.689 104.952 110.425 104.952V104.952C112.16 104.952 113.567 103.545 113.567 101.809V98.4999" stroke="black" stroke-linecap="round"/>
<ellipse cx="97.1453" cy="93.4322" rx="7.14533" ry="6.72906" fill="white"/>
<ellipse cx="96.8476" cy="95.1147" rx="0.893166" ry="1.12151" fill="black"/>
<ellipse cx="123.855" cy="93.4322" rx="7.14533" ry="6.72906" fill="white"/>
<ellipse cx="123.557" cy="95.1147" rx="0.893166" ry="1.12151" fill="black"/>
<path d="M93.1423 84.9359C98.7805 82.7416 100.742 86.5032 104.664 85.5628" stroke="black" stroke-linecap="round"/>
<path d="M130.35 95.5632C130.35 100.026 126.499 103.694 121.685 103.694C116.87 103.694 113.02 100.026 113.02 95.5632C113.02 91.1004 116.87 87.4321 121.685 87.4321C126.499 87.4321 130.35 91.1004 130.35 95.5632Z" stroke="black"/>
<defs>
<linearGradient id="paint0_linear_795_12609" x1="50.7506" y1="29" x2="153.074" y2="146.732" gradientUnits="userSpaceOnUse">
<stop offset="0.432292" stop-color="#569D97"/>
<stop offset="1" stop-color="#58C6B4"/>
</linearGradient>
</defs>
</svg>
