<svg width="222" height="151" viewBox="0 0 222 151" fill="none" xmlns="http://www.w3.org/2000/svg">
<circle cx="96" cy="85" r="65" fill="#EEF4F9"/>
<path d="M204.665 53.3838V81.6988" stroke="#B2C5CF" stroke-linecap="round" stroke-dasharray="3 3"/>
<path d="M176 53.3838L192.605 36.7793L209.034 53.3838H176Z" stroke="#B2C5CF"/>
<path d="M192.604 20V31.1862" stroke="#B2C5CF" stroke-linecap="round"/>
<rect x="190.133" y="31.686" width="5.29223" height="4.5931" rx="1.5" fill="#B2C5CF" stroke="#B2C5CF"/>
<path d="M200.12 53.2091C200.12 55.156 199.347 57.0232 197.97 58.3999C196.593 59.7766 194.726 60.55 192.779 60.55C190.832 60.55 188.965 59.7766 187.588 58.3999C186.212 57.0232 185.438 55.156 185.438 53.2091L192.779 53.2091H200.12Z" fill="#B2C5CF"/>
<path d="M50.0433 128.077C56.6134 122 65.3734 124.587 68.9322 126.435C67.2213 121.576 60.4322 113.048 46.9636 117.812" stroke="#B2C5CF" stroke-linejoin="round"/>
<path d="M65.4418 123.766C63.5939 121.986 57.9683 119.085 50.2485 121.713" stroke="#B2C5CF" stroke-linejoin="round"/>
<path d="M34.2339 128.077H43.6783H52.0962L47.7846 150.046H39.1614L34.2339 128.077Z" fill="#B2C5CF" stroke="#B2C5CF" stroke-linejoin="round"/>
<path d="M39.3668 128.077C36.8346 120.481 31.5239 102.947 30.5383 93.5845C29.5528 84.2222 26.4321 74.6272 24.9949 71C47.0045 84.6328 48.4007 114.732 46.3475 128.077" stroke="#B2C5CF" stroke-linejoin="round"/>
<path d="M33.4126 85.3721C36.5607 92.2159 42.9392 110.338 43.2677 128.077" stroke="#B2C5CF" stroke-linejoin="round"/>
<path d="M34.3939 128.569C31.342 125.993 24.6918 119.905 22.5066 116.158C20.3213 112.411 16.5238 109.137 14.8982 107.969C32.5006 111.664 35.0383 117.041 35.8784 117.609" stroke="#B2C5CF" stroke-linejoin="round"/>
<path d="M16 108.3C19.2634 109.747 26.7886 114.233 30.7826 120.605" stroke="#B2C5CF" stroke-linejoin="round"/>
<line x1="4.5" y1="150.5" x2="77.5" y2="150.5" stroke="#B2C5CF" stroke-linecap="round"/>
<line x1="172.5" y1="150.5" x2="202.5" y2="150.5" stroke="#B2C5CF" stroke-linecap="round"/>
<line x1="208.5" y1="150.5" x2="218.5" y2="150.5" stroke="#B2C5CF" stroke-linecap="round"/>
<path d="M98.269 131.7C67.9638 127.227 76.0742 104.624 80.2173 75.8794C84.2517 47.914 53.0931 24.1708 108.438 27.2735C115.172 27.6502 121.829 29.1047 128.016 31.7887C150.128 41.3791 164.083 63.9398 160.648 87.7457C156.505 116.491 128.574 136.174 98.269 131.7Z" fill="url(#paint0_linear_795_12636)"/>
<mask id="path-18-inside-1_795_12636" fill="white">
<path fill-rule="evenodd" clip-rule="evenodd" d="M74.3035 88.7896C70.792 110.011 68.0613 126.515 86.6728 132.42L84.0714 144.517V144.523C84.0041 144.81 83.8231 145.061 83.5696 145.208L77.2127 148.865C76.292 149.399 76.6645 150.822 77.7248 150.822H95.6731C96.1024 150.822 96.4852 150.555 96.6403 150.152L101.952 134.606C106.813 134.619 111.555 134.009 116.083 132.846L121.996 150.152C122.152 150.555 122.534 150.822 122.964 150.822H140.912C141.972 150.822 142.345 149.399 141.424 148.865L135.067 145.208C134.814 145.061 134.633 144.81 134.565 144.523V144.517L130.738 126.719C143.678 118.934 153.039 105.936 155.305 90.2203C158.652 66.9951 145.483 44.9838 124.379 35.1789C117.924 32.1757 110.895 30.5485 103.778 30.1561C66.3433 28.0916 69.061 38.5419 73.1554 54.2867C75.0273 61.4848 77.187 69.7896 75.9293 78.5109C75.4207 82.0375 74.8525 85.4712 74.3035 88.7896Z"/>
</mask>
<path d="M86.6728 132.42L87.6505 132.63L87.8416 131.742L86.9753 131.467L86.6728 132.42ZM74.3035 88.7896L73.3169 88.6264L74.3035 88.7896ZM84.0714 144.517L83.0937 144.307L83.0714 144.411V144.517H84.0714ZM84.0714 144.523L85.0451 144.75L85.0714 144.638V144.523H84.0714ZM83.5696 145.208L84.0683 146.075L84.0701 146.074L83.5696 145.208ZM77.2127 148.865L76.7141 147.998L76.7113 148L77.2127 148.865ZM96.6403 150.152L97.5735 150.512L97.5804 150.494L97.5866 150.476L96.6403 150.152ZM101.952 134.606L101.955 133.606L101.238 133.604L101.006 134.283L101.952 134.606ZM116.083 132.846L117.029 132.522L116.73 131.647L115.834 131.877L116.083 132.846ZM121.996 150.152L121.05 150.476L121.056 150.494L121.063 150.512L121.996 150.152ZM141.424 148.865L141.926 148L141.923 147.998L141.424 148.865ZM135.067 145.208L134.567 146.074L134.568 146.075L135.067 145.208ZM134.565 144.523H133.565V144.638L133.592 144.75L134.565 144.523ZM134.565 144.517H135.565V144.411L135.543 144.307L134.565 144.517ZM130.738 126.719L130.222 125.862L129.61 126.23L129.76 126.929L130.738 126.719ZM155.305 90.2203L156.295 90.363L156.295 90.3629L155.305 90.2203ZM124.379 35.1789L123.958 36.0856L123.958 36.0858L124.379 35.1789ZM103.778 30.1561L103.723 31.1546L103.723 31.1546L103.778 30.1561ZM73.1554 54.2867L72.1876 54.5384L73.1554 54.2867ZM75.9293 78.5109L76.9191 78.6537L76.9191 78.6536L75.9293 78.5109ZM86.9753 131.467C82.4597 130.034 79.3157 127.985 77.156 125.448C74.9962 122.911 73.7605 119.815 73.1794 116.19C72.0062 108.87 73.5244 99.6235 75.29 88.9529L73.3169 88.6264C71.5711 99.1772 69.9682 108.793 71.2046 116.507C71.8284 120.399 73.1802 123.863 75.6331 126.744C78.0862 129.626 81.5802 131.853 86.3704 133.373L86.9753 131.467ZM85.049 144.728L87.6505 132.63L85.6952 132.21L83.0937 144.307L85.049 144.728ZM85.0714 144.523V144.517H83.0714V144.523H85.0714ZM84.0701 146.074C84.5729 145.783 84.9178 145.295 85.0451 144.75L83.0976 144.295C83.0944 144.308 83.0887 144.32 83.0823 144.329C83.0759 144.338 83.0707 144.341 83.0692 144.342L84.0701 146.074ZM77.7114 149.732L84.0683 146.075L83.071 144.341L76.7141 147.998L77.7114 149.732ZM77.7248 149.822C77.7056 149.822 77.6997 149.819 77.7024 149.82C77.7047 149.821 77.7076 149.823 77.7092 149.824C77.7109 149.825 77.7 149.816 77.6933 149.79C77.6867 149.765 77.6909 149.749 77.6918 149.746C77.692 149.746 77.6919 149.746 77.6917 149.747C77.6914 149.747 77.6912 149.747 77.6915 149.747C77.6917 149.747 77.693 149.745 77.6961 149.743C77.6991 149.74 77.7049 149.736 77.7142 149.73L76.7113 148C74.936 149.029 75.6078 151.822 77.7248 151.822V149.822ZM95.6731 149.822H77.7248V151.822H95.6731V149.822ZM95.7072 149.793C95.7025 149.805 95.6957 149.812 95.6895 149.817C95.6835 149.821 95.6785 149.822 95.6731 149.822V151.822C96.524 151.822 97.2726 151.293 97.5735 150.512L95.7072 149.793ZM101.006 134.283L95.694 149.829L97.5866 150.476L102.898 134.93L101.006 134.283ZM115.834 131.877C111.388 133.02 106.73 133.619 101.955 133.606L101.95 135.606C106.895 135.619 111.722 134.999 116.332 133.814L115.834 131.877ZM115.137 133.169L121.05 150.476L122.943 149.829L117.029 132.522L115.137 133.169ZM121.063 150.512C121.364 151.293 122.113 151.822 122.964 151.822V149.822C122.958 149.822 122.953 149.821 122.947 149.817C122.941 149.812 122.934 149.805 122.93 149.793L121.063 150.512ZM122.964 151.822H140.912V149.822H122.964V151.822ZM140.912 151.822C143.029 151.822 143.701 149.029 141.926 148L140.923 149.73C140.932 149.736 140.938 149.74 140.941 149.743C140.944 149.745 140.945 149.747 140.945 149.747C140.946 149.747 140.945 149.747 140.945 149.747C140.945 149.746 140.945 149.746 140.945 149.746C140.946 149.749 140.95 149.765 140.943 149.79C140.937 149.816 140.926 149.825 140.928 149.824C140.929 149.823 140.932 149.821 140.934 149.82C140.937 149.819 140.931 149.822 140.912 149.822V151.822ZM141.923 147.998L135.566 144.341L134.568 146.075L140.925 149.732L141.923 147.998ZM135.568 144.342C135.566 144.341 135.561 144.338 135.555 144.329C135.548 144.32 135.542 144.308 135.539 144.295L133.592 144.75C133.719 145.295 134.064 145.783 134.567 146.074L135.568 144.342ZM135.565 144.523V144.517H133.565V144.523H135.565ZM135.543 144.307L131.716 126.509L129.76 126.929L133.588 144.728L135.543 144.307ZM154.315 90.0775C152.095 105.475 142.924 118.22 130.222 125.862L131.253 127.576C144.432 119.647 153.982 106.397 156.295 90.363L154.315 90.0775ZM123.958 36.0858C144.697 45.7213 157.594 67.3273 154.315 90.0777L156.295 90.3629C159.71 66.6629 146.269 44.2463 124.801 34.272L123.958 36.0858ZM103.723 31.1546C110.725 31.5407 117.629 33.1411 123.958 36.0856L124.801 34.2722C118.22 31.2103 111.064 29.5564 103.833 29.1576L103.723 31.1546ZM74.1232 54.035C73.0927 50.0722 72.1829 46.5608 71.9456 43.5062C71.7097 40.4697 72.1539 38.0515 73.6715 36.1709C75.2023 34.2738 77.9732 32.7389 82.8104 31.824C87.6398 30.9105 94.3961 30.6402 103.723 31.1546L103.833 29.1576C94.4419 28.6397 87.5001 28.9015 82.4387 29.8589C77.3849 30.8147 74.0722 32.4894 72.115 34.9149C70.1445 37.3569 69.6962 40.3744 69.9516 43.6611C70.2056 46.9296 71.1709 50.6288 72.1876 54.5384L74.1232 54.035ZM76.9191 78.6536C78.2098 69.7031 75.9885 61.2077 74.1232 54.035L72.1876 54.5384C74.0661 61.762 76.1642 69.876 74.9396 78.3682L76.9191 78.6536ZM75.29 88.9529C75.8389 85.6359 76.4087 82.1921 76.9191 78.6537L74.9396 78.3682C74.4326 81.8829 73.8662 85.3065 73.3169 88.6264L75.29 88.9529Z" fill="black" mask="url(#path-18-inside-1_795_12636)"/>
<path d="M119 77.4319C121 71.4319 126.5 72.9319 127.5 73.9319" stroke="black" stroke-linecap="round"/>
<ellipse cx="99.9673" cy="86.4121" rx="6.96733" ry="6.98045" fill="white"/>
<ellipse cx="99.6771" cy="88.1571" rx="0.870917" ry="1.16341" fill="black"/>
<path d="M109.935 92V96.0988C109.935 97.791 111.306 99.1628 112.999 99.1628V99.1628C114.691 99.1628 116.063 97.791 116.063 96.0988V92" stroke="black" stroke-linecap="round"/>
<ellipse cx="126.03" cy="86.4121" rx="6.96733" ry="6.98045" fill="white"/>
<ellipse cx="125.74" cy="88.1571" rx="0.870917" ry="1.16341" fill="black"/>
<path d="M102.844 104.834C102.569 104.817 102.333 105.027 102.317 105.302C102.302 105.578 102.513 105.815 102.789 105.832L102.844 104.834ZM116.424 104.62C116.691 104.549 116.848 104.275 116.775 104.008C116.702 103.742 116.427 103.583 116.16 103.655L116.424 104.62ZM102.789 105.832C105.26 105.984 111.439 105.957 116.424 104.62L116.16 103.655C111.323 104.952 105.264 104.983 102.844 104.834L102.789 105.832Z" fill="black"/>
<path d="M119.555 102.678C119.302 102.787 119.188 103.081 119.299 103.335C119.41 103.588 119.705 103.705 119.958 103.596L119.555 102.678ZM122.956 102.042C123.177 101.878 123.222 101.565 123.056 101.343C122.89 101.121 122.577 101.074 122.356 101.238L122.956 102.042ZM119.958 103.596C120.318 103.44 120.895 103.178 121.462 102.896C122.019 102.618 122.604 102.303 122.956 102.042L122.356 101.238C122.083 101.441 121.571 101.722 121.011 102C120.462 102.274 119.901 102.528 119.555 102.678L119.958 103.596Z" fill="black"/>
<path d="M104.696 102.395L104.687 101.895L104.679 101.896L104.671 101.896L104.696 102.395ZM104.671 101.896C103.486 101.948 102.578 102.571 102.205 103.491C101.833 104.41 102.038 105.517 102.845 106.458C104.443 108.321 108.367 109.567 115.43 108.216L115.235 107.234C108.255 108.569 104.829 107.24 103.604 105.811C102.999 105.106 102.924 104.388 103.133 103.871C103.342 103.356 103.875 102.932 104.722 102.894L104.671 101.896ZM115.43 108.216C122.491 106.864 125.689 104.45 126.672 102.18C127.651 99.9182 126.343 97.7467 124.513 97.7353L124.513 98.7347C125.413 98.7403 126.536 99.9703 125.753 101.778C124.974 103.576 122.216 105.898 115.235 107.234L115.43 108.216ZM124.513 97.7353C123.705 97.7302 123.003 98.0254 122.227 98.4013C121.436 98.7839 120.529 99.2716 119.219 99.7709C116.613 100.764 112.402 101.802 104.687 101.895L104.706 102.895C112.508 102.8 116.84 101.749 119.581 100.705C120.944 100.186 121.911 99.6676 122.668 99.3012C123.438 98.9282 123.957 98.7312 124.513 98.7347L124.513 97.7353Z" fill="black"/>
<path d="M97 77.8914C101 75.3914 102.5 78.8914 104 79.3914C105.5 79.8914 106.5 79.3914 107 79.8914" stroke="black" stroke-linecap="round"/>
<defs>
<linearGradient id="paint0_linear_795_12636" x1="75.0708" y1="27" x2="178.298" y2="111.374" gradientUnits="userSpaceOnUse">
<stop offset="0.432292" stop-color="#5787AB"/>
<stop offset="1" stop-color="#81AFD2"/>
</linearGradient>
</defs>
</svg>
