<svg width="222" height="151" viewBox="0 0 222 151" fill="none" xmlns="http://www.w3.org/2000/svg">
<path d="M42.1167 32.6381L26.677 6.58366C25.5512 5.05577 22.4311 2 18.9571 2C14.6147 2 10.3929 4.77432 10.3929 11.2879C10.3929 16.4988 10.3929 20.0532 10.3929 21.179C10.6744 23.3904 12.7813 27.8132 18.9571 27.8132C25.133 27.8132 39.3826 27.8132 45.7354 27.8132" stroke="#B2C5CF" stroke-linecap="round"/>
<path d="M10.5136 10.2021L4 19.3695H10.5136" stroke="#B2C5CF" stroke-linecap="round"/>
<path d="M20.4047 27.813V32.9998" stroke="#B2C5CF" stroke-linecap="round"/>
<path d="M27.642 27.813V32.9998" stroke="#B2C5CF" stroke-linecap="round"/>
<path d="M134.38 0.669755L85.7429 12.8938C77.9924 14.8385 71.8648 20.8015 69.6629 28.533L55.8657 77.0293C53.6638 84.7608 55.731 93.0818 61.2862 98.8618L96.1262 135.134C101.675 140.914 109.87 143.279 117.62 141.327L166.257 129.103C174.008 127.159 180.135 121.196 182.337 113.464L196.134 64.9679C198.336 57.2364 196.269 48.9154 190.714 43.1354L155.881 6.86308C150.325 1.0831 142.13 -1.27498 134.38 0.669755Z" fill="#EEF4F9"/>
<path d="M180.423 150H203.889C208.667 150 212.778 146.619 213.701 141.931L216.652 126.931C217.868 120.751 213.138 115 206.841 115H177.856C171.66 115 166.955 120.578 168 126.687L170.566 141.687C171.388 146.489 175.551 150 180.423 150Z" stroke="#B2C5CF"/>
<path d="M168.995 126.907H207.931" stroke="#B2C5CF" stroke-linecap="round"/>
<path d="M185.169 91.2651V115.226" stroke="#B2C5CF" stroke-linecap="round"/>
<path d="M178.28 115.226V98.1538C178.28 94.3493 181.364 91.2651 185.168 91.2651V91.2651C188.973 91.2651 192.057 94.3493 192.057 98.1538V115.226" stroke="#B2C5CF" stroke-linecap="round"/>
<path d="M180.676 115.226C180.277 108.836 180.257 95.1586 183.371 91.5645" stroke="#B2C5CF" stroke-linecap="round"/>
<path d="M178.28 97.5546L176.782 96.9556" stroke="#B2C5CF" stroke-linecap="round"/>
<path d="M191.159 94.15L192.277 92.9878" stroke="#B2C5CF" stroke-linecap="round"/>
<path d="M185.087 91.3799L185.132 89.7676" stroke="#B2C5CF" stroke-linecap="round"/>
<path d="M178.28 102.347H176.782" stroke="#B2C5CF" stroke-linecap="round"/>
<path d="M193.854 101.149H192.357" stroke="#B2C5CF" stroke-linecap="round"/>
<path d="M193.854 107.738H192.357" stroke="#B2C5CF" stroke-linecap="round"/>
<path d="M178.28 107.738H176.782" stroke="#B2C5CF" stroke-linecap="round"/>
<path d="M197.149 71.7969L197.149 115.525" stroke="#B2C5CF" stroke-linecap="round"/>
<path d="M187.565 91.5645V81.3812C187.565 76.0879 191.856 71.7969 197.149 71.7969V71.7969C202.442 71.7969 206.733 76.0879 206.733 81.3812V115.525" stroke="#B2C5CF" stroke-linecap="round"/>
<path d="M190.56 92.7626C190.812 81.7536 190.56 76.5244 195.352 72.396" stroke="#B2C5CF" stroke-linecap="round"/>
<path d="M188.463 75.9901L186.965 75.3911" stroke="#B2C5CF" stroke-linecap="round"/>
<path d="M203.738 74.3824L204.856 73.2202" stroke="#B2C5CF" stroke-linecap="round"/>
<path d="M197.067 71.6123L197.112 70" stroke="#B2C5CF" stroke-linecap="round"/>
<path d="M187.265 83.1782H185.767" stroke="#B2C5CF" stroke-linecap="round"/>
<path d="M208.23 81.9805H206.733" stroke="#B2C5CF" stroke-linecap="round"/>
<path d="M208.23 91.5645H206.733" stroke="#B2C5CF" stroke-linecap="round"/>
<path d="M208.23 102.347H206.733" stroke="#B2C5CF" stroke-linecap="round"/>
<path d="M55.6341 48V77H64V20H55.6341V33.5H15V40H55.6341" stroke="#B2C5CF"/>
<line x1="18.5" y1="150.5" x2="57.5" y2="150.5" stroke="#B2C5CF" stroke-linecap="round"/>
<line x1="162.5" y1="150.5" x2="221.5" y2="150.5" stroke="#B2C5CF" stroke-linecap="round"/>
<line x1="0.5" y1="150.5" x2="11.5" y2="150.5" stroke="#B2C5CF" stroke-linecap="round"/>
<path d="M99.269 131.7C68.9638 127.227 77.0742 104.624 81.2173 75.8794C85.2517 47.914 54.0931 24.1708 109.438 27.2735C116.172 27.6502 122.829 29.1047 129.016 31.7887C151.128 41.3791 165.083 63.9398 161.648 87.7457C157.505 116.491 129.574 136.174 99.269 131.7Z" fill="url(#paint0_linear_795_12621)"/>
<mask id="path-33-inside-1_795_12621" fill="white">
<path fill-rule="evenodd" clip-rule="evenodd" d="M75.3035 88.7896C71.792 110.011 69.0613 126.515 87.6728 132.42L85.0714 144.517V144.523C85.0041 144.81 84.8231 145.061 84.5696 145.208L78.2127 148.865C77.292 149.399 77.6645 150.822 78.7248 150.822H96.6731C97.1024 150.822 97.4852 150.555 97.6403 150.152L102.952 134.606C107.813 134.619 112.555 134.009 117.083 132.846L122.996 150.152C123.152 150.555 123.534 150.822 123.964 150.822H141.912C142.972 150.822 143.345 149.399 142.424 148.865L136.067 145.208C135.814 145.061 135.633 144.81 135.565 144.523V144.517L131.738 126.719C144.678 118.934 154.039 105.936 156.305 90.2203C159.652 66.9951 146.483 44.9838 125.379 35.1789C118.924 32.1757 111.895 30.5485 104.778 30.1561C67.3433 28.0916 70.061 38.5419 74.1554 54.2867C76.0273 61.4848 78.187 69.7896 76.9293 78.5109C76.4207 82.0375 75.8525 85.4712 75.3035 88.7896Z"/>
</mask>
<path d="M87.6728 132.42L88.6505 132.63L88.8416 131.742L87.9753 131.467L87.6728 132.42ZM75.3035 88.7896L74.3169 88.6264L75.3035 88.7896ZM85.0714 144.517L84.0937 144.307L84.0714 144.411V144.517H85.0714ZM85.0714 144.523L86.0451 144.75L86.0714 144.638V144.523H85.0714ZM84.5696 145.208L85.0683 146.075L85.0701 146.074L84.5696 145.208ZM78.2127 148.865L77.7141 147.998L77.7113 148L78.2127 148.865ZM97.6403 150.152L98.5735 150.512L98.5804 150.494L98.5866 150.476L97.6403 150.152ZM102.952 134.606L102.955 133.606L102.238 133.604L102.006 134.283L102.952 134.606ZM117.083 132.846L118.029 132.522L117.73 131.647L116.834 131.877L117.083 132.846ZM122.996 150.152L122.05 150.476L122.056 150.494L122.063 150.512L122.996 150.152ZM142.424 148.865L142.926 148L142.923 147.998L142.424 148.865ZM136.067 145.208L135.567 146.074L135.568 146.075L136.067 145.208ZM135.565 144.523H134.565V144.638L134.592 144.75L135.565 144.523ZM135.565 144.517H136.565V144.411L136.543 144.307L135.565 144.517ZM131.738 126.719L131.222 125.862L130.61 126.23L130.76 126.929L131.738 126.719ZM156.305 90.2203L157.295 90.363L157.295 90.3629L156.305 90.2203ZM125.379 35.1789L124.958 36.0856L124.958 36.0858L125.379 35.1789ZM104.778 30.1561L104.723 31.1546L104.723 31.1546L104.778 30.1561ZM74.1554 54.2867L73.1876 54.5384L74.1554 54.2867ZM76.9293 78.5109L77.9191 78.6537L77.9191 78.6536L76.9293 78.5109ZM87.9753 131.467C83.4597 130.034 80.3157 127.985 78.156 125.448C75.9962 122.911 74.7605 119.815 74.1794 116.19C73.0062 108.87 74.5244 99.6235 76.29 88.9529L74.3169 88.6264C72.5711 99.1772 70.9682 108.793 72.2046 116.507C72.8284 120.399 74.1802 123.863 76.6331 126.744C79.0862 129.626 82.5802 131.853 87.3704 133.373L87.9753 131.467ZM86.049 144.728L88.6505 132.63L86.6952 132.21L84.0937 144.307L86.049 144.728ZM86.0714 144.523V144.517H84.0714V144.523H86.0714ZM85.0701 146.074C85.5729 145.783 85.9178 145.295 86.0451 144.75L84.0976 144.295C84.0944 144.308 84.0887 144.32 84.0823 144.329C84.0759 144.338 84.0707 144.341 84.0692 144.342L85.0701 146.074ZM78.7114 149.732L85.0683 146.075L84.071 144.341L77.7141 147.998L78.7114 149.732ZM78.7248 149.822C78.7056 149.822 78.6997 149.819 78.7024 149.82C78.7047 149.821 78.7076 149.823 78.7092 149.824C78.7109 149.825 78.7 149.816 78.6933 149.79C78.6867 149.765 78.6909 149.749 78.6918 149.746C78.692 149.746 78.6919 149.746 78.6917 149.747C78.6914 149.747 78.6912 149.747 78.6915 149.747C78.6917 149.747 78.693 149.745 78.6961 149.743C78.6991 149.74 78.7049 149.736 78.7142 149.73L77.7113 148C75.936 149.029 76.6078 151.822 78.7248 151.822V149.822ZM96.6731 149.822H78.7248V151.822H96.6731V149.822ZM96.7072 149.793C96.7025 149.805 96.6957 149.812 96.6895 149.817C96.6835 149.821 96.6785 149.822 96.6731 149.822V151.822C97.524 151.822 98.2726 151.293 98.5735 150.512L96.7072 149.793ZM102.006 134.283L96.694 149.829L98.5866 150.476L103.898 134.93L102.006 134.283ZM116.834 131.877C112.388 133.02 107.73 133.619 102.955 133.606L102.95 135.606C107.895 135.619 112.722 134.999 117.332 133.814L116.834 131.877ZM116.137 133.169L122.05 150.476L123.943 149.829L118.029 132.522L116.137 133.169ZM122.063 150.512C122.364 151.293 123.113 151.822 123.964 151.822V149.822C123.958 149.822 123.953 149.821 123.947 149.817C123.941 149.812 123.934 149.805 123.93 149.793L122.063 150.512ZM123.964 151.822H141.912V149.822H123.964V151.822ZM141.912 151.822C144.029 151.822 144.701 149.029 142.926 148L141.923 149.73C141.932 149.736 141.938 149.74 141.941 149.743C141.944 149.745 141.945 149.747 141.945 149.747C141.946 149.747 141.945 149.747 141.945 149.747C141.945 149.746 141.945 149.746 141.945 149.746C141.946 149.749 141.95 149.765 141.943 149.79C141.937 149.816 141.926 149.825 141.928 149.824C141.929 149.823 141.932 149.821 141.934 149.82C141.937 149.819 141.931 149.822 141.912 149.822V151.822ZM142.923 147.998L136.566 144.341L135.568 146.075L141.925 149.732L142.923 147.998ZM136.568 144.342C136.566 144.341 136.561 144.338 136.555 144.329C136.548 144.32 136.542 144.308 136.539 144.295L134.592 144.75C134.719 145.295 135.064 145.783 135.567 146.074L136.568 144.342ZM136.565 144.523V144.517H134.565V144.523H136.565ZM136.543 144.307L132.716 126.509L130.76 126.929L134.588 144.728L136.543 144.307ZM155.315 90.0775C153.095 105.475 143.924 118.22 131.222 125.862L132.253 127.576C145.432 119.647 154.982 106.397 157.295 90.363L155.315 90.0775ZM124.958 36.0858C145.697 45.7213 158.594 67.3273 155.315 90.0777L157.295 90.3629C160.71 66.6629 147.269 44.2463 125.801 34.272L124.958 36.0858ZM104.723 31.1546C111.725 31.5407 118.629 33.1411 124.958 36.0856L125.801 34.2722C119.22 31.2103 112.064 29.5564 104.833 29.1576L104.723 31.1546ZM75.1232 54.035C74.0927 50.0722 73.1829 46.5608 72.9456 43.5062C72.7097 40.4697 73.1539 38.0515 74.6715 36.1709C76.2023 34.2738 78.9732 32.7389 83.8104 31.824C88.6398 30.9105 95.3961 30.6402 104.723 31.1546L104.833 29.1576C95.4419 28.6397 88.5001 28.9015 83.4387 29.8589C78.3849 30.8147 75.0722 32.4894 73.115 34.9149C71.1445 37.3569 70.6962 40.3744 70.9516 43.6611C71.2056 46.9296 72.1709 50.6288 73.1876 54.5384L75.1232 54.035ZM77.9191 78.6536C79.2098 69.7031 76.9885 61.2077 75.1232 54.035L73.1876 54.5384C75.0661 61.762 77.1642 69.876 75.9396 78.3682L77.9191 78.6536ZM76.29 88.9529C76.8389 85.6359 77.4087 82.1921 77.9191 78.6537L75.9396 78.3682C75.4326 81.8829 74.8662 85.3065 74.3169 88.6264L76.29 88.9529Z" fill="black" mask="url(#path-33-inside-1_795_12621)"/>
<ellipse cx="100.117" cy="90.0532" rx="7.11724" ry="6.9961" fill="white"/>
<ellipse cx="99.8207" cy="91.8022" rx="0.889655" ry="1.16602" fill="black"/>
<ellipse cx="126.807" cy="88.3042" rx="7.11724" ry="6.9961" fill="white"/>
<ellipse cx="126.51" cy="90.0532" rx="0.889655" ry="1.16602" fill="black"/>
<path d="M103.083 78.102C99.2276 73.4379 93.2966 81.6 93 82.4745" stroke="black" stroke-linecap="round"/>
<path d="M124.434 76.3528C128.883 72.5632 135.11 77.5188 136 81.5999" stroke="black" stroke-linecap="round"/>
<path d="M117.74 93.2505C117.74 92.9743 117.516 92.7505 117.24 92.7505C116.964 92.7505 116.74 92.9743 116.74 93.2505H117.74ZM110.551 93.2505V97.2535H111.551V93.2505H110.551ZM117.74 97.2535V93.2505H116.74V97.2535H117.74ZM114.145 100.848C116.131 100.848 117.74 99.2387 117.74 97.2535H116.74C116.74 98.6864 115.578 99.848 114.145 99.848V100.848ZM110.551 97.2535C110.551 99.2387 112.16 100.848 114.145 100.848V99.848C112.713 99.848 111.551 98.6864 111.551 97.2535H110.551Z" fill="black"/>
<path d="M114.066 109.943C98.4011 110.61 98.9923 102.16 103.426 102.604C120.273 104.828 122.637 100.825 125.593 101.27C128.548 101.715 129.731 109.276 114.066 109.943Z" fill="black"/>
<path d="M119.071 109.411C116.698 107.371 111.141 107.498 108.472 109.727C111.309 110.234 116.982 109.981 119.071 109.411Z" fill="white"/>
<defs>
<linearGradient id="paint0_linear_795_12621" x1="76.0708" y1="27" x2="179.298" y2="111.374" gradientUnits="userSpaceOnUse">
<stop offset="0.432292" stop-color="#F6A05C"/>
<stop offset="1" stop-color="#C6702C"/>
</linearGradient>
</defs>
</svg>
