<svg width="222" height="157" viewBox="0 0 222 157" fill="none" xmlns="http://www.w3.org/2000/svg">
<path d="M40.4228 96.6665C30.2312 85.3875 34.2771 67.4177 48.319 61.5949L120.779 31.5476C131.011 27.3044 142.803 31.331 148.303 40.9464L177.68 92.306C183.713 102.853 180.053 116.293 169.506 122.326L115.065 153.466C106.09 158.6 94.7504 156.791 87.8183 149.119L40.4228 96.6665Z" fill="#EEF4F9"/>
<path d="M37.9071 21H17.9602L3 50.4972C19.4779 58.6522 43.6165 53.8951 52 50.4972L37.9071 21Z" stroke="#B2C5CF"/>
<path d="M26 55L26 137" stroke="#B2C5CF"/>
<rect x="15.5" y="137.5" width="22" height="7" stroke="#B2C5CF"/>
<rect x="11.5" y="144.5" width="30" height="6" stroke="#B2C5CF"/>
<path d="M176.522 123.56H191.423H198.139C204.855 123.56 205.484 114.116 202.966 111.387C207.793 111.387 209.262 101.733 200.657 101.733C195.41 76.3393 165.819 88.0919 169.806 104.672C162.461 108.029 162.671 123.56 176.522 123.56Z" stroke="#B2C5CF"/>
<path d="M185.547 123.56V137.621" stroke="#B2C5CF"/>
<path d="M177.991 137.621H185.981H193.102L189.454 150.213H182.16L177.991 137.621Z" stroke="#B2C5CF" stroke-linejoin="round"/>
<circle cx="180.09" cy="104.042" r="0.839474" fill="#B2C5CF"/>
<circle cx="189.744" cy="101.104" r="0.839474" fill="#B2C5CF"/>
<circle cx="198.139" cy="107.819" r="0.839474" fill="#B2C5CF"/>
<circle cx="188.904" cy="111.597" r="0.839474" fill="#B2C5CF"/>
<circle cx="175.473" cy="114.955" r="0.839474" fill="#B2C5CF"/>
<circle cx="193.522" cy="118.313" r="0.839474" fill="#B2C5CF"/>
<circle cx="200.237" cy="116.214" r="0.839474" fill="#B2C5CF"/>
<circle cx="183.868" cy="118.733" r="0.839474" fill="#B2C5CF"/>
<line x1="146.5" y1="150.5" x2="219.5" y2="150.5" stroke="#B2C5CF" stroke-linecap="round"/>
<line x1="46.5" y1="150.5" x2="55.5" y2="150.5" stroke="#B2C5CF" stroke-linecap="round"/>
<path d="M57.7546 106.277C57.7546 120.416 69.2375 131.883 83.4033 131.883H132.133C152.306 131.883 162.129 121.25 161.367 102.692V43.8035C161.367 36.7339 155.626 31 148.543 31H107.251C79.9167 31 57.7546 53.127 57.7546 80.4191V106.282V106.277Z" fill="url(#paint0_linear_795_12579)"/>
<mask id="path-20-inside-1_795_12579" fill="white">
<path fill-rule="evenodd" clip-rule="evenodd" d="M61.5703 108.906C61.5703 123.072 72.8726 134.605 86.9535 134.983L84.7612 145.057V145.063C84.6934 145.35 84.5107 145.6 84.2549 145.746L77.8402 149.393C76.9111 149.925 77.2869 151.344 78.3569 151.344H96.4686C96.9018 151.344 97.2881 151.078 97.4446 150.677L102.868 134.993H128.048L133.471 150.677C133.627 151.078 134.014 151.344 134.447 151.344H152.558C153.628 151.344 154.004 149.925 153.075 149.393L146.66 145.746C146.405 145.6 146.222 145.35 146.154 145.063V145.057L143.858 134.507C155.859 132.159 164.917 121.588 164.917 108.906V47.3408C164.917 40.1356 159.076 34.2974 151.868 34.2974H111.939C84.1186 34.2974 61.5703 56.8417 61.5703 84.6452V108.906Z"/>
</mask>
<path d="M86.9535 134.983L87.9306 135.196L88.1874 134.016L86.9804 133.984L86.9535 134.983ZM84.7612 145.057L83.7841 144.845L83.7612 144.95V145.057H84.7612ZM84.7612 145.063L85.7344 145.293L85.7612 145.179V145.063H84.7612ZM84.2549 145.746L84.7492 146.615L84.7509 146.614L84.2549 145.746ZM77.8402 149.393L77.3459 148.524L77.3431 148.525L77.8402 149.393ZM97.4446 150.677L98.3764 151.04L98.3834 151.022L98.3897 151.003L97.4446 150.677ZM102.868 134.993V133.993H102.155L101.922 134.666L102.868 134.993ZM128.048 134.993L128.993 134.666L128.76 133.993H128.048V134.993ZM133.471 150.677L132.526 151.003L132.532 151.022L132.539 151.04L133.471 150.677ZM153.075 149.393L153.572 148.525L153.569 148.524L153.075 149.393ZM146.66 145.746L146.164 146.614L146.166 146.615L146.66 145.746ZM146.154 145.063H145.154V145.179L145.181 145.293L146.154 145.063ZM146.154 145.057H147.154V144.95L147.131 144.845L146.154 145.057ZM143.858 134.507L143.666 133.526L142.664 133.722L142.881 134.72L143.858 134.507ZM86.9804 133.984C73.4392 133.62 62.5703 122.529 62.5703 108.906H60.5703C60.5703 123.616 72.3059 135.59 86.9266 135.983L86.9804 133.984ZM85.7384 145.27L87.9306 135.196L85.9764 134.771L83.7841 144.845L85.7384 145.27ZM85.7612 145.063V145.057H83.7612V145.063H85.7612ZM84.7509 146.614C85.2553 146.326 85.6049 145.84 85.7344 145.293L83.7881 144.833C83.7853 144.844 83.7802 144.855 83.7738 144.864C83.7676 144.872 83.762 144.876 83.7589 144.878L84.7509 146.614ZM78.3344 150.262L84.7492 146.615L83.7607 144.877L77.3459 148.524L78.3344 150.262ZM78.3569 150.344C78.3454 150.344 78.3379 150.343 78.3337 150.343C78.3296 150.342 78.3277 150.341 78.3276 150.341C78.3274 150.341 78.328 150.341 78.329 150.342C78.3299 150.343 78.3305 150.343 78.3308 150.343C78.3316 150.344 78.3216 150.335 78.3155 150.312C78.3095 150.29 78.3137 150.276 78.3137 150.277C78.3136 150.277 78.3134 150.277 78.313 150.278C78.3125 150.279 78.3123 150.279 78.3125 150.279C78.3127 150.278 78.3142 150.277 78.3176 150.274C78.321 150.271 78.3272 150.267 78.3372 150.261L77.3431 148.525C75.5302 149.564 76.2557 152.344 78.3569 152.344V150.344ZM96.4686 150.344H78.3569V152.344H96.4686V150.344ZM96.5129 150.313C96.5052 150.333 96.4874 150.344 96.4686 150.344V152.344C97.3162 152.344 98.0709 151.823 98.3764 151.04L96.5129 150.313ZM101.922 134.666L96.4995 150.35L98.3897 151.003L103.813 135.32L101.922 134.666ZM128.048 133.993H102.868V135.993H128.048V133.993ZM127.103 135.32L132.526 151.003L134.416 150.35L128.993 134.666L127.103 135.32ZM132.539 151.04C132.844 151.823 133.599 152.344 134.447 152.344V150.344C134.428 150.344 134.41 150.333 134.402 150.313L132.539 151.04ZM134.447 152.344H152.558V150.344H134.447V152.344ZM152.558 152.344C154.66 152.344 155.385 149.564 153.572 148.525L152.578 150.261C152.588 150.267 152.594 150.271 152.598 150.274C152.601 150.277 152.603 150.278 152.603 150.279C152.603 150.279 152.603 150.279 152.602 150.278C152.602 150.277 152.602 150.277 152.602 150.277C152.602 150.276 152.606 150.29 152.6 150.312C152.594 150.335 152.584 150.344 152.585 150.343C152.585 150.343 152.585 150.343 152.586 150.342C152.587 150.341 152.588 150.341 152.588 150.341C152.588 150.341 152.586 150.342 152.582 150.343C152.577 150.343 152.57 150.344 152.558 150.344V152.344ZM153.569 148.524L147.155 144.877L146.166 146.615L152.581 150.262L153.569 148.524ZM147.156 144.878C147.153 144.876 147.148 144.872 147.142 144.864C147.135 144.855 147.13 144.844 147.127 144.833L145.181 145.293C145.31 145.84 145.66 146.326 146.164 146.614L147.156 144.878ZM147.154 145.063V145.057H145.154V145.063H147.154ZM147.131 144.845L144.835 134.294L142.881 134.72L145.177 145.27L147.131 144.845ZM163.917 108.906C163.917 121.1 155.207 131.268 143.666 133.526L144.05 135.488C156.511 133.051 165.917 122.076 165.917 108.906H163.917ZM163.917 47.3408V108.906H165.917V47.3408H163.917ZM151.868 35.2974C158.524 35.2974 163.917 40.6883 163.917 47.3408H165.917C165.917 39.583 159.628 33.2974 151.868 33.2974V35.2974ZM111.939 35.2974H151.868V33.2974H111.939V35.2974ZM62.5703 84.6452C62.5703 57.3943 84.6706 35.2974 111.939 35.2974V33.2974C83.5666 33.2974 60.5703 56.2891 60.5703 84.6452H62.5703ZM62.5703 108.906V84.6452H60.5703V108.906H62.5703Z" fill="black" mask="url(#path-20-inside-1_795_12579)"/>
<path d="M96.5081 94.654C99.524 90.3079 104.953 92.4809 105.556 94.0331" stroke="black" stroke-linecap="round" stroke-linejoin="round"/>
<path d="M95 87.514C98.016 84.3503 103.445 85.9321 104.048 87.062" stroke="black" stroke-linecap="round" stroke-linejoin="round"/>
<ellipse cx="123.233" cy="92.2001" rx="6.85951" ry="7.06047" fill="white"/>
<ellipse cx="122.948" cy="93.9653" rx="0.857439" ry="1.17674" fill="black"/>
<path d="M119.853 80.3652C124.14 76.5408 130.143 81.542 131 85.6606" stroke="black" stroke-linecap="round"/>
<path d="M114.886 99.4653C114.886 99.1892 114.662 98.9653 114.386 98.9653C114.11 98.9653 113.886 99.1892 113.886 99.4653H114.886ZM107.921 99.4653V103.646H108.921V99.4653H107.921ZM114.886 103.646V99.4653H113.886V103.646H114.886ZM111.403 107.128C113.327 107.128 114.886 105.569 114.886 103.646H113.886C113.886 105.017 112.774 106.128 111.403 106.128V107.128ZM107.921 103.646C107.921 105.569 109.48 107.128 111.403 107.128V106.128C110.032 106.128 108.921 105.017 108.921 103.646H107.921Z" fill="black"/>
<path d="M95 108.674C95.2485 109.783 96.69 112 100.468 112C104.245 112 118.114 112 124.575 112C126.149 112 129.298 111.335 129.298 108.674" stroke="black" stroke-linecap="round"/>
<defs>
<linearGradient id="paint0_linear_795_12579" x1="57.7546" y1="31" x2="158.601" y2="134.616" gradientUnits="userSpaceOnUse">
<stop offset="0.432292" stop-color="#FE9889"/>
<stop offset="1" stop-color="#F56C60"/>
</linearGradient>
</defs>
</svg>
