<svg width="222" height="157" viewBox="0 0 222 157" fill="none" xmlns="http://www.w3.org/2000/svg">
<path d="M40.4228 96.6665C30.2312 85.3875 34.2771 67.4177 48.319 61.5949L120.779 31.5476C131.011 27.3044 142.803 31.331 148.303 40.9464L177.68 92.306C183.713 102.853 180.053 116.293 169.506 122.326L115.065 153.466C106.09 158.6 94.7504 156.791 87.8183 149.119L40.4228 96.6665Z" fill="#EEF4F9"/>
<path d="M37.9071 21H17.9602L3 50.4972C19.4779 58.6522 43.6165 53.8951 52 50.4972L37.9071 21Z" stroke="#B2C5CF"/>
<path d="M26 55L26 137" stroke="#B2C5CF"/>
<rect x="15.5" y="137.5" width="22" height="7" stroke="#B2C5CF"/>
<rect x="11.5" y="144.5" width="30" height="6" stroke="#B2C5CF"/>
<path d="M176.522 123.56H191.423H198.139C204.855 123.56 205.484 114.116 202.966 111.387C207.793 111.387 209.262 101.733 200.657 101.733C195.41 76.3393 165.819 88.0919 169.806 104.672C162.461 108.029 162.671 123.56 176.522 123.56Z" stroke="#B2C5CF"/>
<path d="M185.547 123.56V137.621" stroke="#B2C5CF"/>
<path d="M177.991 137.621H185.981H193.102L189.454 150.213H182.16L177.991 137.621Z" stroke="#B2C5CF" stroke-linejoin="round"/>
<circle cx="180.09" cy="104.042" r="0.839474" fill="#B2C5CF"/>
<circle cx="189.744" cy="101.104" r="0.839474" fill="#B2C5CF"/>
<circle cx="198.139" cy="107.819" r="0.839474" fill="#B2C5CF"/>
<circle cx="188.905" cy="111.597" r="0.839474" fill="#B2C5CF"/>
<circle cx="175.473" cy="114.955" r="0.839474" fill="#B2C5CF"/>
<circle cx="193.522" cy="118.313" r="0.839474" fill="#B2C5CF"/>
<circle cx="200.237" cy="116.214" r="0.839474" fill="#B2C5CF"/>
<circle cx="183.868" cy="118.733" r="0.839474" fill="#B2C5CF"/>
<line x1="146.5" y1="150.5" x2="219.5" y2="150.5" stroke="#B2C5CF" stroke-linecap="round"/>
<line x1="46.5" y1="150.5" x2="55.5" y2="150.5" stroke="#B2C5CF" stroke-linecap="round"/>
<path fill-rule="evenodd" clip-rule="evenodd" d="M107.908 132.279C107.908 132.279 107.908 132.279 107.913 132.279C108.398 132.316 108.894 132.331 109.389 132.331H152.016C163.397 132.331 172.662 122.815 171.828 111.529C171.369 105.305 168.027 100.84 163.09 97.2266C159.899 94.8956 158.137 91.0746 158.413 87.1499C158.497 85.9558 158.538 84.7514 158.538 83.5366C158.538 55.0042 134.806 29 105.526 29C76.2509 29 52.5182 52.1333 52.5182 80.6657C52.5182 109.198 76.2509 132.331 105.526 132.331C106.323 132.331 107.116 132.316 107.903 132.279H107.908Z" fill="url(#paint0_linear_795_12624)"/>
<mask id="path-20-inside-1_795_12624" fill="white">
<path fill-rule="evenodd" clip-rule="evenodd" d="M105.182 134.854C105.666 134.891 106.157 134.906 106.652 134.906H118.348L123.822 150.678C123.979 151.078 124.364 151.342 124.797 151.342H142.889C143.957 151.342 144.333 149.93 143.405 149.401L136.997 145.772C136.742 145.627 136.559 145.377 136.491 145.092V145.087L134.267 134.906H147.423C158.695 134.906 168.496 125.733 168.726 114.509C168.872 107.459 165.499 101.182 160.233 97.3043C156.912 94.8591 155.572 90.8772 155.838 86.7707C155.905 85.6909 155.942 84.6059 155.942 83.5105C155.942 55.1234 131.902 32.1147 102.815 32.1147C73.7327 32.1147 50.1565 55.1234 50.1565 83.5105C50.1565 103.392 61.7207 120.635 78.6414 129.183L75.1671 145.087V145.092C75.0994 145.377 74.9169 145.627 74.6614 145.772L68.2538 149.401C67.3258 149.93 67.7012 151.342 68.77 151.342H86.8614C87.2941 151.342 87.68 151.078 87.8364 150.678L93.584 134.119C96.581 134.636 99.6655 134.906 102.815 134.906C103.607 134.906 104.394 134.891 105.182 134.854Z"/>
</mask>
<path d="M105.182 134.854L105.256 133.857L105.196 133.853L105.135 133.855L105.182 134.854ZM118.348 134.906L119.292 134.578L119.059 133.906H118.348V134.906ZM123.822 150.678L122.877 151.006L122.884 151.024L122.891 151.042L123.822 150.678ZM143.405 149.401L143.9 148.532L143.897 148.531L143.405 149.401ZM136.997 145.772L136.503 146.641L136.504 146.642L136.997 145.772ZM136.491 145.092H135.491V145.209L135.518 145.323L136.491 145.092ZM136.491 145.087H137.491V144.979L137.468 144.873L136.491 145.087ZM134.267 134.906V133.906H133.025L133.29 135.12L134.267 134.906ZM168.726 114.509L167.726 114.488L167.726 114.488L168.726 114.509ZM160.233 97.3043L160.826 96.4991L160.826 96.499L160.233 97.3043ZM155.838 86.7707L156.836 86.8354L156.836 86.8334L155.838 86.7707ZM78.6414 129.183L79.6184 129.397L79.7837 128.64L79.0923 128.291L78.6414 129.183ZM75.1671 145.087L74.1902 144.873L74.1671 144.979V145.087H75.1671ZM75.1671 145.092L76.1401 145.323L76.1671 145.209V145.092H75.1671ZM74.6614 145.772L75.1542 146.642L75.156 146.641L74.6614 145.772ZM68.2538 149.401L67.761 148.531L67.7582 148.532L68.2538 149.401ZM87.8364 150.678L88.7676 151.042L88.7747 151.024L88.7811 151.006L87.8364 150.678ZM93.584 134.119L93.754 133.134L92.9176 132.989L92.6393 133.791L93.584 134.119ZM106.652 133.906C106.177 133.906 105.713 133.891 105.256 133.857L105.107 135.852C105.62 135.89 106.136 135.906 106.652 135.906V133.906ZM118.348 133.906H106.652V135.906H118.348V133.906ZM117.403 135.234L122.877 151.006L124.767 150.35L119.292 134.578L117.403 135.234ZM122.891 151.042C123.197 151.825 123.952 152.342 124.797 152.342V150.342C124.776 150.342 124.76 150.33 124.753 150.314L122.891 151.042ZM124.797 152.342H142.889V150.342H124.797V152.342ZM142.889 152.342C144.98 152.342 145.722 149.572 143.9 148.532L142.909 150.269C142.919 150.275 142.925 150.28 142.929 150.282C142.932 150.285 142.933 150.287 142.933 150.287C142.933 150.287 142.933 150.286 142.932 150.285C142.932 150.284 142.931 150.283 142.931 150.283C142.93 150.281 142.935 150.292 142.929 150.313C142.923 150.334 142.914 150.342 142.915 150.341C142.916 150.341 142.916 150.34 142.917 150.34C142.918 150.339 142.919 150.339 142.919 150.339C142.918 150.339 142.916 150.34 142.912 150.341C142.908 150.342 142.9 150.342 142.889 150.342V152.342ZM143.897 148.531L137.49 144.902L136.504 146.642L142.912 150.271L143.897 148.531ZM137.492 144.903C137.489 144.901 137.483 144.897 137.477 144.889C137.472 144.881 137.467 144.871 137.464 144.861L135.518 145.323C135.648 145.87 135.999 146.354 136.503 146.641L137.492 144.903ZM137.491 145.092V145.087H135.491V145.092H137.491ZM137.468 144.873L135.244 134.693L133.29 135.12L135.514 145.3L137.468 144.873ZM147.423 133.906H134.267V135.906H147.423V133.906ZM167.726 114.488C167.508 125.14 158.179 133.906 147.423 133.906V135.906C159.211 135.906 169.485 126.325 169.726 114.529L167.726 114.488ZM159.64 98.1095C164.656 101.804 167.865 107.778 167.726 114.488L169.726 114.53C169.879 107.139 166.341 100.561 160.826 96.4991L159.64 98.1095ZM154.84 86.7061C154.558 91.0576 155.976 95.4117 159.64 98.1096L160.826 96.499C157.848 94.3065 156.586 90.6968 156.836 86.8354L154.84 86.7061ZM154.942 83.5105C154.942 84.5836 154.906 85.6477 154.84 86.7081L156.836 86.8334C156.905 85.7341 156.942 84.6281 156.942 83.5105H154.942ZM102.815 33.1147C131.384 33.1147 154.942 55.7098 154.942 83.5105H156.942C156.942 54.5371 132.419 31.1147 102.815 31.1147V33.1147ZM51.1565 83.5105C51.1565 55.6985 74.262 33.1147 102.815 33.1147V31.1147C73.2035 31.1147 49.1565 54.5484 49.1565 83.5105H51.1565ZM79.0923 128.291C62.4867 119.901 51.1565 102.991 51.1565 83.5105H49.1565C49.1565 103.793 60.9548 121.368 78.1905 130.076L79.0923 128.291ZM76.1441 145.3L79.6184 129.397L77.6644 128.97L74.1902 144.873L76.1441 145.3ZM76.1671 145.092V145.087H74.1671V145.092H76.1671ZM75.156 146.641C75.6598 146.354 76.0102 145.87 76.1401 145.323L74.1942 144.861C74.1917 144.871 74.187 144.881 74.181 144.889C74.1752 144.897 74.1699 144.901 74.1669 144.903L75.156 146.641ZM68.7466 150.271L75.1542 146.642L74.1686 144.902L67.761 148.531L68.7466 150.271ZM68.77 150.342C68.7584 150.342 68.7507 150.342 68.7464 150.341C68.7421 150.34 68.7401 150.339 68.7399 150.339C68.7397 150.339 68.7402 150.339 68.7412 150.34C68.7421 150.34 68.7428 150.341 68.7432 150.341C68.7443 150.342 68.7351 150.334 68.7295 150.313C68.7239 150.292 68.7281 150.281 68.7274 150.283C68.7272 150.283 68.7268 150.284 68.7262 150.285C68.7256 150.286 68.7251 150.287 68.7252 150.287C68.7253 150.287 68.7266 150.285 68.7299 150.282C68.7332 150.28 68.7394 150.275 68.7494 150.269L67.7582 148.532C65.9366 149.572 66.6783 152.342 68.77 152.342V150.342ZM86.8614 150.342H68.77V152.342H86.8614V150.342ZM86.9051 150.314C86.8986 150.33 86.8821 150.342 86.8614 150.342V152.342C87.7062 152.342 88.4614 151.825 88.7676 151.042L86.9051 150.314ZM92.6393 133.791L86.8917 150.35L88.7811 151.006L94.5287 134.447L92.6393 133.791ZM102.815 133.906C99.7227 133.906 96.6951 133.641 93.754 133.134L93.4139 135.105C96.4669 135.632 99.6083 135.906 102.815 135.906V133.906ZM105.135 133.855C104.366 133.891 103.594 133.906 102.815 133.906V135.906C103.62 135.906 104.423 135.89 105.228 135.853L105.135 133.855Z" fill="black" mask="url(#path-20-inside-1_795_12624)"/>
<path d="M103.431 92.0957V96.3153C103.431 98.0097 104.805 99.3834 106.499 99.3834V99.3834C108.194 99.3834 109.567 98.0097 109.567 96.3153V92.0957" stroke="black" stroke-linecap="round"/>
<ellipse cx="92.125" cy="90.4699" rx="7.5" ry="7.63495" fill="white"/>
<ellipse cx="91.8125" cy="92.3784" rx="0.9375" ry="1.27249" fill="black"/>
<ellipse cx="120.875" cy="90.4699" rx="7.5" ry="7.63495" fill="white"/>
<ellipse cx="120.562" cy="92.3784" rx="0.9375" ry="1.27249" fill="black"/>
<path d="M94.9961 78.494C95.234 78.6342 95.5406 78.555 95.6808 78.3171C95.821 78.0792 95.7418 77.7727 95.5039 77.6325L94.9961 78.494ZM83.5308 82.9804C83.4354 83.2395 83.568 83.5269 83.8272 83.6224C84.0863 83.7178 84.3737 83.5852 84.4692 83.326L83.5308 82.9804ZM95.5039 77.6325C93.9375 76.7093 92.4471 76.4018 91.074 76.5264C89.7063 76.6505 88.4907 77.1998 87.4598 77.9344C85.4128 79.3931 84.0289 81.6284 83.5308 82.9804L84.4692 83.326C84.9086 82.133 86.1809 80.0737 88.0402 78.7488C88.9625 78.0916 90.0124 77.6269 91.1643 77.5223C92.3107 77.4183 93.5938 77.6675 94.9961 78.494L95.5039 77.6325Z" fill="black"/>
<path d="M116.564 77.6295C116.324 77.7667 116.241 78.0722 116.379 78.3119C116.516 78.5515 116.821 78.6345 117.061 78.4973L116.564 77.6295ZM128.516 84.2344C128.586 84.5016 128.86 84.6614 129.127 84.5914C129.394 84.5214 129.554 84.2482 129.484 83.981L128.516 84.2344ZM117.061 78.4973C119.376 77.1716 121.92 77.4522 124.068 78.6584C126.226 79.8705 127.929 81.9912 128.516 84.2344L129.484 83.981C128.821 81.4524 126.93 79.1194 124.557 77.7865C122.174 76.4478 119.249 76.0921 116.564 77.6295L117.061 78.4973Z" fill="black"/>
<path d="M93.3565 106.696C93.0885 106.628 92.8178 106.791 92.7517 107.059C92.6856 107.327 92.8493 107.599 93.1172 107.666L93.3565 106.696ZM106.801 108.653C107.074 108.617 107.266 108.366 107.229 108.092C107.192 107.818 106.94 107.625 106.667 107.66L106.801 108.653ZM93.1172 107.666C95.5275 108.274 101.63 109.325 106.801 108.653L106.667 107.66C101.672 108.31 95.7086 107.289 93.3565 106.696L93.1172 107.666Z" fill="black"/>
<path d="M110.184 107.128C109.921 107.208 109.773 107.487 109.855 107.752C109.937 108.016 110.217 108.166 110.481 108.086L110.184 107.128ZM113.728 106.815C113.963 106.672 114.036 106.364 113.892 106.128C113.748 105.891 113.44 105.815 113.205 105.958L113.728 106.815ZM110.481 108.086C110.865 107.969 111.482 107.767 112.094 107.54C112.695 107.317 113.332 107.056 113.728 106.815L113.205 105.958C112.899 106.144 112.344 106.378 111.742 106.601C111.151 106.82 110.552 107.016 110.184 107.128L110.481 108.086Z" fill="black"/>
<path d="M95.634 104.121L95.7257 103.627L95.7166 103.626L95.7075 103.625L95.634 104.121ZM95.7075 103.625C94.4866 103.472 93.4771 104.061 92.9595 105.021C92.4501 105.965 92.4387 107.217 93.0429 108.411C94.2577 110.813 97.8945 112.953 105.133 112.626L105.112 111.627C98.0188 111.947 94.893 109.832 93.9374 107.943C93.4564 106.992 93.5079 106.09 93.8371 105.479C94.1582 104.884 94.7632 104.517 95.5604 104.617L95.7075 103.625ZM105.133 112.626C112.368 112.3 115.965 110.059 117.34 107.638C118.026 106.431 118.14 105.202 117.871 104.219C117.606 103.255 116.943 102.46 116.03 102.291L115.826 103.275C116.255 103.354 116.705 103.771 116.906 104.504C117.102 105.219 117.034 106.174 116.474 107.16C115.358 109.124 112.209 111.307 105.112 111.627L105.133 112.626ZM116.03 102.291C115.215 102.141 114.453 102.365 113.62 102.663C112.768 102.967 111.788 103.37 110.408 103.716C107.667 104.403 103.336 104.865 95.7257 103.627L95.5423 104.614C103.253 105.869 107.726 105.414 110.63 104.685C112.072 104.323 113.125 103.893 113.936 103.604C114.766 103.307 115.298 103.177 115.826 103.275L116.03 102.291Z" fill="black"/>
<defs>
<linearGradient id="paint0_linear_795_12624" x1="52.5182" y1="29" x2="154.784" y2="147.131" gradientUnits="userSpaceOnUse">
<stop offset="0.432292" stop-color="#E066A3"/>
<stop offset="1" stop-color="#FFACD6"/>
</linearGradient>
</defs>
</svg>
