<svg width="225" height="151" viewBox="0 0 225 151" fill="none" xmlns="http://www.w3.org/2000/svg">
<path d="M42.1167 32.6381L26.677 6.58366C25.5512 5.05577 22.4311 2 18.9571 2C14.6147 2 10.3929 4.77432 10.3929 11.2879C10.3929 16.4988 10.3929 20.0532 10.3929 21.179C10.6744 23.3904 12.7813 27.8132 18.9571 27.8132C25.133 27.8132 39.3826 27.8132 45.7354 27.8132" stroke="#B2C5CF" stroke-linecap="round"/>
<path d="M10.5136 10.2021L4 19.3695H10.5136" stroke="#B2C5CF" stroke-linecap="round"/>
<path d="M20.4047 27.813V32.9998" stroke="#B2C5CF" stroke-linecap="round"/>
<path d="M27.642 27.813V32.9998" stroke="#B2C5CF" stroke-linecap="round"/>
<path d="M134.38 0.669755L85.7429 12.8938C77.9924 14.8385 71.8648 20.8015 69.6629 28.533L55.8657 77.0293C53.6638 84.7608 55.731 93.0818 61.2862 98.8618L96.1262 135.134C101.675 140.914 109.87 143.279 117.62 141.327L166.257 129.103C174.008 127.159 180.135 121.196 182.337 113.464L196.134 64.9679C198.336 57.2364 196.269 48.9154 190.714 43.1354L155.881 6.86308C150.325 1.0831 142.13 -1.27498 134.38 0.669755Z" fill="#EEF4F9"/>
<path d="M180.423 150H203.889C208.667 150 212.778 146.619 213.701 141.931L216.652 126.931C217.868 120.751 213.138 115 206.841 115H177.856C171.66 115 166.955 120.578 168 126.687L170.566 141.687C171.388 146.489 175.551 150 180.423 150Z" stroke="#B2C5CF"/>
<path d="M168.995 126.907H207.931" stroke="#B2C5CF" stroke-linecap="round"/>
<path d="M185.169 91.2651V115.226" stroke="#B2C5CF" stroke-linecap="round"/>
<path d="M178.28 115.226V98.1538C178.28 94.3493 181.364 91.2651 185.168 91.2651V91.2651C188.973 91.2651 192.057 94.3493 192.057 98.1538V115.226" stroke="#B2C5CF" stroke-linecap="round"/>
<path d="M180.676 115.226C180.277 108.836 180.257 95.1586 183.371 91.5645" stroke="#B2C5CF" stroke-linecap="round"/>
<path d="M178.28 97.5546L176.782 96.9556" stroke="#B2C5CF" stroke-linecap="round"/>
<path d="M191.159 94.15L192.277 92.9878" stroke="#B2C5CF" stroke-linecap="round"/>
<path d="M185.087 91.3799L185.132 89.7676" stroke="#B2C5CF" stroke-linecap="round"/>
<path d="M178.28 102.347H176.782" stroke="#B2C5CF" stroke-linecap="round"/>
<path d="M193.854 101.149H192.357" stroke="#B2C5CF" stroke-linecap="round"/>
<path d="M193.854 107.738H192.357" stroke="#B2C5CF" stroke-linecap="round"/>
<path d="M178.28 107.738H176.782" stroke="#B2C5CF" stroke-linecap="round"/>
<path d="M197.149 71.7969L197.149 115.525" stroke="#B2C5CF" stroke-linecap="round"/>
<path d="M187.565 91.5645V81.3812C187.565 76.0879 191.856 71.7969 197.149 71.7969V71.7969C202.442 71.7969 206.733 76.0879 206.733 81.3812V115.525" stroke="#B2C5CF" stroke-linecap="round"/>
<path d="M190.56 92.7626C190.812 81.7536 190.56 76.5244 195.352 72.396" stroke="#B2C5CF" stroke-linecap="round"/>
<path d="M188.463 75.9901L186.965 75.3911" stroke="#B2C5CF" stroke-linecap="round"/>
<path d="M203.738 74.3824L204.856 73.2202" stroke="#B2C5CF" stroke-linecap="round"/>
<path d="M197.067 71.6123L197.112 70" stroke="#B2C5CF" stroke-linecap="round"/>
<path d="M187.265 83.1782H185.767" stroke="#B2C5CF" stroke-linecap="round"/>
<path d="M208.23 81.9805H206.733" stroke="#B2C5CF" stroke-linecap="round"/>
<path d="M208.23 91.5645H206.733" stroke="#B2C5CF" stroke-linecap="round"/>
<path d="M208.23 102.347H206.733" stroke="#B2C5CF" stroke-linecap="round"/>
<path d="M55.6341 48V77H64V20H55.6341V33.5H15V40H55.6341" stroke="#B2C5CF"/>
<line x1="18.5" y1="150.5" x2="57.5" y2="150.5" stroke="#B2C5CF" stroke-linecap="round"/>
<line x1="162.5" y1="150.5" x2="221.5" y2="150.5" stroke="#B2C5CF" stroke-linecap="round"/>
<line x1="0.5" y1="150.5" x2="11.5" y2="150.5" stroke="#B2C5CF" stroke-linecap="round"/>
<path d="M59.6086 80.6777C59.6086 108.18 82.1478 130.479 109.956 130.479H151.956C159.162 130.479 165 124.702 165 117.575V58.2276C165 41.9818 151.685 28.812 135.261 28.812H85.6956C71.2904 28.812 59.6086 40.3655 59.6086 54.6145V80.6777Z" fill="url(#paint0_linear_795_12567)"/>
<mask id="path-33-inside-1_795_12567" fill="white">
<path fill-rule="evenodd" clip-rule="evenodd" d="M57 83.8164C57 106.705 72.297 126.027 93.2354 132.125L90.5328 144.54V144.545C90.465 144.832 90.2824 145.082 90.0268 145.228L83.6146 148.873C82.6859 149.404 83.0615 150.823 84.1311 150.823H102.235C102.668 150.823 103.055 150.557 103.211 150.155L108.754 134.128H123.244L128.788 150.155C128.944 150.557 129.33 150.823 129.763 150.823H147.868C148.937 150.823 149.313 149.404 148.384 148.873L141.972 145.228C141.716 145.082 141.534 144.832 141.466 144.545V144.54L139.2 134.128H147.261C154.466 134.128 160.304 128.294 160.304 121.094V59.5728C160.304 45.1778 148.623 33.5044 134.217 33.5044H83.087C68.6817 33.5044 57 45.1726 57 59.5728V83.8164Z"/>
</mask>
<path d="M93.2354 132.125L94.2125 132.338L94.411 131.426L93.515 131.165L93.2354 132.125ZM90.5328 144.54L89.5557 144.327L89.5328 144.433V144.54H90.5328ZM90.5328 144.545L91.506 144.775L91.5328 144.662V144.545H90.5328ZM90.0268 145.228L90.5209 146.098L90.5226 146.097L90.0268 145.228ZM83.6146 148.873L83.1205 148.003L83.1177 148.005L83.6146 148.873ZM103.211 150.155L104.143 150.518L104.15 150.5L104.156 150.482L103.211 150.155ZM108.754 134.128V133.128H108.042L107.809 133.801L108.754 134.128ZM123.244 134.128L124.189 133.801L123.957 133.128H123.244V134.128ZM128.788 150.155L127.843 150.482L127.849 150.5L127.856 150.518L128.788 150.155ZM148.384 148.873L148.881 148.005L148.878 148.003L148.384 148.873ZM141.972 145.228L141.476 146.097L141.478 146.098L141.972 145.228ZM141.466 144.545H140.466V144.662L140.493 144.775L141.466 144.545ZM141.466 144.54H142.466V144.433L142.443 144.327L141.466 144.54ZM139.2 134.128V133.128H137.958L138.222 134.341L139.2 134.128ZM93.515 131.165C72.9916 125.188 58 106.248 58 83.8164H56C56 107.162 71.6025 126.867 92.9558 133.085L93.515 131.165ZM91.51 144.753L94.2125 132.338L92.2583 131.912L89.5557 144.327L91.51 144.753ZM91.5328 144.545V144.54H89.5328V144.545H91.5328ZM90.5226 146.097C91.0269 145.809 91.3765 145.323 91.506 144.775L89.5597 144.315C89.557 144.327 89.5519 144.337 89.5456 144.346C89.5395 144.354 89.5339 144.358 89.5309 144.36L90.5226 146.097ZM84.1087 149.742L90.5209 146.098L89.5326 144.359L83.1205 148.003L84.1087 149.742ZM84.1311 149.823C84.1197 149.823 84.1121 149.822 84.108 149.821C84.1038 149.82 84.102 149.82 84.1019 149.819C84.1017 149.819 84.1023 149.82 84.1033 149.82C84.1042 149.821 84.1049 149.821 84.1052 149.821C84.106 149.822 84.0961 149.813 84.0902 149.791C84.0842 149.768 84.0884 149.756 84.0883 149.756C84.0882 149.756 84.0879 149.757 84.0875 149.757C84.087 149.758 84.0867 149.758 84.087 149.758C84.0872 149.758 84.0886 149.756 84.0919 149.754C84.0953 149.751 84.1015 149.746 84.1115 149.74L83.1177 148.005C81.3043 149.043 82.031 151.823 84.1311 151.823V149.823ZM102.235 149.823H84.1311V151.823H102.235V149.823ZM102.279 149.792C102.272 149.811 102.254 149.823 102.235 149.823V151.823C103.083 151.823 103.837 151.302 104.143 150.518L102.279 149.792ZM107.809 133.801L102.266 149.828L104.156 150.482L109.699 134.455L107.809 133.801ZM123.244 133.128H108.754V135.128H123.244V133.128ZM122.299 134.455L127.843 150.482L129.733 149.828L124.189 133.801L122.299 134.455ZM127.856 150.518C128.162 151.302 128.916 151.823 129.763 151.823V149.823C129.745 149.823 129.727 149.811 129.719 149.792L127.856 150.518ZM129.763 151.823H147.868V149.823H129.763V151.823ZM147.868 151.823C149.968 151.823 150.694 149.043 148.881 148.005L147.887 149.74C147.897 149.746 147.904 149.751 147.907 149.754C147.91 149.756 147.912 149.758 147.912 149.758C147.912 149.758 147.912 149.758 147.911 149.757C147.911 149.757 147.911 149.756 147.911 149.756C147.91 149.756 147.915 149.768 147.909 149.791C147.903 149.813 147.893 149.822 147.894 149.821C147.894 149.821 147.895 149.821 147.896 149.82C147.897 149.82 147.897 149.819 147.897 149.819C147.897 149.82 147.895 149.82 147.891 149.821C147.887 149.822 147.879 149.823 147.868 149.823V151.823ZM148.878 148.003L142.466 144.359L141.478 146.098L147.89 149.742L148.878 148.003ZM142.468 144.36C142.465 144.358 142.459 144.354 142.453 144.346C142.447 144.337 142.442 144.327 142.439 144.315L140.493 144.775C140.622 145.323 140.972 145.809 141.476 146.097L142.468 144.36ZM142.466 144.545V144.54H140.466V144.545H142.466ZM142.443 144.327L140.177 133.916L138.222 134.341L140.489 144.753L142.443 144.327ZM147.261 133.128H139.2V135.128H147.261V133.128ZM159.304 121.094C159.304 127.741 153.914 133.128 147.261 133.128V135.128C155.018 135.128 161.304 128.847 161.304 121.094H159.304ZM159.304 59.5728V121.094H161.304V59.5728H159.304ZM134.217 34.5044C148.071 34.5044 159.304 45.7308 159.304 59.5728H161.304C161.304 44.6249 149.174 32.5044 134.217 32.5044V34.5044ZM83.087 34.5044H134.217V32.5044H83.087V34.5044ZM58 59.5728C58 45.7257 69.2332 34.5044 83.087 34.5044V32.5044C68.1303 32.5044 56 44.6195 56 59.5728H58ZM58 83.8164V59.5728H56V83.8164H58Z" fill="black" mask="url(#path-33-inside-1_795_12567)"/>
<ellipse cx="100.038" cy="89.0525" rx="7.01047" ry="6.92119" fill="white"/>
<ellipse cx="99.7461" cy="90.7829" rx="0.876309" ry="1.15353" fill="black"/>
<ellipse cx="127.271" cy="89.0525" rx="7.01047" ry="6.92119" fill="white"/>
<ellipse cx="126.979" cy="90.7829" rx="0.876309" ry="1.15353" fill="black"/>
<path d="M91.7417 78.4097C91.5053 78.5524 91.4292 78.8597 91.5719 79.0961C91.7145 79.3326 92.0219 79.4086 92.2583 79.266L91.7417 78.4097ZM107.07 80.9228C107.345 80.9388 107.582 80.7283 107.598 80.4526C107.614 80.1769 107.403 79.9405 107.128 79.9245L107.07 80.9228ZM92.2583 79.266C93.635 78.4353 94.8773 78.1057 96.0464 78.0689C97.2227 78.0319 98.3536 78.2903 99.5112 78.6777C100.09 78.8715 100.67 79.0952 101.264 79.3281C101.854 79.5597 102.462 79.801 103.08 80.0223C104.32 80.4655 105.636 80.8395 107.07 80.9228L107.128 79.9245C105.831 79.8492 104.617 79.5096 103.417 79.0806C102.816 78.8658 102.226 78.6314 101.629 78.3971C101.034 78.1642 100.434 77.932 99.8286 77.7294C98.6169 77.3239 97.3585 77.0272 96.015 77.0694C94.6643 77.1119 93.2562 77.496 91.7417 78.4097L92.2583 79.266Z" fill="black"/>
<path d="M134.615 73.7244C134.885 73.7878 135.053 74.0566 134.991 74.3247C134.929 74.5928 134.66 74.7588 134.39 74.6954L134.615 73.7244ZM120.827 80.798C120.57 80.8976 120.279 80.7701 120.177 80.5132C120.075 80.2563 120.202 79.9673 120.459 79.8677L120.827 80.798ZM134.39 74.6954C132.821 74.3264 131.537 74.3927 130.414 74.715C129.284 75.0393 128.29 75.6305 127.311 76.3526C126.821 76.7138 126.34 77.1037 125.848 77.5067C125.359 77.9075 124.857 78.3226 124.338 78.7221C123.299 79.5224 122.164 80.2805 120.827 80.798L120.459 79.8677C121.668 79.3997 122.716 78.706 123.722 77.9313C124.226 77.5433 124.714 77.1401 125.209 76.7347C125.701 76.3316 126.199 75.9274 126.711 75.5496C127.736 74.7936 128.84 74.1267 130.131 73.7562C131.429 73.3836 132.888 73.3184 134.615 73.7244L134.39 74.6954Z" fill="black"/>
<path d="M110.498 93.7988V97.8178C110.498 99.5205 111.878 100.901 113.581 100.901V100.901C115.283 100.901 116.664 99.5205 116.664 97.8178V93.7988" stroke="black" stroke-linecap="round"/>
<path d="M113.963 107.725C110.485 108.321 102.659 107.89 99.1822 101.399" stroke="black" stroke-linecap="round" stroke-linejoin="round"/>
<path d="M100.939 100.544C99.8243 100.806 97.4905 101.905 97.0755 104.207" stroke="black" stroke-linecap="round" stroke-linejoin="round"/>
<defs>
<linearGradient id="paint0_linear_795_12567" x1="59.6086" y1="28.812" x2="161.21" y2="134.135" gradientUnits="userSpaceOnUse">
<stop offset="0.432292" stop-color="#F56C60"/>
<stop offset="1" stop-color="#CF6358"/>
</linearGradient>
</defs>
</svg>
