<svg width="222" height="152" viewBox="0 0 222 152" fill="none" xmlns="http://www.w3.org/2000/svg">
<circle cx="95.9999" cy="85" r="65" fill="#EEF4F9"/>
<path d="M204.664 53.3838V81.6988" stroke="#B2C5CF" stroke-linecap="round" stroke-dasharray="3 3"/>
<path d="M176 53.3838L192.605 36.7793L209.034 53.3838H176Z" stroke="#B2C5CF"/>
<path d="M192.604 20V31.1862" stroke="#B2C5CF" stroke-linecap="round"/>
<rect x="190.133" y="31.686" width="5.29223" height="4.5931" rx="1.5" fill="#B2C5CF" stroke="#B2C5CF"/>
<path d="M200.12 53.2091C200.12 55.156 199.347 57.0232 197.97 58.3999C196.593 59.7766 194.726 60.55 192.779 60.55C190.832 60.55 188.965 59.7766 187.588 58.3999C186.212 57.0232 185.438 55.156 185.438 53.2091L192.779 53.2091H200.12Z" fill="#B2C5CF"/>
<path d="M50.0433 128.077C56.6133 122 65.3734 124.587 68.9321 126.435C67.2212 121.576 60.4321 113.048 46.9636 117.812" stroke="#B2C5CF" stroke-linejoin="round"/>
<path d="M65.4416 123.766C63.5938 121.986 57.9682 119.085 50.2484 121.713" stroke="#B2C5CF" stroke-linejoin="round"/>
<path d="M34.2339 128.077H43.6783H52.0962L47.7846 150.046H39.1614L34.2339 128.077Z" fill="#B2C5CF" stroke="#B2C5CF" stroke-linejoin="round"/>
<path d="M39.3669 128.077C36.8347 120.481 31.5239 102.947 30.5384 93.5845C29.5529 84.2222 26.4321 74.6272 24.9949 71C47.0046 84.6328 48.4007 114.732 46.3476 128.077" stroke="#B2C5CF" stroke-linejoin="round"/>
<path d="M33.4127 85.3721C36.5609 92.2159 42.9393 110.338 43.2678 128.077" stroke="#B2C5CF" stroke-linejoin="round"/>
<path d="M34.3939 128.569C31.342 125.993 24.6918 119.905 22.5065 116.158C20.3213 112.411 16.5237 109.137 14.8981 107.969C32.5006 111.664 35.0383 117.041 35.8783 117.609" stroke="#B2C5CF" stroke-linejoin="round"/>
<path d="M15.9999 108.3C19.2633 109.747 26.7885 114.233 30.7825 120.605" stroke="#B2C5CF" stroke-linejoin="round"/>
<line x1="4.5" y1="150.5" x2="77.5" y2="150.5" stroke="#B2C5CF" stroke-linecap="round"/>
<line x1="172.5" y1="150.5" x2="202.5" y2="150.5" stroke="#B2C5CF" stroke-linecap="round"/>
<line x1="208.5" y1="150.5" x2="218.5" y2="150.5" stroke="#B2C5CF" stroke-linecap="round"/>
<path fill-rule="evenodd" clip-rule="evenodd" d="M112.908 132.279C112.908 132.279 112.908 132.279 112.913 132.279C113.398 132.316 113.894 132.331 114.389 132.331H157.016C168.397 132.331 177.662 122.815 176.828 111.529C176.369 105.305 173.027 100.84 168.09 97.2266C164.899 94.8956 163.137 91.0746 163.413 87.1499C163.497 85.9558 163.538 84.7514 163.538 83.5366C163.538 55.0042 139.806 29 110.526 29C81.2509 29 57.5182 52.1333 57.5182 80.6657C57.5182 109.198 81.2509 132.331 110.526 132.331C111.323 132.331 112.116 132.316 112.903 132.279H112.908Z" fill="url(#paint0_linear_795_12627)"/>
<mask id="path-18-inside-1_795_12627" fill="white">
<path fill-rule="evenodd" clip-rule="evenodd" d="M110.182 134.854C110.666 134.891 111.157 134.906 111.652 134.906H123.348L128.822 150.678C128.978 151.078 129.364 151.342 129.797 151.342H147.888C148.957 151.342 149.333 149.93 148.405 149.401L141.997 145.772C141.742 145.627 141.559 145.377 141.491 145.092V145.087L139.267 134.906H152.423C163.695 134.906 173.496 125.733 173.726 114.509C173.872 107.459 170.499 101.182 165.233 97.3043C161.912 94.8591 160.572 90.8772 160.838 86.7707C160.905 85.6909 160.942 84.6059 160.942 83.5105C160.942 55.1234 136.902 32.1147 107.815 32.1147C78.7327 32.1147 55.1564 55.1234 55.1564 83.5105C55.1564 103.392 66.7207 120.635 83.6413 129.183L80.1671 145.087V145.092C80.0993 145.377 79.9168 145.627 79.6613 145.772L73.2537 149.401C72.3257 149.93 72.7011 151.342 73.7699 151.342H91.8613C92.2941 151.342 92.6799 151.078 92.8363 150.678L98.5839 134.119C101.581 134.636 104.665 134.906 107.815 134.906C108.607 134.906 109.394 134.891 110.182 134.854Z"/>
</mask>
<path d="M110.182 134.854L110.256 133.857L110.196 133.853L110.135 133.855L110.182 134.854ZM123.348 134.906L124.292 134.578L124.059 133.906H123.348V134.906ZM128.822 150.678L127.877 151.006L127.884 151.024L127.891 151.042L128.822 150.678ZM148.405 149.401L148.9 148.532L148.897 148.531L148.405 149.401ZM141.997 145.772L141.502 146.641L141.504 146.642L141.997 145.772ZM141.491 145.092H140.491V145.209L140.518 145.323L141.491 145.092ZM141.491 145.087H142.491V144.979L142.468 144.873L141.491 145.087ZM139.267 134.906V133.906H138.025L138.29 135.12L139.267 134.906ZM173.726 114.509L172.726 114.488L172.726 114.488L173.726 114.509ZM165.233 97.3043L165.826 96.4991L165.826 96.499L165.233 97.3043ZM160.838 86.7707L161.836 86.8354L161.836 86.8334L160.838 86.7707ZM83.6413 129.183L84.6183 129.397L84.7836 128.64L84.0923 128.291L83.6413 129.183ZM80.1671 145.087L79.1901 144.873L79.1671 144.979V145.087H80.1671ZM80.1671 145.092L81.14 145.323L81.1671 145.209V145.092H80.1671ZM79.6613 145.772L80.1541 146.642L80.1559 146.641L79.6613 145.772ZM73.2537 149.401L72.7609 148.531L72.7581 148.532L73.2537 149.401ZM92.8363 150.678L93.7676 151.042L93.7746 151.024L93.781 151.006L92.8363 150.678ZM98.5839 134.119L98.754 133.134L97.9176 132.989L97.6392 133.791L98.5839 134.119ZM111.652 133.906C111.177 133.906 110.712 133.891 110.256 133.857L110.107 135.852C110.62 135.89 111.136 135.906 111.652 135.906V133.906ZM123.348 133.906H111.652V135.906H123.348V133.906ZM122.403 135.234L127.877 151.006L129.767 150.35L124.292 134.578L122.403 135.234ZM127.891 151.042C128.197 151.825 128.952 152.342 129.797 152.342V150.342C129.776 150.342 129.76 150.33 129.753 150.314L127.891 151.042ZM129.797 152.342H147.888V150.342H129.797V152.342ZM147.888 152.342C149.98 152.342 150.722 149.572 148.9 148.532L147.909 150.269C147.919 150.275 147.925 150.28 147.929 150.282C147.932 150.285 147.933 150.287 147.933 150.287C147.933 150.287 147.933 150.286 147.932 150.285C147.932 150.284 147.931 150.283 147.931 150.283C147.93 150.281 147.935 150.292 147.929 150.313C147.923 150.334 147.914 150.342 147.915 150.341C147.916 150.341 147.916 150.34 147.917 150.34C147.918 150.339 147.919 150.339 147.919 150.339C147.918 150.339 147.916 150.34 147.912 150.341C147.908 150.342 147.9 150.342 147.888 150.342V152.342ZM148.897 148.531L142.49 144.902L141.504 146.642L147.912 150.271L148.897 148.531ZM142.492 144.903C142.489 144.901 142.483 144.897 142.477 144.889C142.471 144.881 142.467 144.871 142.464 144.861L140.518 145.323C140.648 145.87 140.999 146.354 141.502 146.641L142.492 144.903ZM142.491 145.092V145.087H140.491V145.092H142.491ZM142.468 144.873L140.244 134.693L138.29 135.12L140.514 145.3L142.468 144.873ZM152.423 133.906H139.267V135.906H152.423V133.906ZM172.726 114.488C172.508 125.14 163.179 133.906 152.423 133.906V135.906C164.211 135.906 174.484 126.325 174.726 114.529L172.726 114.488ZM164.64 98.1095C169.656 101.804 172.865 107.778 172.726 114.488L174.726 114.53C174.879 107.139 171.341 100.561 165.826 96.4991L164.64 98.1095ZM159.84 86.7061C159.558 91.0576 160.976 95.4117 164.64 98.1096L165.826 96.499C162.848 94.3065 161.585 90.6968 161.836 86.8354L159.84 86.7061ZM159.942 83.5105C159.942 84.5836 159.906 85.6477 159.84 86.7081L161.836 86.8334C161.905 85.7341 161.942 84.6281 161.942 83.5105H159.942ZM107.815 33.1147C136.384 33.1147 159.942 55.7098 159.942 83.5105H161.942C161.942 54.5371 137.419 31.1147 107.815 31.1147V33.1147ZM56.1564 83.5105C56.1564 55.6985 79.2619 33.1147 107.815 33.1147V31.1147C78.2034 31.1147 54.1564 54.5484 54.1564 83.5105H56.1564ZM84.0923 128.291C67.4866 119.901 56.1564 102.991 56.1564 83.5105H54.1564C54.1564 103.793 65.9547 121.368 83.1904 130.076L84.0923 128.291ZM81.144 145.3L84.6183 129.397L82.6644 128.97L79.1901 144.873L81.144 145.3ZM81.1671 145.092V145.087H79.1671V145.092H81.1671ZM80.1559 146.641C80.6598 146.354 81.0102 145.87 81.14 145.323L79.1941 144.861C79.1916 144.871 79.1869 144.881 79.181 144.889C79.1752 144.897 79.1698 144.901 79.1668 144.903L80.1559 146.641ZM73.7465 150.271L80.1541 146.642L79.1686 144.902L72.7609 148.531L73.7465 150.271ZM73.7699 150.342C73.7583 150.342 73.7506 150.342 73.7463 150.341C73.742 150.34 73.7401 150.339 73.7398 150.339C73.7396 150.339 73.7402 150.339 73.7411 150.34C73.7421 150.34 73.7428 150.341 73.7431 150.341C73.7442 150.342 73.735 150.334 73.7294 150.313C73.7239 150.292 73.728 150.281 73.7273 150.283C73.7271 150.283 73.7267 150.284 73.7261 150.285C73.7255 150.286 73.7251 150.287 73.7252 150.287C73.7253 150.287 73.7266 150.285 73.7299 150.282C73.7332 150.28 73.7393 150.275 73.7493 150.269L72.7581 148.532C70.9366 149.572 71.6783 152.342 73.7699 152.342V150.342ZM91.8613 150.342H73.7699V152.342H91.8613V150.342ZM91.905 150.314C91.8985 150.33 91.882 150.342 91.8613 150.342V152.342C92.7061 152.342 93.4613 151.825 93.7676 151.042L91.905 150.314ZM97.6392 133.791L91.8916 150.35L93.781 151.006L99.5286 134.447L97.6392 133.791ZM107.815 133.906C104.723 133.906 101.695 133.641 98.754 133.134L98.4139 135.105C101.467 135.632 104.608 135.906 107.815 135.906V133.906ZM110.135 133.855C109.366 133.891 108.594 133.906 107.815 133.906V135.906C108.62 135.906 109.423 135.89 110.228 135.853L110.135 133.855Z" fill="black" mask="url(#path-18-inside-1_795_12627)"/>
<ellipse cx="95.6875" cy="91.3577" rx="7.12499" ry="7.09252" fill="white"/>
<ellipse cx="95.3906" cy="93.1308" rx="0.890624" ry="1.18209" fill="black"/>
<path d="M95.74 78.1755C96.0141 78.1394 96.2066 77.8886 96.1698 77.6153C96.1331 77.342 95.881 77.1497 95.6068 77.1858L95.74 78.1755ZM86.7891 86.8795C86.8008 87.1549 87.0344 87.3692 87.3108 87.358C87.5871 87.3469 87.8017 87.1145 87.7899 86.8391L86.7891 86.8795ZM95.6068 77.1858C92.0801 77.6501 89.8411 79.5094 88.5065 81.5314C87.1862 83.5317 86.7391 85.7072 86.7891 86.8795L87.7899 86.8391C87.7494 85.8892 88.1311 83.9182 89.3437 82.0811C90.5421 80.2657 92.5403 78.5967 95.74 78.1755L95.6068 77.1858Z" fill="black"/>
<ellipse rx="7.12499" ry="7.09252" transform="matrix(-1 0 0 1 121.313 91.3577)" fill="white"/>
<ellipse rx="0.890624" ry="1.18209" transform="matrix(-1 0 0 1 121.609 93.1308)" fill="black"/>
<path d="M121.26 78.1755C120.986 78.1394 120.793 77.8886 120.83 77.6153C120.867 77.342 121.119 77.1497 121.393 77.1858L121.26 78.1755ZM130.211 86.8795C130.199 87.1549 129.966 87.3692 129.689 87.358C129.413 87.3469 129.198 87.1145 129.21 86.8391L130.211 86.8795ZM121.393 77.1858C124.92 77.6501 127.159 79.5094 128.493 81.5314C129.814 83.5317 130.261 85.7072 130.211 86.8795L129.21 86.8391C129.251 85.8892 128.869 83.9182 127.656 82.0811C126.458 80.2657 124.46 78.5967 121.26 78.1755L121.393 77.1858Z" fill="black"/>
<path d="M105.367 97.2739V101.418C105.367 103.149 106.769 104.552 108.5 104.552V104.552C110.23 104.552 111.633 103.149 111.633 101.418V97.2739" stroke="black" stroke-linecap="round"/>
<path d="M102.756 109.49C105.019 110.876 110.693 112.557 115.289 108.19" stroke="black" stroke-linecap="round"/>
<defs>
<linearGradient id="paint0_linear_795_12627" x1="57.5182" y1="29" x2="159.784" y2="147.131" gradientUnits="userSpaceOnUse">
<stop offset="0.432292" stop-color="#58C6B4"/>
<stop offset="1" stop-color="#62ECDD"/>
</linearGradient>
</defs>
</svg>
