<svg width="222" height="157" viewBox="0 0 222 157" fill="none" xmlns="http://www.w3.org/2000/svg">
<path d="M40.4228 96.6665C30.2312 85.3875 34.2771 67.4177 48.319 61.5949L120.779 31.5476C131.011 27.3044 142.803 31.331 148.303 40.9464L177.68 92.306C183.713 102.853 180.053 116.293 169.506 122.326L115.065 153.466C106.09 158.6 94.7504 156.791 87.8183 149.119L40.4228 96.6665Z" fill="#EEF4F9"/>
<path d="M37.9071 21H17.9602L3 50.4972C19.4779 58.6522 43.6165 53.8951 52 50.4972L37.9071 21Z" stroke="#B2C5CF"/>
<path d="M26 55L26 137" stroke="#B2C5CF"/>
<rect x="15.5" y="137.5" width="22" height="7" stroke="#B2C5CF"/>
<rect x="11.5" y="144.5" width="30" height="6" stroke="#B2C5CF"/>
<path d="M176.522 123.56H191.423H198.139C204.855 123.56 205.484 114.116 202.966 111.387C207.793 111.387 209.262 101.733 200.657 101.733C195.41 76.3393 165.819 88.0919 169.806 104.672C162.461 108.029 162.671 123.56 176.522 123.56Z" stroke="#B2C5CF"/>
<path d="M185.547 123.56V137.621" stroke="#B2C5CF"/>
<path d="M177.991 137.621H185.981H193.102L189.454 150.213H182.16L177.991 137.621Z" stroke="#B2C5CF" stroke-linejoin="round"/>
<circle cx="180.09" cy="104.042" r="0.839474" fill="#B2C5CF"/>
<circle cx="189.744" cy="101.104" r="0.839474" fill="#B2C5CF"/>
<circle cx="198.139" cy="107.819" r="0.839474" fill="#B2C5CF"/>
<circle cx="188.904" cy="111.597" r="0.839474" fill="#B2C5CF"/>
<circle cx="175.473" cy="114.955" r="0.839474" fill="#B2C5CF"/>
<circle cx="193.522" cy="118.313" r="0.839474" fill="#B2C5CF"/>
<circle cx="200.237" cy="116.214" r="0.839474" fill="#B2C5CF"/>
<circle cx="183.868" cy="118.733" r="0.839474" fill="#B2C5CF"/>
<line x1="146.5" y1="150.5" x2="219.5" y2="150.5" stroke="#B2C5CF" stroke-linecap="round"/>
<line x1="46.5" y1="150.5" x2="55.5" y2="150.5" stroke="#B2C5CF" stroke-linecap="round"/>
<path fill-rule="evenodd" clip-rule="evenodd" d="M116.844 132.331C146.003 132.331 169.642 109.198 169.642 80.6657C169.642 52.1333 146.009 29 116.844 29C87.6792 29 64.0401 55.0042 64.0401 83.5366C64.0401 84.7514 64.0816 85.9558 64.1647 87.1499C64.4399 91.0798 62.6847 94.8956 59.5065 97.2266C54.5886 100.84 51.265 105.305 50.8028 111.529C49.9719 122.815 59.2001 132.331 70.5367 132.331H112.996C113.489 132.331 113.982 132.316 114.465 132.279C114.465 132.279 114.465 132.279 114.471 132.279C115.26 132.316 116.049 132.331 116.839 132.331H116.844Z" fill="url(#paint0_linear_795_12597)"/>
<mask id="path-20-inside-1_795_12597" fill="white">
<path fill-rule="evenodd" clip-rule="evenodd" d="M142.257 129.851C159.851 121.556 171.995 103.924 171.995 83.5105C171.995 55.1234 148.511 32.1147 119.544 32.1147C90.5768 32.1147 66.6261 55.1234 66.6261 83.5105C66.6261 84.6059 66.6624 85.6961 66.7299 86.7707C66.9895 90.8772 65.6601 94.8591 62.3521 97.3043C57.107 101.182 53.7471 107.454 53.8925 114.509C54.1262 125.733 63.8841 134.906 75.1116 134.906H86.4791L84.3768 144.568V144.573C84.3093 144.858 84.1276 145.108 83.8731 145.253L77.4907 148.882C76.5664 149.411 76.9403 150.823 78.0048 150.823H96.025C96.4561 150.823 96.8403 150.559 96.9961 150.159L102.27 134.906H115.722C116.215 134.906 116.703 134.891 117.186 134.854C117.971 134.891 118.755 134.906 119.544 134.906C122.204 134.906 124.817 134.712 127.37 134.338L132.84 150.159C132.996 150.559 133.38 150.823 133.811 150.823H151.831C152.896 150.823 153.27 149.411 152.346 148.882L145.963 145.253C145.709 145.108 145.527 144.858 145.459 144.573V144.568L142.257 129.851Z"/>
</mask>
<path d="M142.257 129.851L141.831 128.946L141.111 129.286L141.28 130.063L142.257 129.851ZM66.7299 86.7707L65.7319 86.8334L65.7319 86.8339L66.7299 86.7707ZM62.3521 97.3043L61.7577 96.5001L61.7576 96.5002L62.3521 97.3043ZM53.8925 114.509L52.8927 114.529L52.8927 114.53L53.8925 114.509ZM86.4791 134.906L87.4562 135.119L87.7201 133.906H86.4791V134.906ZM84.3768 144.568L83.3997 144.355L83.3768 144.46V144.568H84.3768ZM84.3768 144.573L85.35 144.803L85.3768 144.689V144.573H84.3768ZM83.8731 145.253L84.3674 146.122L84.3691 146.121L83.8731 145.253ZM77.4907 148.882L76.9965 148.012L76.9937 148.014L77.4907 148.882ZM96.9961 150.159L97.9279 150.522L97.9349 150.504L97.9412 150.486L96.9961 150.159ZM102.27 134.906V133.906H101.557L101.324 134.579L102.27 134.906ZM117.186 134.854L117.233 133.855L117.172 133.853L117.111 133.857L117.186 134.854ZM127.37 134.338L128.315 134.011L128.045 133.228L127.225 133.349L127.37 134.338ZM132.84 150.159L131.895 150.486L131.901 150.504L131.908 150.522L132.84 150.159ZM152.346 148.882L152.843 148.014L152.84 148.012L152.346 148.882ZM145.963 145.253L145.467 146.121L145.469 146.122L145.963 145.253ZM145.459 144.573H144.459V144.689L144.486 144.803L145.459 144.573ZM145.459 144.568H146.459V144.46L146.437 144.355L145.459 144.568ZM170.995 83.5105C170.995 103.514 159.095 120.807 141.831 128.946L142.684 130.755C160.607 122.305 172.995 104.334 172.995 83.5105H170.995ZM119.544 33.1147C147.978 33.1147 170.995 55.6948 170.995 83.5105H172.995C172.995 54.5521 149.044 31.1147 119.544 31.1147V33.1147ZM67.6261 83.5105C67.6261 55.7062 91.0981 33.1147 119.544 33.1147V31.1147C90.0554 31.1147 65.6261 54.5407 65.6261 83.5105H67.6261ZM67.7279 86.708C67.6617 85.6532 67.6261 84.5839 67.6261 83.5105H65.6261C65.6261 84.6279 65.6631 85.7391 65.7319 86.8334L67.7279 86.708ZM62.9465 98.1084C66.5978 95.4095 68.0028 91.0555 67.7279 86.7076L65.7319 86.8339C65.9763 90.6989 64.7225 94.3086 61.7577 96.5001L62.9465 98.1084ZM54.8923 114.488C54.7538 107.772 57.9506 101.802 62.9466 98.1084L61.7576 96.5002C56.2634 100.562 52.7403 107.136 52.8927 114.529L54.8923 114.488ZM75.1116 133.906C64.4042 133.906 55.1141 125.144 54.8923 114.488L52.8927 114.53C53.1382 126.322 63.364 135.906 75.1116 135.906V133.906ZM86.4791 133.906H75.1116V135.906H86.4791V133.906ZM85.354 144.78L87.4562 135.119L85.502 134.694L83.3997 144.355L85.354 144.78ZM85.3768 144.573V144.568H83.3768V144.573H85.3768ZM84.3691 146.121C84.8722 145.834 85.2209 145.349 85.35 144.803L83.4037 144.343C83.4011 144.354 83.3962 144.364 83.3903 144.372C83.3845 144.38 83.3794 144.383 83.3771 144.385L84.3691 146.121ZM77.985 149.751L84.3674 146.122L83.3788 144.384L76.9965 148.012L77.985 149.751ZM78.0048 149.823C77.9937 149.823 77.9865 149.822 77.9827 149.822C77.9807 149.821 77.9794 149.821 77.9786 149.821C77.9782 149.821 77.9779 149.821 77.9777 149.821C77.9775 149.821 77.9774 149.821 77.9774 149.821C77.9774 149.821 77.9775 149.821 77.9776 149.821C77.9777 149.821 77.9779 149.821 77.9781 149.821C77.9785 149.821 77.9791 149.821 77.9796 149.822C77.9808 149.822 77.9817 149.823 77.9822 149.823C77.9838 149.825 77.9744 149.817 77.9686 149.795C77.9629 149.773 77.967 149.761 77.9666 149.763C77.9665 149.763 77.9661 149.764 77.9655 149.765C77.965 149.766 77.9645 149.766 77.9646 149.766C77.9646 149.766 77.9658 149.765 77.969 149.762C77.9721 149.759 77.9781 149.755 77.9878 149.749L76.9937 148.014C75.1856 149.05 75.9088 151.823 78.0048 151.823V149.823ZM96.025 149.823H78.0048V151.823H96.025V149.823ZM96.0644 149.796C96.0574 149.814 96.0416 149.823 96.025 149.823V151.823C96.8705 151.823 97.6232 151.304 97.9279 150.522L96.0644 149.796ZM101.324 134.579L96.051 149.832L97.9412 150.486L103.215 135.233L101.324 134.579ZM115.722 133.906H102.27V135.906H115.722V133.906ZM117.111 133.857C116.657 133.891 116.194 133.906 115.722 133.906V135.906C116.236 135.906 116.75 135.89 117.261 135.851L117.111 133.857ZM119.544 133.906C118.768 133.906 117.999 133.891 117.233 133.855L117.14 135.853C117.942 135.89 118.742 135.906 119.544 135.906V133.906ZM127.225 133.349C124.72 133.716 122.155 133.906 119.544 133.906V135.906C122.252 135.906 124.914 135.709 127.515 135.327L127.225 133.349ZM126.425 134.665L131.895 150.486L133.785 149.832L128.315 134.011L126.425 134.665ZM131.908 150.522C132.213 151.304 132.966 151.823 133.811 151.823V149.823C133.795 149.823 133.779 149.814 133.772 149.796L131.908 150.522ZM133.811 151.823H151.831V149.823H133.811V151.823ZM151.831 151.823C153.927 151.823 154.651 149.05 152.843 148.014L151.848 149.749C151.858 149.755 151.864 149.759 151.867 149.762C151.87 149.765 151.872 149.766 151.872 149.766C151.872 149.766 151.871 149.766 151.871 149.765C151.87 149.764 151.87 149.763 151.87 149.763C151.869 149.761 151.873 149.773 151.868 149.795C151.862 149.817 151.852 149.825 151.854 149.823C151.855 149.823 151.855 149.822 151.857 149.822C151.857 149.821 151.858 149.821 151.858 149.821C151.858 149.821 151.858 149.821 151.859 149.821C151.859 149.821 151.859 149.821 151.859 149.821C151.859 149.821 151.859 149.821 151.859 149.821C151.858 149.821 151.858 149.821 151.858 149.821C151.857 149.821 151.856 149.821 151.854 149.822C151.85 149.822 151.842 149.823 151.831 149.823V151.823ZM152.84 148.012L146.457 144.384L145.469 146.122L151.851 149.751L152.84 148.012ZM146.459 144.385C146.457 144.383 146.452 144.38 146.446 144.372C146.44 144.364 146.435 144.354 146.433 144.343L144.486 144.803C144.615 145.349 144.964 145.834 145.467 146.121L146.459 144.385ZM146.459 144.573V144.568H144.459V144.573H146.459ZM146.437 144.355L143.234 129.638L141.28 130.063L144.482 144.78L146.437 144.355Z" fill="black" mask="url(#path-20-inside-1_795_12597)"/>
<path d="M124.04 109.804C120.366 111.763 111.422 114.213 105.031 108.34" stroke="black" stroke-linecap="round" stroke-linejoin="round"/>
<path d="M111.825 96.6772V101.23C111.825 103.205 113.426 104.806 115.402 104.806V104.806C117.377 104.806 118.978 103.205 118.978 101.23V96.6772" stroke="black" stroke-linecap="round"/>
<path d="M96.8469 91.4344C100.541 86.3972 107.189 88.9158 107.928 90.7148" stroke="black" stroke-linecap="round" stroke-linejoin="round"/>
<path d="M134.153 91.4344C130.459 86.3972 123.811 88.9158 123.072 90.7148" stroke="black" stroke-linecap="round" stroke-linejoin="round"/>
<path d="M95 83.1588C98.6937 79.492 105.342 81.3254 106.081 82.635" stroke="black" stroke-linecap="round" stroke-linejoin="round"/>
<path d="M136 83.1588C132.306 79.492 125.658 81.3254 124.919 82.635" stroke="black" stroke-linecap="round" stroke-linejoin="round"/>
<defs>
<linearGradient id="paint0_linear_795_12597" x1="50.7507" y1="29" x2="153.074" y2="146.732" gradientUnits="userSpaceOnUse">
<stop offset="0.432292" stop-color="#FEE577"/>
<stop offset="1" stop-color="#FFC759"/>
</linearGradient>
</defs>
</svg>
