<svg width="222" height="151" viewBox="0 0 222 151" fill="none" xmlns="http://www.w3.org/2000/svg">
<path d="M42.1167 32.6381L26.677 6.58366C25.5512 5.05577 22.4311 2 18.9571 2C14.6147 2 10.3929 4.77432 10.3929 11.2879C10.3929 16.4988 10.3929 20.0532 10.3929 21.179C10.6744 23.3904 12.7813 27.8132 18.9571 27.8132C25.133 27.8132 39.3826 27.8132 45.7354 27.8132" stroke="#B2C5CF" stroke-linecap="round"/>
<path d="M10.5136 10.2021L4 19.3695H10.5136" stroke="#B2C5CF" stroke-linecap="round"/>
<path d="M20.4047 27.813V32.9998" stroke="#B2C5CF" stroke-linecap="round"/>
<path d="M27.642 27.813V32.9998" stroke="#B2C5CF" stroke-linecap="round"/>
<path d="M134.38 0.669755L85.7429 12.8938C77.9924 14.8385 71.8648 20.8015 69.6629 28.533L55.8657 77.0293C53.6638 84.7608 55.731 93.0818 61.2862 98.8618L96.1262 135.134C101.675 140.914 109.87 143.279 117.62 141.327L166.257 129.103C174.008 127.159 180.135 121.196 182.337 113.464L196.134 64.9679C198.336 57.2364 196.269 48.9154 190.714 43.1354L155.881 6.86308C150.325 1.0831 142.13 -1.27498 134.38 0.669755Z" fill="#EEF4F9"/>
<path d="M180.423 150H203.889C208.667 150 212.778 146.619 213.701 141.931L216.652 126.931C217.868 120.751 213.138 115 206.841 115H177.856C171.66 115 166.955 120.578 168 126.687L170.566 141.687C171.388 146.489 175.551 150 180.423 150Z" stroke="#B2C5CF"/>
<path d="M168.995 126.907H207.931" stroke="#B2C5CF" stroke-linecap="round"/>
<path d="M185.169 91.2651V115.226" stroke="#B2C5CF" stroke-linecap="round"/>
<path d="M178.28 115.226V98.1538C178.28 94.3493 181.364 91.2651 185.168 91.2651V91.2651C188.973 91.2651 192.057 94.3493 192.057 98.1538V115.226" stroke="#B2C5CF" stroke-linecap="round"/>
<path d="M180.676 115.226C180.277 108.836 180.257 95.1586 183.371 91.5645" stroke="#B2C5CF" stroke-linecap="round"/>
<path d="M178.28 97.5546L176.782 96.9556" stroke="#B2C5CF" stroke-linecap="round"/>
<path d="M191.159 94.15L192.277 92.9878" stroke="#B2C5CF" stroke-linecap="round"/>
<path d="M185.087 91.3799L185.132 89.7676" stroke="#B2C5CF" stroke-linecap="round"/>
<path d="M178.28 102.347H176.782" stroke="#B2C5CF" stroke-linecap="round"/>
<path d="M193.854 101.149H192.357" stroke="#B2C5CF" stroke-linecap="round"/>
<path d="M193.854 107.738H192.357" stroke="#B2C5CF" stroke-linecap="round"/>
<path d="M178.28 107.738H176.782" stroke="#B2C5CF" stroke-linecap="round"/>
<path d="M197.149 71.7969L197.149 115.525" stroke="#B2C5CF" stroke-linecap="round"/>
<path d="M187.565 91.5645V81.3812C187.565 76.0879 191.856 71.7969 197.149 71.7969V71.7969C202.442 71.7969 206.733 76.0879 206.733 81.3812V115.525" stroke="#B2C5CF" stroke-linecap="round"/>
<path d="M190.56 92.7626C190.812 81.7536 190.56 76.5244 195.352 72.396" stroke="#B2C5CF" stroke-linecap="round"/>
<path d="M188.463 75.9901L186.965 75.3911" stroke="#B2C5CF" stroke-linecap="round"/>
<path d="M203.738 74.3824L204.856 73.2202" stroke="#B2C5CF" stroke-linecap="round"/>
<path d="M197.067 71.6123L197.112 70" stroke="#B2C5CF" stroke-linecap="round"/>
<path d="M187.265 83.1782H185.767" stroke="#B2C5CF" stroke-linecap="round"/>
<path d="M208.23 81.9805H206.733" stroke="#B2C5CF" stroke-linecap="round"/>
<path d="M208.23 91.5645H206.733" stroke="#B2C5CF" stroke-linecap="round"/>
<path d="M208.23 102.347H206.733" stroke="#B2C5CF" stroke-linecap="round"/>
<path d="M55.6341 48V77H64V20H55.6341V33.5H15V40H55.6341" stroke="#B2C5CF"/>
<line x1="18.5" y1="150.5" x2="57.5" y2="150.5" stroke="#B2C5CF" stroke-linecap="round"/>
<line x1="162.5" y1="150.5" x2="221.5" y2="150.5" stroke="#B2C5CF" stroke-linecap="round"/>
<line x1="0.5" y1="150.5" x2="11.5" y2="150.5" stroke="#B2C5CF" stroke-linecap="round"/>
<path d="M100.269 131.7C69.9638 127.227 78.0742 104.624 82.2173 75.8794C86.2517 47.914 55.0931 24.1708 110.438 27.2735C117.172 27.6502 123.829 29.1047 130.016 31.7887C152.128 41.3791 166.083 63.9398 162.648 87.7457C158.505 116.491 130.574 136.174 100.269 131.7Z" fill="url(#paint0_linear_795_12603)"/>
<mask id="path-33-inside-1_795_12603" fill="white">
<path fill-rule="evenodd" clip-rule="evenodd" d="M76.3035 88.7896C72.792 110.011 70.0613 126.515 88.6728 132.42L86.0714 144.517V144.523C86.0041 144.81 85.8231 145.061 85.5696 145.208L79.2127 148.865C78.292 149.399 78.6645 150.822 79.7248 150.822H97.6731C98.1024 150.822 98.4852 150.555 98.6403 150.152L103.952 134.606C108.813 134.619 113.555 134.009 118.083 132.846L123.996 150.152C124.152 150.555 124.534 150.822 124.964 150.822H142.912C143.972 150.822 144.345 149.399 143.424 148.865L137.067 145.208C136.814 145.061 136.633 144.81 136.565 144.523V144.517L132.738 126.719C145.678 118.934 155.039 105.936 157.305 90.2203C160.652 66.9951 147.483 44.9838 126.379 35.1789C119.924 32.1757 112.895 30.5485 105.778 30.1561C68.3433 28.0916 71.061 38.5419 75.1554 54.2867C77.0273 61.4848 79.187 69.7896 77.9293 78.5109C77.4207 82.0375 76.8525 85.4712 76.3035 88.7896Z"/>
</mask>
<path d="M88.6728 132.42L89.6505 132.63L89.8416 131.742L88.9753 131.467L88.6728 132.42ZM76.3035 88.7896L75.3169 88.6264L76.3035 88.7896ZM86.0714 144.517L85.0937 144.307L85.0714 144.411V144.517H86.0714ZM86.0714 144.523L87.0451 144.75L87.0714 144.638V144.523H86.0714ZM85.5696 145.208L86.0683 146.075L86.0701 146.074L85.5696 145.208ZM79.2127 148.865L78.7141 147.998L78.7113 148L79.2127 148.865ZM98.6403 150.152L99.5735 150.512L99.5804 150.494L99.5866 150.476L98.6403 150.152ZM103.952 134.606L103.955 133.606L103.238 133.604L103.006 134.283L103.952 134.606ZM118.083 132.846L119.029 132.522L118.73 131.647L117.834 131.877L118.083 132.846ZM123.996 150.152L123.05 150.476L123.056 150.494L123.063 150.512L123.996 150.152ZM143.424 148.865L143.926 148L143.923 147.998L143.424 148.865ZM137.067 145.208L136.567 146.074L136.568 146.075L137.067 145.208ZM136.565 144.523H135.565V144.638L135.592 144.75L136.565 144.523ZM136.565 144.517H137.565V144.411L137.543 144.307L136.565 144.517ZM132.738 126.719L132.222 125.862L131.61 126.23L131.76 126.929L132.738 126.719ZM157.305 90.2203L158.295 90.363L158.295 90.3629L157.305 90.2203ZM126.379 35.1789L125.958 36.0856L125.958 36.0858L126.379 35.1789ZM105.778 30.1561L105.723 31.1546L105.723 31.1546L105.778 30.1561ZM75.1554 54.2867L74.1876 54.5384L75.1554 54.2867ZM77.9293 78.5109L78.9191 78.6537L78.9191 78.6536L77.9293 78.5109ZM88.9753 131.467C84.4597 130.034 81.3157 127.985 79.156 125.448C76.9962 122.911 75.7605 119.815 75.1794 116.19C74.0062 108.87 75.5244 99.6235 77.29 88.9529L75.3169 88.6264C73.5711 99.1772 71.9682 108.793 73.2046 116.507C73.8284 120.399 75.1802 123.863 77.6331 126.744C80.0862 129.626 83.5802 131.853 88.3704 133.373L88.9753 131.467ZM87.049 144.728L89.6505 132.63L87.6952 132.21L85.0937 144.307L87.049 144.728ZM87.0714 144.523V144.517H85.0714V144.523H87.0714ZM86.0701 146.074C86.5729 145.783 86.9178 145.295 87.0451 144.75L85.0976 144.295C85.0944 144.308 85.0887 144.32 85.0823 144.329C85.0759 144.338 85.0707 144.341 85.0692 144.342L86.0701 146.074ZM79.7114 149.732L86.0683 146.075L85.071 144.341L78.7141 147.998L79.7114 149.732ZM79.7248 149.822C79.7056 149.822 79.6997 149.819 79.7024 149.82C79.7047 149.821 79.7076 149.823 79.7092 149.824C79.7109 149.825 79.7 149.816 79.6933 149.79C79.6867 149.765 79.6909 149.749 79.6918 149.746C79.692 149.746 79.6919 149.746 79.6917 149.747C79.6914 149.747 79.6912 149.747 79.6915 149.747C79.6917 149.747 79.693 149.745 79.6961 149.743C79.6991 149.74 79.7049 149.736 79.7142 149.73L78.7113 148C76.936 149.029 77.6078 151.822 79.7248 151.822V149.822ZM97.6731 149.822H79.7248V151.822H97.6731V149.822ZM97.7072 149.793C97.7025 149.805 97.6957 149.812 97.6895 149.817C97.6835 149.821 97.6785 149.822 97.6731 149.822V151.822C98.524 151.822 99.2726 151.293 99.5735 150.512L97.7072 149.793ZM103.006 134.283L97.694 149.829L99.5866 150.476L104.898 134.93L103.006 134.283ZM117.834 131.877C113.388 133.02 108.73 133.619 103.955 133.606L103.95 135.606C108.895 135.619 113.722 134.999 118.332 133.814L117.834 131.877ZM117.137 133.169L123.05 150.476L124.943 149.829L119.029 132.522L117.137 133.169ZM123.063 150.512C123.364 151.293 124.113 151.822 124.964 151.822V149.822C124.958 149.822 124.953 149.821 124.947 149.817C124.941 149.812 124.934 149.805 124.93 149.793L123.063 150.512ZM124.964 151.822H142.912V149.822H124.964V151.822ZM142.912 151.822C145.029 151.822 145.701 149.029 143.926 148L142.923 149.73C142.932 149.736 142.938 149.74 142.941 149.743C142.944 149.745 142.945 149.747 142.945 149.747C142.946 149.747 142.945 149.747 142.945 149.747C142.945 149.746 142.945 149.746 142.945 149.746C142.946 149.749 142.95 149.765 142.943 149.79C142.937 149.816 142.926 149.825 142.928 149.824C142.929 149.823 142.932 149.821 142.934 149.82C142.937 149.819 142.931 149.822 142.912 149.822V151.822ZM143.923 147.998L137.566 144.341L136.568 146.075L142.925 149.732L143.923 147.998ZM137.568 144.342C137.566 144.341 137.561 144.338 137.555 144.329C137.548 144.32 137.542 144.308 137.539 144.295L135.592 144.75C135.719 145.295 136.064 145.783 136.567 146.074L137.568 144.342ZM137.565 144.523V144.517H135.565V144.523H137.565ZM137.543 144.307L133.716 126.509L131.76 126.929L135.588 144.728L137.543 144.307ZM156.315 90.0775C154.095 105.475 144.924 118.22 132.222 125.862L133.253 127.576C146.432 119.647 155.982 106.397 158.295 90.363L156.315 90.0775ZM125.958 36.0858C146.697 45.7213 159.594 67.3273 156.315 90.0777L158.295 90.3629C161.71 66.6629 148.269 44.2463 126.801 34.272L125.958 36.0858ZM105.723 31.1546C112.725 31.5407 119.629 33.1411 125.958 36.0856L126.801 34.2722C120.22 31.2103 113.064 29.5564 105.833 29.1576L105.723 31.1546ZM76.1232 54.035C75.0927 50.0722 74.1829 46.5608 73.9456 43.5062C73.7097 40.4697 74.1539 38.0515 75.6715 36.1709C77.2023 34.2738 79.9732 32.7389 84.8104 31.824C89.6398 30.9105 96.3961 30.6402 105.723 31.1546L105.833 29.1576C96.4419 28.6397 89.5001 28.9015 84.4387 29.8589C79.3849 30.8147 76.0722 32.4894 74.115 34.9149C72.1445 37.3569 71.6962 40.3744 71.9516 43.6611C72.2056 46.9296 73.1709 50.6288 74.1876 54.5384L76.1232 54.035ZM78.9191 78.6536C80.2098 69.7031 77.9885 61.2077 76.1232 54.035L74.1876 54.5384C76.0661 61.762 78.1642 69.876 76.9396 78.3682L78.9191 78.6536ZM77.29 88.9529C77.8389 85.6359 78.4087 82.1921 78.9191 78.6537L76.9396 78.3682C76.4326 81.8829 75.8662 85.3065 75.3169 88.6264L77.29 88.9529Z" fill="black" mask="url(#path-33-inside-1_795_12603)"/>
<path d="M113.224 96.2993V100.364C113.224 102.04 114.582 103.399 116.259 103.399V103.399C117.935 103.399 119.294 102.04 119.294 100.364V96.2993" stroke="black"/>
<path d="M131.696 101.961C131.728 101.686 131.976 101.489 132.25 101.521C132.524 101.552 132.721 101.8 132.689 102.075L131.696 101.961ZM132.689 102.075C132.528 103.475 131.316 106.412 127.776 107.256L127.545 106.283C130.559 105.564 131.567 103.077 131.696 101.961L132.689 102.075ZM127.776 107.256C127.769 107.258 127.763 107.259 127.756 107.261C127.75 107.262 127.743 107.264 127.737 107.265C127.73 107.267 127.724 107.268 127.718 107.27C127.711 107.271 127.705 107.273 127.698 107.274C127.692 107.276 127.685 107.278 127.678 107.279C127.672 107.281 127.665 107.282 127.659 107.284C127.652 107.285 127.646 107.287 127.639 107.289C127.632 107.29 127.626 107.292 127.619 107.293C127.612 107.295 127.606 107.296 127.599 107.298C127.593 107.3 127.586 107.301 127.579 107.303C127.572 107.304 127.566 107.306 127.559 107.308C127.552 107.309 127.546 107.311 127.539 107.312C127.532 107.314 127.525 107.316 127.519 107.317C127.512 107.319 127.505 107.32 127.498 107.322C127.491 107.324 127.485 107.325 127.478 107.327C127.471 107.329 127.464 107.33 127.457 107.332C127.45 107.333 127.444 107.335 127.437 107.337C127.43 107.338 127.423 107.34 127.416 107.342C127.409 107.343 127.402 107.345 127.395 107.347C127.388 107.348 127.381 107.35 127.374 107.352C127.367 107.353 127.36 107.355 127.353 107.357C127.346 107.358 127.339 107.36 127.332 107.362C127.325 107.363 127.318 107.365 127.311 107.367C127.304 107.368 127.297 107.37 127.29 107.372C127.283 107.373 127.276 107.375 127.269 107.377C127.262 107.378 127.255 107.38 127.248 107.382C127.24 107.384 127.233 107.385 127.226 107.387C127.219 107.389 127.212 107.39 127.205 107.392C127.197 107.394 127.19 107.396 127.183 107.397C127.176 107.399 127.169 107.401 127.161 107.402C127.154 107.404 127.147 107.406 127.14 107.408C127.132 107.409 127.125 107.411 127.118 107.413C127.111 107.414 127.103 107.416 127.096 107.418C127.089 107.42 127.081 107.421 127.074 107.423C127.067 107.425 127.059 107.427 127.052 107.428C127.045 107.43 127.037 107.432 127.03 107.434C127.023 107.435 127.015 107.437 127.008 107.439C127 107.441 126.993 107.443 126.986 107.444C126.978 107.446 126.971 107.448 126.963 107.45C126.956 107.451 126.948 107.453 126.941 107.455C126.933 107.457 126.926 107.459 126.918 107.46C126.911 107.462 126.903 107.464 126.896 107.466C126.888 107.468 126.881 107.469 126.873 107.471C126.866 107.473 126.858 107.475 126.85 107.477C126.843 107.478 126.835 107.48 126.828 107.482C126.82 107.484 126.812 107.486 126.805 107.487C126.797 107.489 126.79 107.491 126.782 107.493C126.774 107.495 126.767 107.497 126.759 107.498C126.751 107.5 126.744 107.502 126.736 107.504C126.728 107.506 126.72 107.508 126.713 107.509C126.705 107.511 126.697 107.513 126.689 107.515C126.682 107.517 126.674 107.519 126.666 107.52C126.658 107.522 126.651 107.524 126.643 107.526C126.635 107.528 126.627 107.53 126.619 107.532C126.612 107.533 126.604 107.535 126.596 107.537C126.588 107.539 126.58 107.541 126.572 107.543C126.565 107.545 126.557 107.547 126.549 107.548C126.541 107.55 126.533 107.552 126.525 107.554C126.517 107.556 126.509 107.558 126.501 107.56C126.493 107.562 126.486 107.564 126.478 107.565C126.47 107.567 126.462 107.569 126.454 107.571C126.446 107.573 126.438 107.575 126.43 107.577C126.422 107.579 126.414 107.581 126.406 107.583C126.398 107.584 126.39 107.586 126.382 107.588C126.374 107.59 126.366 107.592 126.357 107.594C126.349 107.596 126.341 107.598 126.333 107.6C126.325 107.602 126.317 107.604 126.309 107.606C126.301 107.608 126.293 107.609 126.285 107.611C126.277 107.613 126.268 107.615 126.26 107.617C126.252 107.619 126.244 107.621 126.236 107.623C126.228 107.625 126.219 107.627 126.211 107.629C126.203 107.631 126.195 107.633 126.187 107.635C126.178 107.637 126.17 107.639 126.162 107.641C126.154 107.643 126.145 107.645 126.137 107.647C126.129 107.649 126.121 107.65 126.112 107.652C126.104 107.654 126.096 107.656 126.088 107.658C126.079 107.66 126.071 107.662 126.063 107.664C126.054 107.666 126.046 107.668 126.038 107.67C126.029 107.672 126.021 107.674 126.013 107.676C126.004 107.678 125.996 107.68 125.988 107.682C125.979 107.684 125.971 107.686 125.962 107.688C125.954 107.69 125.946 107.692 125.937 107.694C125.929 107.696 125.92 107.698 125.912 107.7C125.904 107.702 125.895 107.704 125.887 107.706C125.878 107.708 125.87 107.71 125.861 107.712C125.853 107.714 125.844 107.716 125.836 107.718C125.827 107.72 125.819 107.722 125.81 107.725C125.802 107.727 125.793 107.729 125.785 107.731C125.776 107.733 125.768 107.735 125.759 107.737C125.751 107.739 125.742 107.741 125.733 107.743C125.725 107.745 125.716 107.747 125.708 107.749C125.699 107.751 125.69 107.753 125.682 107.755C125.673 107.757 125.665 107.759 125.656 107.761C125.647 107.763 125.639 107.765 125.63 107.767C125.621 107.77 125.613 107.772 125.604 107.774C125.595 107.776 125.587 107.778 125.578 107.78C125.569 107.782 125.561 107.784 125.552 107.786C125.543 107.788 125.535 107.79 125.526 107.792C125.517 107.794 125.509 107.796 125.5 107.799C125.491 107.801 125.482 107.803 125.474 107.805C125.465 107.807 125.456 107.809 125.447 107.811C125.439 107.813 125.43 107.815 125.421 107.817C125.412 107.819 125.403 107.822 125.395 107.824C125.386 107.826 125.377 107.828 125.368 107.83C125.359 107.832 125.35 107.834 125.342 107.836C125.333 107.838 125.324 107.84 125.315 107.843C125.306 107.845 125.297 107.847 125.288 107.849C125.28 107.851 125.271 107.853 125.262 107.855C125.253 107.857 125.244 107.859 125.235 107.862C125.226 107.864 125.217 107.866 125.208 107.868C125.199 107.87 125.191 107.872 125.182 107.874C125.173 107.876 125.164 107.879 125.155 107.881C125.146 107.883 125.137 107.885 125.128 107.887C125.119 107.889 125.11 107.891 125.101 107.894C125.092 107.896 125.083 107.898 125.074 107.9C125.065 107.902 125.056 107.904 125.047 107.906C125.038 107.909 125.029 107.911 125.02 107.913C125.011 107.915 125.002 107.917 124.993 107.919C124.984 107.922 124.975 107.924 124.966 107.926C124.956 107.928 124.947 107.93 124.938 107.932C124.929 107.935 124.92 107.937 124.911 107.939C124.902 107.941 124.893 107.943 124.884 107.945C124.875 107.948 124.865 107.95 124.856 107.952C124.847 107.954 124.838 107.956 124.829 107.958C124.82 107.961 124.811 107.963 124.802 107.965C124.792 107.967 124.783 107.969 124.774 107.972C124.765 107.974 124.756 107.976 124.746 107.978C124.737 107.98 124.728 107.982 124.719 107.985C124.71 107.987 124.7 107.989 124.691 107.991C124.682 107.993 124.673 107.996 124.664 107.998C124.654 108 124.645 108.002 124.636 108.004C124.627 108.007 124.617 108.009 124.608 108.011C124.599 108.013 124.59 108.016 124.58 108.018C124.571 108.02 124.562 108.022 124.553 108.024C124.543 108.027 124.534 108.029 124.525 108.031C124.515 108.033 124.506 108.035 124.497 108.038C124.487 108.04 124.478 108.042 124.469 108.044C124.459 108.047 124.45 108.049 124.441 108.051C124.431 108.053 124.422 108.055 124.413 108.058C124.403 108.06 124.394 108.062 124.385 108.064C124.375 108.067 124.366 108.069 124.357 108.071C124.347 108.073 124.338 108.076 124.328 108.078C124.319 108.08 124.31 108.082 124.3 108.085C124.291 108.087 124.281 108.089 124.272 108.091C124.263 108.093 124.253 108.096 124.244 108.098C124.234 108.1 124.225 108.102 124.215 108.105C124.206 108.107 124.196 108.109 124.187 108.111C124.178 108.114 124.168 108.116 124.159 108.118C124.149 108.121 124.14 108.123 124.13 108.125C124.121 108.127 124.111 108.13 124.102 108.132C124.092 108.134 124.083 108.136 124.073 108.139C124.064 108.141 124.054 108.143 124.045 108.145C124.035 108.148 124.026 108.15 124.016 108.152C124.007 108.154 123.997 108.157 123.988 108.159C123.978 108.161 123.969 108.164 123.959 108.166C123.949 108.168 123.94 108.17 123.93 108.173C123.921 108.175 123.911 108.177 123.902 108.18C123.892 108.182 123.882 108.184 123.873 108.186C123.863 108.189 123.854 108.191 123.844 108.193C123.835 108.196 123.825 108.198 123.815 108.2C123.806 108.202 123.796 108.205 123.787 108.207C123.777 108.209 123.767 108.212 123.758 108.214C123.748 108.216 123.738 108.218 123.729 108.221C123.719 108.223 123.709 108.225 123.7 108.228C123.69 108.23 123.681 108.232 123.671 108.235C123.661 108.237 123.652 108.239 123.642 108.241C123.632 108.244 123.623 108.246 123.613 108.248C123.603 108.251 123.594 108.253 123.584 108.255C123.574 108.258 123.564 108.26 123.555 108.262C123.545 108.265 123.535 108.267 123.526 108.269C123.516 108.271 123.506 108.274 123.497 108.276C123.487 108.278 123.477 108.281 123.467 108.283C123.458 108.285 123.448 108.288 123.438 108.29C123.429 108.292 123.419 108.295 123.409 108.297C123.399 108.299 123.39 108.302 123.38 108.304C123.37 108.306 123.36 108.309 123.351 108.311C123.341 108.313 123.331 108.316 123.321 108.318C123.311 108.32 123.302 108.323 123.292 108.325C123.282 108.327 123.272 108.33 123.263 108.332C123.253 108.334 123.243 108.337 123.233 108.339C123.223 108.341 123.214 108.344 123.204 108.346C123.194 108.348 123.184 108.351 123.174 108.353C123.165 108.355 123.155 108.358 123.145 108.36C123.135 108.362 123.125 108.365 123.115 108.367C123.106 108.369 123.096 108.372 123.086 108.374C123.076 108.376 123.066 108.379 123.056 108.381C123.047 108.383 123.037 108.386 123.027 108.388C123.017 108.39 123.007 108.393 122.997 108.395C122.988 108.397 122.978 108.4 122.968 108.402C122.958 108.404 122.948 108.407 122.938 108.409C122.928 108.412 122.918 108.414 122.909 108.416C122.899 108.419 122.889 108.421 122.879 108.423C122.869 108.426 122.859 108.428 122.849 108.43C122.839 108.433 122.829 108.435 122.82 108.437C122.81 108.44 122.8 108.442 122.79 108.445C122.78 108.447 122.77 108.449 122.76 108.452C122.75 108.454 122.74 108.456 122.73 108.459C122.72 108.461 122.711 108.463 122.701 108.466C122.691 108.468 122.681 108.471 122.671 108.473C122.661 108.475 122.651 108.478 122.641 108.48C122.631 108.482 122.621 108.485 122.611 108.487C122.601 108.49 122.591 108.492 122.581 108.494C122.571 108.497 122.561 108.499 122.551 108.501C122.542 108.504 122.532 108.506 122.522 108.509C122.512 108.511 122.502 108.513 122.492 108.516C122.482 108.518 122.472 108.52 122.462 108.523C122.452 108.525 122.442 108.528 122.432 108.53C122.422 108.532 122.412 108.535 122.402 108.537C122.392 108.539 122.382 108.542 122.372 108.544C122.362 108.547 122.352 108.549 122.342 108.551C122.332 108.554 122.322 108.556 122.312 108.558C122.302 108.561 122.292 108.563 122.282 108.566C122.272 108.568 122.262 108.57 122.252 108.573C122.242 108.575 122.232 108.578 122.222 108.58C122.212 108.582 122.202 108.585 122.192 108.587C122.182 108.589 122.172 108.592 122.162 108.594C122.152 108.597 122.142 108.599 122.132 108.601C122.122 108.604 122.112 108.606 122.102 108.609C122.092 108.611 122.082 108.613 122.072 108.616C122.062 108.618 122.052 108.621 122.042 108.623C122.032 108.625 122.022 108.628 122.011 108.63C122.001 108.633 121.991 108.635 121.981 108.637C121.971 108.64 121.961 108.642 121.951 108.644C121.941 108.647 121.931 108.649 121.921 108.652C121.911 108.654 121.901 108.656 121.891 108.659C121.881 108.661 121.871 108.664 121.861 108.666C121.851 108.668 121.841 108.671 121.831 108.673C121.821 108.676 121.81 108.678 121.8 108.68C121.79 108.683 121.78 108.685 121.77 108.688C121.76 108.69 121.75 108.692 121.74 108.695C121.73 108.697 121.72 108.7 121.71 108.702C121.7 108.704 121.69 108.707 121.68 108.709C121.67 108.712 121.659 108.714 121.649 108.716C121.639 108.719 121.629 108.721 121.619 108.724C121.609 108.726 121.599 108.728 121.589 108.731C121.579 108.733 121.569 108.736 121.559 108.738C121.549 108.74 121.539 108.743 121.528 108.745C121.518 108.748 121.508 108.75 121.498 108.752C121.488 108.755 121.478 108.757 121.468 108.76C121.458 108.762 121.448 108.765 121.438 108.767C121.428 108.769 121.418 108.772 121.407 108.774C121.397 108.777 121.387 108.779 121.377 108.781C121.367 108.784 121.357 108.786 121.347 108.789C121.337 108.791 121.327 108.793 121.317 108.796C121.307 108.798 121.296 108.801 121.286 108.803C121.276 108.805 121.266 108.808 121.256 108.81C121.246 108.813 121.236 108.815 121.226 108.817C121.216 108.82 121.206 108.822 121.196 108.825C121.185 108.827 121.175 108.829 121.165 108.832C121.155 108.834 121.145 108.837 121.135 108.839C121.125 108.842 121.115 108.844 121.105 108.846C121.095 108.849 121.084 108.851 121.074 108.854C121.064 108.856 121.054 108.858 121.044 108.861C121.034 108.863 121.024 108.866 121.014 108.868C121.004 108.87 120.994 108.873 120.984 108.875C120.973 108.878 120.963 108.88 120.953 108.882C120.943 108.885 120.933 108.887 120.923 108.89C120.913 108.892 120.903 108.894 120.893 108.897C120.883 108.899 120.873 108.902 120.862 108.904C120.852 108.906 120.842 108.909 120.832 108.911C120.822 108.914 120.812 108.916 120.802 108.919C120.792 108.921 120.782 108.923 120.772 108.926C120.762 108.928 120.751 108.931 120.741 108.933C120.731 108.935 120.721 108.938 120.711 108.94C120.701 108.943 120.691 108.945 120.681 108.947C120.671 108.95 120.661 108.952 120.651 108.955C120.641 108.957 120.63 108.959 120.62 108.962C120.61 108.964 120.6 108.967 120.59 108.969C120.58 108.971 120.57 108.974 120.56 108.976C120.55 108.979 120.54 108.981 120.53 108.983C120.52 108.986 120.509 108.988 120.499 108.991C120.489 108.993 120.479 108.995 120.469 108.998C120.459 109 120.449 109.003 120.439 109.005C120.429 109.007 120.419 109.01 120.409 109.012C120.399 109.015 120.389 109.017 120.379 109.019C120.369 109.022 120.358 109.024 120.348 109.027C120.338 109.029 120.328 109.031 120.318 109.034C120.308 109.036 120.298 109.039 120.288 109.041C120.278 109.043 120.268 109.046 120.258 109.048C120.248 109.051 120.238 109.053 120.228 109.055C120.218 109.058 120.208 109.06 120.198 109.063C120.188 109.065 120.178 109.067 120.167 109.07C120.157 109.072 120.147 109.075 120.137 109.077C120.127 109.079 120.117 109.082 120.107 109.084C120.097 109.086 120.087 109.089 120.077 109.091C120.067 109.094 120.057 109.096 120.047 109.098C120.037 109.101 120.027 109.103 120.017 109.106C120.007 109.108 119.997 109.11 119.987 109.113C119.977 109.115 119.967 109.118 119.957 109.12C119.947 109.122 119.937 109.125 119.927 109.127C119.917 109.129 119.907 109.132 119.897 109.134C119.887 109.137 119.877 109.139 119.867 109.141C119.857 109.144 119.847 109.146 119.837 109.149C119.827 109.151 119.817 109.153 119.807 109.156C119.797 109.158 119.787 109.16 119.777 109.163C119.767 109.165 119.757 109.168 119.747 109.17C119.737 109.172 119.727 109.175 119.717 109.177C119.707 109.18 119.697 109.182 119.687 109.184C119.677 109.187 119.667 109.189 119.657 109.191C119.647 109.194 119.637 109.196 119.627 109.199C119.617 109.201 119.607 109.203 119.597 109.206C119.587 109.208 119.577 109.21 119.568 109.213C119.558 109.215 119.548 109.218 119.538 109.22C119.528 109.222 119.518 109.225 119.508 109.227C119.498 109.229 119.488 109.232 119.478 109.234C119.468 109.236 119.458 109.239 119.448 109.241C119.438 109.244 119.428 109.246 119.419 109.248C119.409 109.251 119.399 109.253 119.389 109.255C119.379 109.258 119.369 109.26 119.359 109.262C119.349 109.265 119.339 109.267 119.329 109.27C119.319 109.272 119.31 109.274 119.3 109.277C119.29 109.279 119.28 109.281 119.27 109.284C119.26 109.286 119.25 109.288 119.24 109.291C119.231 109.293 119.221 109.295 119.211 109.298C119.201 109.3 119.191 109.303 119.181 109.305C119.171 109.307 119.161 109.31 119.152 109.312C119.142 109.314 119.132 109.317 119.122 109.319C119.112 109.321 119.102 109.324 119.093 109.326C119.083 109.328 119.073 109.331 119.063 109.333C119.053 109.335 119.043 109.338 119.034 109.34C119.024 109.342 119.014 109.345 119.004 109.347C118.994 109.349 118.984 109.352 118.975 109.354C118.965 109.356 118.955 109.359 118.945 109.361C118.935 109.363 118.926 109.366 118.916 109.368C118.906 109.37 118.896 109.373 118.886 109.375C118.877 109.377 118.867 109.38 118.857 109.382C118.847 109.384 118.838 109.387 118.828 109.389C118.818 109.391 118.808 109.394 118.799 109.396C118.789 109.398 118.779 109.401 118.769 109.403C118.76 109.405 118.75 109.408 118.74 109.41C118.73 109.412 118.721 109.415 118.711 109.417C118.701 109.419 118.691 109.422 118.682 109.424C118.672 109.426 118.662 109.429 118.653 109.431C118.643 109.433 118.633 109.436 118.623 109.438C118.614 109.44 118.604 109.442 118.594 109.445C118.585 109.447 118.575 109.449 118.565 109.452C118.556 109.454 118.546 109.456 118.536 109.459C118.527 109.461 118.517 109.463 118.507 109.466C118.498 109.468 118.488 109.47 118.478 109.472C118.469 109.475 118.459 109.477 118.449 109.479C118.44 109.482 118.43 109.484 118.42 109.486C118.411 109.489 118.401 109.491 118.391 109.493C118.382 109.495 118.372 109.498 118.363 109.5C118.353 109.502 118.343 109.505 118.334 109.507C118.324 109.509 118.315 109.511 118.305 109.514C118.295 109.516 118.286 109.518 118.276 109.521C118.267 109.523 118.257 109.525 118.248 109.527C118.238 109.53 118.228 109.532 118.219 109.534C118.209 109.537 118.2 109.539 118.19 109.541C118.181 109.543 118.171 109.546 118.162 109.548C118.152 109.55 118.143 109.552 118.133 109.555C118.124 109.557 118.114 109.559 118.104 109.562C118.095 109.564 118.085 109.566 118.076 109.568C118.066 109.571 118.057 109.573 118.047 109.575C118.038 109.577 118.029 109.58 118.019 109.582C118.01 109.584 118 109.586 117.991 109.589C117.981 109.591 117.972 109.593 117.962 109.595C117.953 109.598 117.943 109.6 117.934 109.602C117.924 109.604 117.915 109.607 117.906 109.609C117.896 109.611 117.887 109.613 117.877 109.616C117.868 109.618 117.859 109.62 117.849 109.622C117.84 109.625 117.83 109.627 117.821 109.629C117.812 109.631 117.802 109.634 117.793 109.636C117.783 109.638 117.774 109.64 117.765 109.643C117.755 109.645 117.746 109.647 117.737 109.649C117.727 109.651 117.718 109.654 117.709 109.656C117.699 109.658 117.69 109.66 117.681 109.663C117.671 109.665 117.662 109.667 117.653 109.669C117.643 109.671 117.634 109.674 117.625 109.676C117.615 109.678 117.606 109.68 117.597 109.683C117.588 109.685 117.578 109.687 117.569 109.689C117.56 109.691 117.551 109.694 117.541 109.696C117.532 109.698 117.523 109.7 117.514 109.702C117.504 109.705 117.495 109.707 117.486 109.709C117.477 109.711 117.467 109.713 117.458 109.716C117.449 109.718 117.44 109.72 117.431 109.722C117.421 109.724 117.412 109.727 117.403 109.729C117.394 109.731 117.385 109.733 117.375 109.735C117.366 109.738 117.357 109.74 117.348 109.742C117.339 109.744 117.33 109.746 117.321 109.748C117.311 109.751 117.302 109.753 117.293 109.755C117.284 109.757 117.275 109.759 117.266 109.762C117.257 109.764 117.248 109.766 117.239 109.768C117.229 109.77 117.22 109.772 117.211 109.775C117.202 109.777 117.193 109.779 117.184 109.781C117.175 109.783 117.166 109.785 117.157 109.787C117.148 109.79 117.139 109.792 117.13 109.794C117.121 109.796 117.112 109.798 117.103 109.8C117.094 109.803 117.085 109.805 117.076 109.807C117.067 109.809 117.058 109.811 117.049 109.813C117.04 109.815 117.031 109.818 117.022 109.82C117.013 109.822 117.004 109.824 116.995 109.826C116.986 109.828 116.977 109.83 116.968 109.832C116.959 109.835 116.95 109.837 116.941 109.839C116.932 109.841 116.923 109.843 116.915 109.845C116.906 109.847 116.897 109.849 116.888 109.852C116.879 109.854 116.87 109.856 116.861 109.858C116.852 109.86 116.844 109.862 116.835 109.864C116.826 109.866 116.817 109.869 116.808 109.871C116.799 109.873 116.79 109.875 116.782 109.877C116.773 109.879 116.764 109.881 116.755 109.883C116.746 109.885 116.738 109.887 116.729 109.89C116.72 109.892 116.711 109.894 116.703 109.896C116.694 109.898 116.685 109.9 116.676 109.902C116.668 109.904 116.659 109.906 116.65 109.908C116.641 109.91 116.633 109.912 116.624 109.915C116.615 109.917 116.606 109.919 116.598 109.921C116.589 109.923 116.58 109.925 116.572 109.927C116.563 109.929 116.554 109.931 116.546 109.933C116.537 109.935 116.528 109.937 116.52 109.939C116.511 109.941 116.503 109.943 116.494 109.946C116.485 109.948 116.477 109.95 116.468 109.952C116.459 109.954 116.451 109.956 116.442 109.958C116.434 109.96 116.425 109.962 116.417 109.964C116.408 109.966 116.399 109.968 116.391 109.97C116.382 109.972 116.374 109.974 116.365 109.976C116.357 109.978 116.348 109.98 116.34 109.982C116.331 109.984 116.323 109.986 116.314 109.988C116.306 109.99 116.297 109.992 116.289 109.994C116.28 109.996 116.272 109.998 116.263 110C116.255 110.002 116.247 110.004 116.238 110.007C116.23 110.009 116.221 110.011 116.213 110.013C116.204 110.015 116.196 110.017 116.188 110.019C116.179 110.021 116.171 110.023 116.163 110.025C116.154 110.027 116.146 110.029 116.137 110.031C116.129 110.032 116.121 110.034 116.112 110.036C116.104 110.038 116.096 110.04 116.087 110.042C116.079 110.044 116.071 110.046 116.063 110.048C116.054 110.05 116.046 110.052 116.038 110.054C116.03 110.056 116.021 110.058 116.013 110.06C116.005 110.062 115.997 110.064 115.988 110.066C115.98 110.068 115.972 110.07 115.964 110.072C115.955 110.074 115.947 110.076 115.939 110.078C115.931 110.08 115.923 110.082 115.915 110.084C115.906 110.086 115.898 110.088 115.89 110.089C115.882 110.091 115.874 110.093 115.866 110.095C115.858 110.097 115.849 110.099 115.841 110.101C115.833 110.103 115.825 110.105 115.817 110.107C115.809 110.109 115.801 110.111 115.793 110.113C115.785 110.115 115.777 110.116 115.769 110.118C115.761 110.12 115.753 110.122 115.745 110.124C115.737 110.126 115.729 110.128 115.721 110.13C115.713 110.132 115.705 110.134 115.697 110.136C115.689 110.137 115.681 110.139 115.673 110.141C115.665 110.143 115.657 110.145 115.649 110.147C115.641 110.149 115.633 110.151 115.625 110.153C115.617 110.154 115.61 110.156 115.602 110.158C115.594 110.16 115.586 110.162 115.578 110.164C115.57 110.166 115.562 110.168 115.555 110.169C115.547 110.171 115.539 110.173 115.531 110.175C115.523 110.177 115.515 110.179 115.508 110.181C115.5 110.182 115.492 110.184 115.484 110.186C115.477 110.188 115.469 110.19 115.461 110.192C115.453 110.194 115.446 110.195 115.438 110.197C115.43 110.199 115.423 110.201 115.415 110.203C115.407 110.205 115.399 110.206 115.392 110.208C115.384 110.21 115.376 110.212 115.369 110.214C115.361 110.216 115.354 110.217 115.346 110.219C115.338 110.221 115.331 110.223 115.323 110.225C115.315 110.226 115.308 110.228 115.3 110.23C115.293 110.232 115.285 110.234 115.278 110.235C115.27 110.237 115.263 110.239 115.255 110.241C115.248 110.243 115.24 110.244 115.233 110.246C115.225 110.248 115.218 110.25 115.21 110.252C115.203 110.253 115.195 110.255 115.188 110.257C115.18 110.259 115.173 110.26 115.165 110.262C115.158 110.264 115.151 110.266 115.143 110.268C115.136 110.269 115.128 110.271 115.121 110.273C115.114 110.275 115.106 110.276 115.099 110.278C115.092 110.28 115.084 110.282 115.077 110.283C115.07 110.285 115.062 110.287 115.055 110.289C115.048 110.29 115.04 110.292 115.033 110.294C115.026 110.296 115.019 110.297 115.011 110.299C115.004 110.301 114.997 110.302 114.99 110.304C114.982 110.306 114.975 110.308 114.968 110.309C114.961 110.311 114.954 110.313 114.946 110.314C114.939 110.316 114.932 110.318 114.925 110.32C114.918 110.321 114.911 110.323 114.904 110.325C114.896 110.326 114.889 110.328 114.882 110.33C114.875 110.331 114.868 110.333 114.861 110.335C114.854 110.336 114.847 110.338 114.84 110.34C114.833 110.342 114.826 110.343 114.819 110.345C114.812 110.347 114.805 110.348 114.798 110.35C114.791 110.352 114.784 110.353 114.777 110.355C114.77 110.357 114.763 110.358 114.756 110.36C114.749 110.361 114.742 110.363 114.735 110.365C114.728 110.366 114.721 110.368 114.715 110.37C114.708 110.371 114.701 110.373 114.694 110.375C114.687 110.376 114.68 110.378 114.674 110.38C114.667 110.381 114.66 110.383 114.653 110.384C114.646 110.386 114.64 110.388 114.633 110.389C114.626 110.391 114.619 110.392 114.613 110.394C114.606 110.396 114.599 110.397 114.592 110.399C114.586 110.4 114.579 110.402 114.572 110.404C114.566 110.405 114.559 110.407 114.552 110.408C114.546 110.41 114.539 110.412 114.532 110.413C114.526 110.415 114.519 110.416 114.513 110.418C114.506 110.419 114.499 110.421 114.493 110.423C114.486 110.424 114.48 110.426 114.473 110.427C114.467 110.429 114.46 110.43 114.454 110.432C114.447 110.434 114.441 110.435 114.434 110.437C114.428 110.438 114.421 110.44 114.415 110.441C114.408 110.443 114.402 110.444 114.395 110.446C114.389 110.447 114.383 110.449 114.376 110.45C114.37 110.452 114.363 110.453 114.357 110.455C114.351 110.456 114.344 110.458 114.338 110.46C114.332 110.461 114.325 110.463 114.319 110.464C114.313 110.466 114.306 110.467 114.3 110.469C114.294 110.47 114.288 110.472 114.281 110.473C114.275 110.474 114.269 110.476 114.263 110.477C114.256 110.479 114.25 110.48 114.244 110.482C114.238 110.483 114.232 110.485 114.226 110.486L113.995 109.513C114.001 109.512 114.007 109.51 114.013 109.509C114.019 109.507 114.026 109.506 114.032 109.504C114.038 109.503 114.044 109.501 114.051 109.5C114.057 109.499 114.063 109.497 114.069 109.496C114.076 109.494 114.082 109.493 114.088 109.491C114.094 109.49 114.101 109.488 114.107 109.487C114.113 109.485 114.12 109.483 114.126 109.482C114.133 109.48 114.139 109.479 114.145 109.477C114.152 109.476 114.158 109.474 114.165 109.473C114.171 109.471 114.177 109.47 114.184 109.468C114.19 109.467 114.197 109.465 114.203 109.464C114.21 109.462 114.216 109.461 114.223 109.459C114.229 109.457 114.236 109.456 114.242 109.454C114.249 109.453 114.255 109.451 114.262 109.45C114.269 109.448 114.275 109.446 114.282 109.445C114.288 109.443 114.295 109.442 114.302 109.44C114.308 109.439 114.315 109.437 114.321 109.435C114.328 109.434 114.335 109.432 114.341 109.431C114.348 109.429 114.355 109.427 114.362 109.426C114.368 109.424 114.375 109.423 114.382 109.421C114.388 109.419 114.395 109.418 114.402 109.416C114.409 109.415 114.415 109.413 114.422 109.411C114.429 109.41 114.436 109.408 114.443 109.407C114.45 109.405 114.456 109.403 114.463 109.402C114.47 109.4 114.477 109.398 114.484 109.397C114.491 109.395 114.498 109.393 114.504 109.392C114.511 109.39 114.518 109.388 114.525 109.387C114.532 109.385 114.539 109.384 114.546 109.382C114.553 109.38 114.56 109.379 114.567 109.377C114.574 109.375 114.581 109.374 114.588 109.372C114.595 109.37 114.602 109.369 114.609 109.367C114.616 109.365 114.623 109.364 114.63 109.362C114.637 109.36 114.644 109.358 114.651 109.357C114.658 109.355 114.666 109.353 114.673 109.352C114.68 109.35 114.687 109.348 114.694 109.347C114.701 109.345 114.708 109.343 114.716 109.341C114.723 109.34 114.73 109.338 114.737 109.336C114.744 109.335 114.752 109.333 114.759 109.331C114.766 109.329 114.773 109.328 114.78 109.326C114.788 109.324 114.795 109.323 114.802 109.321C114.81 109.319 114.817 109.317 114.824 109.316C114.831 109.314 114.839 109.312 114.846 109.31C114.853 109.309 114.861 109.307 114.868 109.305C114.875 109.303 114.883 109.302 114.89 109.3C114.898 109.298 114.905 109.296 114.912 109.295C114.92 109.293 114.927 109.291 114.935 109.289C114.942 109.287 114.949 109.286 114.957 109.284C114.964 109.282 114.972 109.28 114.979 109.279C114.987 109.277 114.994 109.275 115.002 109.273C115.009 109.271 115.017 109.27 115.024 109.268C115.032 109.266 115.039 109.264 115.047 109.262C115.054 109.261 115.062 109.259 115.07 109.257C115.077 109.255 115.085 109.253 115.092 109.252C115.1 109.25 115.107 109.248 115.115 109.246C115.123 109.244 115.13 109.243 115.138 109.241C115.146 109.239 115.153 109.237 115.161 109.235C115.169 109.233 115.176 109.232 115.184 109.23C115.192 109.228 115.199 109.226 115.207 109.224C115.215 109.222 115.223 109.221 115.23 109.219C115.238 109.217 115.246 109.215 115.254 109.213C115.261 109.211 115.269 109.21 115.277 109.208C115.285 109.206 115.292 109.204 115.3 109.202C115.308 109.2 115.316 109.198 115.324 109.196C115.332 109.195 115.339 109.193 115.347 109.191C115.355 109.189 115.363 109.187 115.371 109.185C115.379 109.183 115.387 109.181 115.395 109.18C115.402 109.178 115.41 109.176 115.418 109.174C115.426 109.172 115.434 109.17 115.442 109.168C115.45 109.166 115.458 109.164 115.466 109.163C115.474 109.161 115.482 109.159 115.49 109.157C115.498 109.155 115.506 109.153 115.514 109.151C115.522 109.149 115.53 109.147 115.538 109.145C115.546 109.143 115.554 109.142 115.562 109.14C115.57 109.138 115.578 109.136 115.586 109.134C115.594 109.132 115.602 109.13 115.611 109.128C115.619 109.126 115.627 109.124 115.635 109.122C115.643 109.12 115.651 109.118 115.659 109.116C115.667 109.115 115.676 109.113 115.684 109.111C115.692 109.109 115.7 109.107 115.708 109.105C115.716 109.103 115.725 109.101 115.733 109.099C115.741 109.097 115.749 109.095 115.757 109.093C115.766 109.091 115.774 109.089 115.782 109.087C115.79 109.085 115.799 109.083 115.807 109.081C115.815 109.079 115.823 109.077 115.832 109.075C115.84 109.073 115.848 109.071 115.857 109.069C115.865 109.067 115.873 109.065 115.882 109.063C115.89 109.061 115.898 109.059 115.907 109.058C115.915 109.056 115.923 109.054 115.932 109.052C115.94 109.05 115.948 109.048 115.957 109.046C115.965 109.044 115.974 109.042 115.982 109.04C115.99 109.038 115.999 109.036 116.007 109.034C116.016 109.031 116.024 109.029 116.033 109.027C116.041 109.025 116.05 109.023 116.058 109.021C116.066 109.019 116.075 109.017 116.083 109.015C116.092 109.013 116.1 109.011 116.109 109.009C116.117 109.007 116.126 109.005 116.134 109.003C116.143 109.001 116.152 108.999 116.16 108.997C116.169 108.995 116.177 108.993 116.186 108.991C116.194 108.989 116.203 108.987 116.211 108.985C116.22 108.983 116.229 108.981 116.237 108.979C116.246 108.977 116.254 108.975 116.263 108.973C116.272 108.97 116.28 108.968 116.289 108.966C116.298 108.964 116.306 108.962 116.315 108.96C116.324 108.958 116.332 108.956 116.341 108.954C116.35 108.952 116.358 108.95 116.367 108.948C116.376 108.946 116.384 108.944 116.393 108.942C116.402 108.939 116.411 108.937 116.419 108.935C116.428 108.933 116.437 108.931 116.445 108.929C116.454 108.927 116.463 108.925 116.472 108.923C116.48 108.921 116.489 108.919 116.498 108.917C116.507 108.914 116.516 108.912 116.524 108.91C116.533 108.908 116.542 108.906 116.551 108.904C116.56 108.902 116.568 108.9 116.577 108.898C116.586 108.896 116.595 108.893 116.604 108.891C116.613 108.889 116.622 108.887 116.63 108.885C116.639 108.883 116.648 108.881 116.657 108.879C116.666 108.876 116.675 108.874 116.684 108.872C116.693 108.87 116.702 108.868 116.71 108.866C116.719 108.864 116.728 108.862 116.737 108.859C116.746 108.857 116.755 108.855 116.764 108.853C116.773 108.851 116.782 108.849 116.791 108.847C116.8 108.845 116.809 108.842 116.818 108.84C116.827 108.838 116.836 108.836 116.845 108.834C116.854 108.832 116.863 108.83 116.872 108.827C116.881 108.825 116.89 108.823 116.899 108.821C116.908 108.819 116.917 108.817 116.926 108.814C116.935 108.812 116.944 108.81 116.953 108.808C116.962 108.806 116.971 108.804 116.98 108.802C116.99 108.799 116.999 108.797 117.008 108.795C117.017 108.793 117.026 108.791 117.035 108.789C117.044 108.786 117.053 108.784 117.062 108.782C117.071 108.78 117.081 108.778 117.09 108.775C117.099 108.773 117.108 108.771 117.117 108.769C117.126 108.767 117.135 108.765 117.145 108.762C117.154 108.76 117.163 108.758 117.172 108.756C117.181 108.754 117.191 108.751 117.2 108.749C117.209 108.747 117.218 108.745 117.227 108.743C117.237 108.74 117.246 108.738 117.255 108.736C117.264 108.734 117.273 108.732 117.283 108.729C117.292 108.727 117.301 108.725 117.31 108.723C117.32 108.721 117.329 108.718 117.338 108.716C117.348 108.714 117.357 108.712 117.366 108.71C117.375 108.707 117.385 108.705 117.394 108.703C117.403 108.701 117.413 108.698 117.422 108.696C117.431 108.694 117.44 108.692 117.45 108.69C117.459 108.687 117.468 108.685 117.478 108.683C117.487 108.681 117.496 108.678 117.506 108.676C117.515 108.674 117.525 108.672 117.534 108.67C117.543 108.667 117.553 108.665 117.562 108.663C117.571 108.661 117.581 108.658 117.59 108.656C117.6 108.654 117.609 108.652 117.618 108.649C117.628 108.647 117.637 108.645 117.647 108.643C117.656 108.64 117.665 108.638 117.675 108.636C117.684 108.634 117.694 108.631 117.703 108.629C117.713 108.627 117.722 108.625 117.731 108.622C117.741 108.62 117.75 108.618 117.76 108.616C117.769 108.613 117.779 108.611 117.788 108.609C117.798 108.607 117.807 108.604 117.817 108.602C117.826 108.6 117.836 108.598 117.845 108.595C117.855 108.593 117.864 108.591 117.874 108.589C117.883 108.586 117.893 108.584 117.902 108.582C117.912 108.579 117.921 108.577 117.931 108.575C117.94 108.573 117.95 108.57 117.959 108.568C117.969 108.566 117.979 108.564 117.988 108.561C117.998 108.559 118.007 108.557 118.017 108.554C118.026 108.552 118.036 108.55 118.045 108.548C118.055 108.545 118.065 108.543 118.074 108.541C118.084 108.538 118.093 108.536 118.103 108.534C118.113 108.532 118.122 108.529 118.132 108.527C118.141 108.525 118.151 108.522 118.161 108.52C118.17 108.518 118.18 108.516 118.19 108.513C118.199 108.511 118.209 108.509 118.218 108.506C118.228 108.504 118.238 108.502 118.247 108.499C118.257 108.497 118.267 108.495 118.276 108.493C118.286 108.49 118.296 108.488 118.305 108.486C118.315 108.483 118.325 108.481 118.334 108.479C118.344 108.476 118.354 108.474 118.363 108.472C118.373 108.469 118.383 108.467 118.393 108.465C118.402 108.463 118.412 108.46 118.422 108.458C118.431 108.456 118.441 108.453 118.451 108.451C118.461 108.449 118.47 108.446 118.48 108.444C118.49 108.442 118.499 108.439 118.509 108.437C118.519 108.435 118.529 108.432 118.538 108.43C118.548 108.428 118.558 108.425 118.568 108.423C118.577 108.421 118.587 108.418 118.597 108.416C118.607 108.414 118.617 108.411 118.626 108.409C118.636 108.407 118.646 108.404 118.656 108.402C118.665 108.4 118.675 108.397 118.685 108.395C118.695 108.393 118.705 108.39 118.714 108.388C118.724 108.386 118.734 108.383 118.744 108.381C118.754 108.379 118.763 108.376 118.773 108.374C118.783 108.372 118.793 108.369 118.803 108.367C118.813 108.365 118.822 108.362 118.832 108.36C118.842 108.358 118.852 108.355 118.862 108.353C118.872 108.351 118.881 108.348 118.891 108.346C118.901 108.344 118.911 108.341 118.921 108.339C118.931 108.337 118.94 108.334 118.95 108.332C118.96 108.33 118.97 108.327 118.98 108.325C118.99 108.322 119 108.32 119.01 108.318C119.019 108.315 119.029 108.313 119.039 108.311C119.049 108.308 119.059 108.306 119.069 108.304C119.079 108.301 119.089 108.299 119.099 108.297C119.108 108.294 119.118 108.292 119.128 108.289C119.138 108.287 119.148 108.285 119.158 108.282C119.168 108.28 119.178 108.278 119.188 108.275C119.198 108.273 119.208 108.271 119.217 108.268C119.227 108.266 119.237 108.263 119.247 108.261C119.257 108.259 119.267 108.256 119.277 108.254C119.287 108.252 119.297 108.249 119.307 108.247C119.317 108.245 119.327 108.242 119.337 108.24C119.347 108.237 119.357 108.235 119.367 108.233C119.377 108.23 119.386 108.228 119.396 108.226C119.406 108.223 119.416 108.221 119.426 108.218C119.436 108.216 119.446 108.214 119.456 108.211C119.466 108.209 119.476 108.207 119.486 108.204C119.496 108.202 119.506 108.199 119.516 108.197C119.526 108.195 119.536 108.192 119.546 108.19C119.556 108.187 119.566 108.185 119.576 108.183C119.586 108.18 119.596 108.178 119.606 108.176C119.616 108.173 119.626 108.171 119.636 108.168C119.646 108.166 119.656 108.164 119.666 108.161C119.676 108.159 119.686 108.157 119.696 108.154C119.706 108.152 119.716 108.149 119.726 108.147C119.736 108.145 119.746 108.142 119.756 108.14C119.766 108.137 119.776 108.135 119.786 108.133C119.796 108.13 119.806 108.128 119.816 108.125C119.826 108.123 119.836 108.121 119.846 108.118C119.856 108.116 119.866 108.114 119.876 108.111C119.886 108.109 119.896 108.106 119.907 108.104C119.917 108.102 119.927 108.099 119.937 108.097C119.947 108.094 119.957 108.092 119.967 108.09C119.977 108.087 119.987 108.085 119.997 108.082C120.007 108.08 120.017 108.078 120.027 108.075C120.037 108.073 120.047 108.07 120.057 108.068C120.067 108.066 120.077 108.063 120.087 108.061C120.097 108.058 120.108 108.056 120.118 108.054C120.128 108.051 120.138 108.049 120.148 108.046C120.158 108.044 120.168 108.042 120.178 108.039C120.188 108.037 120.198 108.034 120.208 108.032C120.218 108.03 120.228 108.027 120.238 108.025C120.248 108.022 120.259 108.02 120.269 108.018C120.279 108.015 120.289 108.013 120.299 108.01C120.309 108.008 120.319 108.006 120.329 108.003C120.339 108.001 120.349 107.998 120.359 107.996C120.369 107.994 120.379 107.991 120.39 107.989C120.4 107.986 120.41 107.984 120.42 107.982C120.43 107.979 120.44 107.977 120.45 107.974C120.46 107.972 120.47 107.97 120.48 107.967C120.49 107.965 120.5 107.962 120.511 107.96C120.521 107.958 120.531 107.955 120.541 107.953C120.551 107.95 120.561 107.948 120.571 107.946C120.581 107.943 120.591 107.941 120.601 107.938C120.611 107.936 120.622 107.933 120.632 107.931C120.642 107.929 120.652 107.926 120.662 107.924C120.672 107.921 120.682 107.919 120.692 107.917C120.702 107.914 120.712 107.912 120.722 107.909C120.733 107.907 120.743 107.905 120.753 107.902C120.763 107.9 120.773 107.897 120.783 107.895C120.793 107.893 120.803 107.89 120.813 107.888C120.823 107.885 120.833 107.883 120.844 107.881C120.854 107.878 120.864 107.876 120.874 107.873C120.884 107.871 120.894 107.869 120.904 107.866C120.914 107.864 120.924 107.861 120.934 107.859C120.945 107.856 120.955 107.854 120.965 107.852C120.975 107.849 120.985 107.847 120.995 107.844C121.005 107.842 121.015 107.84 121.025 107.837C121.035 107.835 121.045 107.832 121.056 107.83C121.066 107.828 121.076 107.825 121.086 107.823C121.096 107.82 121.106 107.818 121.116 107.816C121.126 107.813 121.136 107.811 121.146 107.808C121.156 107.806 121.167 107.804 121.177 107.801C121.187 107.799 121.197 107.796 121.207 107.794C121.217 107.792 121.227 107.789 121.237 107.787C121.247 107.784 121.257 107.782 121.267 107.78C121.277 107.777 121.288 107.775 121.298 107.772C121.308 107.77 121.318 107.767 121.328 107.765C121.338 107.763 121.348 107.76 121.358 107.758C121.368 107.755 121.378 107.753 121.388 107.751C121.398 107.748 121.408 107.746 121.419 107.743C121.429 107.741 121.439 107.739 121.449 107.736C121.459 107.734 121.469 107.731 121.479 107.729C121.489 107.727 121.499 107.724 121.509 107.722C121.519 107.719 121.529 107.717 121.539 107.715C121.549 107.712 121.56 107.71 121.57 107.707C121.58 107.705 121.59 107.703 121.6 107.7C121.61 107.698 121.62 107.695 121.63 107.693C121.64 107.691 121.65 107.688 121.66 107.686C121.67 107.683 121.68 107.681 121.69 107.679C121.7 107.676 121.71 107.674 121.72 107.672C121.73 107.669 121.74 107.667 121.751 107.664C121.761 107.662 121.771 107.66 121.781 107.657C121.791 107.655 121.801 107.652 121.811 107.65C121.821 107.648 121.831 107.645 121.841 107.643C121.851 107.64 121.861 107.638 121.871 107.636C121.881 107.633 121.891 107.631 121.901 107.628C121.911 107.626 121.921 107.624 121.931 107.621C121.941 107.619 121.951 107.616 121.961 107.614C121.971 107.612 121.981 107.609 121.991 107.607C122.001 107.605 122.011 107.602 122.021 107.6C122.031 107.597 122.041 107.595 122.051 107.593C122.061 107.59 122.071 107.588 122.081 107.585C122.091 107.583 122.101 107.581 122.111 107.578C122.121 107.576 122.131 107.574 122.141 107.571C122.151 107.569 122.161 107.566 122.171 107.564C122.181 107.562 122.191 107.559 122.201 107.557C122.211 107.555 122.221 107.552 122.231 107.55C122.241 107.547 122.251 107.545 122.261 107.543C122.271 107.54 122.281 107.538 122.291 107.536C122.301 107.533 122.311 107.531 122.321 107.528C122.331 107.526 122.341 107.524 122.351 107.521C122.36 107.519 122.37 107.517 122.38 107.514C122.39 107.512 122.4 107.509 122.41 107.507C122.42 107.505 122.43 107.502 122.44 107.5C122.45 107.498 122.46 107.495 122.47 107.493C122.48 107.49 122.49 107.488 122.5 107.486C122.509 107.483 122.519 107.481 122.529 107.479C122.539 107.476 122.549 107.474 122.559 107.472C122.569 107.469 122.579 107.467 122.589 107.464C122.599 107.462 122.609 107.46 122.618 107.457C122.628 107.455 122.638 107.453 122.648 107.45C122.658 107.448 122.668 107.446 122.678 107.443C122.688 107.441 122.697 107.439 122.707 107.436C122.717 107.434 122.727 107.432 122.737 107.429C122.747 107.427 122.757 107.424 122.767 107.422C122.776 107.42 122.786 107.417 122.796 107.415C122.806 107.413 122.816 107.41 122.826 107.408C122.835 107.406 122.845 107.403 122.855 107.401C122.865 107.399 122.875 107.396 122.885 107.394C122.894 107.392 122.904 107.389 122.914 107.387C122.924 107.385 122.934 107.382 122.944 107.38C122.953 107.378 122.963 107.375 122.973 107.373C122.983 107.371 122.993 107.368 123.002 107.366C123.012 107.364 123.022 107.361 123.032 107.359C123.042 107.357 123.051 107.354 123.061 107.352C123.071 107.35 123.081 107.347 123.09 107.345C123.1 107.343 123.11 107.34 123.12 107.338C123.129 107.336 123.139 107.333 123.149 107.331C123.159 107.329 123.168 107.326 123.178 107.324C123.188 107.322 123.198 107.319 123.207 107.317C123.217 107.315 123.227 107.312 123.237 107.31C123.246 107.308 123.256 107.305 123.266 107.303C123.275 107.301 123.285 107.298 123.295 107.296C123.305 107.294 123.314 107.292 123.324 107.289C123.334 107.287 123.343 107.285 123.353 107.282C123.363 107.28 123.372 107.278 123.382 107.275C123.392 107.273 123.401 107.271 123.411 107.268C123.421 107.266 123.43 107.264 123.44 107.262C123.45 107.259 123.459 107.257 123.469 107.255C123.479 107.252 123.488 107.25 123.498 107.248C123.508 107.245 123.517 107.243 123.527 107.241C123.536 107.239 123.546 107.236 123.556 107.234C123.565 107.232 123.575 107.229 123.585 107.227C123.594 107.225 123.604 107.223 123.613 107.22C123.623 107.218 123.632 107.216 123.642 107.213C123.652 107.211 123.661 107.209 123.671 107.207C123.68 107.204 123.69 107.202 123.699 107.2C123.709 107.197 123.719 107.195 123.728 107.193C123.738 107.191 123.747 107.188 123.757 107.186C123.766 107.184 123.776 107.181 123.785 107.179C123.795 107.177 123.804 107.175 123.814 107.172C123.823 107.17 123.833 107.168 123.842 107.166C123.852 107.163 123.861 107.161 123.871 107.159C123.88 107.157 123.89 107.154 123.899 107.152C123.909 107.15 123.918 107.148 123.928 107.145C123.937 107.143 123.947 107.141 123.956 107.138C123.966 107.136 123.975 107.134 123.985 107.132C123.994 107.129 124.003 107.127 124.013 107.125C124.022 107.123 124.032 107.12 124.041 107.118C124.051 107.116 124.06 107.114 124.069 107.112C124.079 107.109 124.088 107.107 124.098 107.105C124.107 107.103 124.116 107.1 124.126 107.098C124.135 107.096 124.144 107.094 124.154 107.091C124.163 107.089 124.173 107.087 124.182 107.085C124.191 107.082 124.201 107.08 124.21 107.078C124.219 107.076 124.229 107.074 124.238 107.071C124.247 107.069 124.257 107.067 124.266 107.065C124.275 107.062 124.285 107.06 124.294 107.058C124.303 107.056 124.312 107.054 124.322 107.051C124.331 107.049 124.34 107.047 124.35 107.045C124.359 107.043 124.368 107.04 124.377 107.038C124.387 107.036 124.396 107.034 124.405 107.031C124.414 107.029 124.424 107.027 124.433 107.025C124.442 107.023 124.451 107.02 124.46 107.018C124.47 107.016 124.479 107.014 124.488 107.012C124.497 107.009 124.506 107.007 124.516 107.005C124.525 107.003 124.534 107.001 124.543 106.999C124.552 106.996 124.562 106.994 124.571 106.992C124.58 106.99 124.589 106.988 124.598 106.985C124.607 106.983 124.616 106.981 124.626 106.979C124.635 106.977 124.644 106.975 124.653 106.972C124.662 106.97 124.671 106.968 124.68 106.966C124.689 106.964 124.698 106.962 124.707 106.959C124.717 106.957 124.726 106.955 124.735 106.953C124.744 106.951 124.753 106.949 124.762 106.946C124.771 106.944 124.78 106.942 124.789 106.94C124.798 106.938 124.807 106.936 124.816 106.933C124.825 106.931 124.834 106.929 124.843 106.927C124.852 106.925 124.861 106.923 124.87 106.921C124.879 106.918 124.888 106.916 124.897 106.914C124.906 106.912 124.915 106.91 124.924 106.908C124.933 106.906 124.942 106.904 124.951 106.901C124.96 106.899 124.969 106.897 124.978 106.895C124.987 106.893 124.995 106.891 125.004 106.889C125.013 106.886 125.022 106.884 125.031 106.882C125.04 106.88 125.049 106.878 125.058 106.876C125.067 106.874 125.075 106.872 125.084 106.87C125.093 106.867 125.102 106.865 125.111 106.863C125.12 106.861 125.128 106.859 125.137 106.857C125.146 106.855 125.155 106.853 125.164 106.851C125.173 106.849 125.181 106.846 125.19 106.844C125.199 106.842 125.208 106.84 125.216 106.838C125.225 106.836 125.234 106.834 125.243 106.832C125.251 106.83 125.26 106.828 125.269 106.826C125.278 106.823 125.286 106.821 125.295 106.819C125.304 106.817 125.313 106.815 125.321 106.813C125.33 106.811 125.339 106.809 125.347 106.807C125.356 106.805 125.365 106.803 125.373 106.801C125.382 106.799 125.391 106.797 125.399 106.794C125.408 106.792 125.417 106.79 125.425 106.788C125.434 106.786 125.442 106.784 125.451 106.782C125.46 106.78 125.468 106.778 125.477 106.776C125.485 106.774 125.494 106.772 125.503 106.77C125.511 106.768 125.52 106.766 125.528 106.764C125.537 106.762 125.545 106.76 125.554 106.758C125.562 106.756 125.571 106.754 125.579 106.752C125.588 106.749 125.596 106.747 125.605 106.745C125.613 106.743 125.622 106.741 125.63 106.739C125.639 106.737 125.647 106.735 125.656 106.733C125.664 106.731 125.673 106.729 125.681 106.727C125.69 106.725 125.698 106.723 125.706 106.721C125.715 106.719 125.723 106.717 125.732 106.715C125.74 106.713 125.748 106.711 125.757 106.709C125.765 106.707 125.773 106.705 125.782 106.703C125.79 106.701 125.799 106.699 125.807 106.697C125.815 106.695 125.824 106.693 125.832 106.691C125.84 106.689 125.848 106.687 125.857 106.685C125.865 106.683 125.873 106.681 125.882 106.679C125.89 106.677 125.898 106.676 125.906 106.674C125.915 106.672 125.923 106.67 125.931 106.668C125.939 106.666 125.948 106.664 125.956 106.662C125.964 106.66 125.972 106.658 125.98 106.656C125.989 106.654 125.997 106.652 126.005 106.65C126.013 106.648 126.021 106.646 126.029 106.644C126.038 106.642 126.046 106.64 126.054 106.638C126.062 106.636 126.07 106.635 126.078 106.633C126.086 106.631 126.094 106.629 126.102 106.627C126.111 106.625 126.119 106.623 126.127 106.621C126.135 106.619 126.143 106.617 126.151 106.615C126.159 106.613 126.167 106.611 126.175 106.61C126.183 106.608 126.191 106.606 126.199 106.604C126.207 106.602 126.215 106.6 126.223 106.598C126.231 106.596 126.239 106.594 126.247 106.592C126.255 106.591 126.263 106.589 126.271 106.587C126.278 106.585 126.286 106.583 126.294 106.581C126.302 106.579 126.31 106.577 126.318 106.575C126.326 106.574 126.334 106.572 126.342 106.57C126.349 106.568 126.357 106.566 126.365 106.564C126.373 106.562 126.381 106.56 126.389 106.559C126.396 106.557 126.404 106.555 126.412 106.553C126.42 106.551 126.428 106.549 126.435 106.547C126.443 106.546 126.451 106.544 126.459 106.542C126.466 106.54 126.474 106.538 126.482 106.536C126.49 106.535 126.497 106.533 126.505 106.531C126.513 106.529 126.52 106.527 126.528 106.525C126.536 106.524 126.543 106.522 126.551 106.52C126.559 106.518 126.566 106.516 126.574 106.514C126.582 106.513 126.589 106.511 126.597 106.509C126.604 106.507 126.612 106.505 126.62 106.504C126.627 106.502 126.635 106.5 126.642 106.498C126.65 106.496 126.657 106.495 126.665 106.493C126.672 106.491 126.68 106.489 126.687 106.487C126.695 106.486 126.702 106.484 126.71 106.482C126.717 106.48 126.725 106.478 126.732 106.477C126.74 106.475 126.747 106.473 126.755 106.471C126.762 106.47 126.77 106.468 126.777 106.466C126.784 106.464 126.792 106.462 126.799 106.461C126.806 106.459 126.814 106.457 126.821 106.455C126.829 106.454 126.836 106.452 126.843 106.45C126.851 106.448 126.858 106.447 126.865 106.445C126.873 106.443 126.88 106.441 126.887 106.44C126.894 106.438 126.902 106.436 126.909 106.435C126.916 106.433 126.923 106.431 126.931 106.429C126.938 106.428 126.945 106.426 126.952 106.424C126.959 106.423 126.967 106.421 126.974 106.419C126.981 106.417 126.988 106.416 126.995 106.414C127.002 106.412 127.01 106.411 127.017 106.409C127.024 106.407 127.031 106.405 127.038 106.404C127.045 106.402 127.052 106.4 127.059 106.399C127.066 106.397 127.073 106.395 127.08 106.394C127.088 106.392 127.095 106.39 127.102 106.389C127.109 106.387 127.116 106.385 127.123 106.384C127.13 106.382 127.137 106.38 127.144 106.379C127.15 106.377 127.157 106.375 127.164 106.374C127.171 106.372 127.178 106.37 127.185 106.369C127.192 106.367 127.199 106.365 127.206 106.364C127.213 106.362 127.22 106.36 127.226 106.359C127.233 106.357 127.24 106.356 127.247 106.354C127.254 106.352 127.261 106.351 127.267 106.349C127.274 106.347 127.281 106.346 127.288 106.344C127.295 106.343 127.301 106.341 127.308 106.339C127.315 106.338 127.322 106.336 127.328 106.335C127.335 106.333 127.342 106.331 127.348 106.33C127.355 106.328 127.362 106.327 127.368 106.325C127.375 106.323 127.382 106.322 127.388 106.32C127.395 106.319 127.402 106.317 127.408 106.316C127.415 106.314 127.421 106.312 127.428 106.311C127.434 106.309 127.441 106.308 127.448 106.306C127.454 106.305 127.461 106.303 127.467 106.301C127.474 106.3 127.48 106.298 127.487 106.297C127.493 106.295 127.5 106.294 127.506 106.292C127.513 106.291 127.519 106.289 127.525 106.288C127.532 106.286 127.538 106.285 127.545 106.283L127.776 107.256Z" fill="black"/>
<path d="M105.307 81.4655C105.502 81.661 105.818 81.6614 106.014 81.4663C106.209 81.2713 106.21 80.9547 106.015 80.7592L105.307 81.4655ZM106.015 80.7592C105.054 79.796 103.964 79.2534 102.824 79.0951C101.688 78.9372 100.537 79.1656 99.4515 79.6877C97.2899 80.7278 95.3537 82.9485 94.1853 85.7929L95.1103 86.1728C96.2093 83.4973 97.998 81.4969 99.8851 80.5888C100.824 80.1368 101.778 79.9593 102.687 80.0856C103.592 80.2113 104.486 80.6428 105.307 81.4655L106.015 80.7592Z" fill="black"/>
<path d="M124.727 76.6835C124.54 76.8866 124.553 77.2029 124.756 77.39C124.959 77.577 125.276 77.564 125.463 77.3609L124.727 76.6835ZM134.661 79.1281C134.749 79.3902 135.032 79.532 135.294 79.4448C135.556 79.3577 135.697 79.0746 135.61 78.8126L134.661 79.1281ZM125.463 77.3609C127.261 75.4078 129.316 75.1999 131.047 75.7907C132.823 76.3969 134.232 77.8353 134.661 79.1281L135.61 78.8126C135.069 77.1831 133.4 75.5369 131.37 74.8443C129.295 74.1362 126.816 74.4154 124.727 76.6835L125.463 77.3609Z" fill="black"/>
<mask id="path-39-inside-2_795_12603" fill="white">
<path d="M110.662 90.9661C110.527 89.0764 109.547 87.3251 107.937 86.0974C106.327 84.8698 104.219 84.2664 102.077 84.42C99.9348 84.5735 97.934 85.4715 96.5146 86.9163C95.0952 88.3612 94.3735 90.2345 94.5083 92.1242L102.585 91.5452L110.662 90.9661Z"/>
</mask>
<path d="M110.662 90.9661C110.527 89.0764 109.547 87.3251 107.937 86.0974C106.327 84.8698 104.219 84.2664 102.077 84.42C99.9348 84.5735 97.934 85.4715 96.5146 86.9163C95.0952 88.3612 94.3735 90.2345 94.5083 92.1242L102.585 91.5452L110.662 90.9661Z" stroke="black" stroke-width="2" mask="url(#path-39-inside-2_795_12603)"/>
<path d="M94.5083 92.1242C94.5751 93.0599 94.8501 93.9715 95.3177 94.8069C95.7853 95.6422 96.4363 96.3851 97.2335 96.9929C98.0307 97.6008 98.9585 98.0618 99.964 98.3496C100.97 98.6374 102.033 98.7464 103.094 98.6704C104.154 98.5943 105.191 98.3347 106.146 97.9064C107.1 97.4781 107.953 96.8894 108.656 96.174C109.359 95.4586 109.898 94.6304 110.242 93.7369C110.586 92.8433 110.729 91.9018 110.662 90.9661L102.585 91.5452L94.5083 92.1242Z" fill="white"/>
<path d="M120.028 89.759C120.095 90.6947 120.369 91.6063 120.835 92.4418C121.302 93.2772 121.951 94.0202 122.746 94.6282C123.54 95.2363 124.465 95.6975 125.468 95.9855C126.47 96.2736 127.53 96.3828 128.587 96.307C129.645 96.2312 130.678 95.9718 131.63 95.5437C132.581 95.1156 133.431 94.5272 134.131 93.8119C134.832 93.0967 135.369 92.2687 135.712 91.3752C136.055 90.4817 136.197 89.5403 136.13 88.6046L128.079 89.1818L120.028 89.759Z" fill="white"/>
<mask id="path-42-inside-3_795_12603" fill="white">
<path d="M136.175 88.6579C135.957 86.776 134.9 85.0702 133.237 83.9157C131.574 82.7612 129.441 82.2526 127.308 82.5017C125.175 82.7508 123.216 83.7372 121.862 85.244C120.508 86.7508 119.87 88.6545 120.089 90.5364L128.132 89.5971L136.175 88.6579Z"/>
</mask>
<path d="M136.175 88.6579C135.957 86.776 134.9 85.0702 133.237 83.9157C131.574 82.7612 129.441 82.2526 127.308 82.5017C125.175 82.7508 123.216 83.7372 121.862 85.244C120.508 86.7508 119.87 88.6545 120.089 90.5364L128.132 89.5971L136.175 88.6579Z" stroke="black" stroke-width="2" mask="url(#path-42-inside-3_795_12603)"/>
<path d="M103.062 91.1371C103.098 91.5653 102.998 91.994 102.782 92.329C102.566 92.664 102.253 92.8778 101.911 92.9234C101.569 92.969 101.227 92.8427 100.96 92.5721C100.692 92.3016 100.522 91.9091 100.485 91.481L101.774 91.309L103.062 91.1371Z" fill="black"/>
<path d="M129.257 89.1889C129.293 89.6171 129.192 90.0458 128.976 90.3808C128.761 90.7158 128.447 90.9296 128.106 90.9752C127.764 91.0208 127.422 90.8944 127.154 90.6239C126.887 90.3534 126.717 89.9609 126.68 89.5327L127.968 89.3608L129.257 89.1889Z" fill="black"/>
<defs>
<linearGradient id="paint0_linear_795_12603" x1="77.0708" y1="27" x2="180.298" y2="111.374" gradientUnits="userSpaceOnUse">
<stop offset="0.432292" stop-color="#FFC759"/>
<stop offset="1" stop-color="#F6A05C"/>
</linearGradient>
</defs>
</svg>
