<svg width="222" height="152" viewBox="0 0 222 152" fill="none" xmlns="http://www.w3.org/2000/svg">
<circle cx="96" cy="85" r="65" fill="#EEF4F9"/>
<path d="M204.665 53.3838V81.6988" stroke="#B2C5CF" stroke-linecap="round" stroke-dasharray="3 3"/>
<path d="M176 53.3838L192.605 36.7793L209.034 53.3838H176Z" stroke="#B2C5CF"/>
<path d="M192.604 20V31.1862" stroke="#B2C5CF" stroke-linecap="round"/>
<rect x="190.133" y="31.686" width="5.29223" height="4.5931" rx="1.5" fill="#B2C5CF" stroke="#B2C5CF"/>
<path d="M200.12 53.2091C200.12 55.156 199.347 57.0232 197.97 58.3999C196.593 59.7766 194.726 60.55 192.779 60.55C190.832 60.55 188.965 59.7766 187.588 58.3999C186.212 57.0232 185.438 55.156 185.438 53.2091L192.779 53.2091H200.12Z" fill="#B2C5CF"/>
<path d="M50.0433 128.077C56.6134 122 65.3734 124.587 68.9322 126.435C67.2213 121.576 60.4322 113.048 46.9636 117.812" stroke="#B2C5CF" stroke-linejoin="round"/>
<path d="M65.4418 123.766C63.5939 121.986 57.9683 119.085 50.2485 121.713" stroke="#B2C5CF" stroke-linejoin="round"/>
<path d="M34.2339 128.077H43.6783H52.0962L47.7846 150.046H39.1614L34.2339 128.077Z" fill="#B2C5CF" stroke="#B2C5CF" stroke-linejoin="round"/>
<path d="M39.3668 128.077C36.8346 120.481 31.5239 102.947 30.5383 93.5845C29.5528 84.2222 26.4321 74.6272 24.9949 71C47.0045 84.6328 48.4007 114.732 46.3475 128.077" stroke="#B2C5CF" stroke-linejoin="round"/>
<path d="M33.4126 85.3721C36.5607 92.2159 42.9392 110.338 43.2677 128.077" stroke="#B2C5CF" stroke-linejoin="round"/>
<path d="M34.3939 128.569C31.342 125.993 24.6918 119.905 22.5066 116.158C20.3213 112.411 16.5238 109.137 14.8982 107.969C32.5006 111.664 35.0383 117.041 35.8784 117.609" stroke="#B2C5CF" stroke-linejoin="round"/>
<path d="M16 108.3C19.2634 109.747 26.7886 114.233 30.7826 120.605" stroke="#B2C5CF" stroke-linejoin="round"/>
<line x1="4.5" y1="150.5" x2="77.5" y2="150.5" stroke="#B2C5CF" stroke-linecap="round"/>
<line x1="172.5" y1="150.5" x2="202.5" y2="150.5" stroke="#B2C5CF" stroke-linecap="round"/>
<line x1="208.5" y1="150.5" x2="218.5" y2="150.5" stroke="#B2C5CF" stroke-linecap="round"/>
<path fill-rule="evenodd" clip-rule="evenodd" d="M107.908 132.279C107.908 132.279 107.908 132.279 107.913 132.279C108.398 132.316 108.894 132.331 109.389 132.331H152.016C163.397 132.331 172.662 122.815 171.828 111.529C171.369 105.305 168.027 100.84 163.09 97.2266C159.899 94.8956 158.137 91.0746 158.413 87.1499C158.496 85.9558 158.538 84.7514 158.538 83.5366C158.538 55.0042 134.806 29 105.526 29C76.2507 29 52.5181 52.1333 52.5181 80.6657C52.5181 109.198 76.2507 132.331 105.526 132.331C106.323 132.331 107.116 132.316 107.903 132.279H107.908Z" fill="url(#paint0_linear_795_12618)"/>
<mask id="path-18-inside-1_795_12618" fill="white">
<path fill-rule="evenodd" clip-rule="evenodd" d="M105.182 134.854C105.666 134.891 106.157 134.906 106.652 134.906H118.348L123.822 150.678C123.979 151.078 124.364 151.342 124.797 151.342H142.889C143.957 151.342 144.333 149.93 143.405 149.401L136.997 145.772C136.742 145.627 136.559 145.377 136.491 145.092V145.087L134.267 134.906H147.423C158.695 134.906 168.496 125.733 168.726 114.509C168.872 107.459 165.499 101.182 160.233 97.3043C156.912 94.8591 155.572 90.8772 155.838 86.7707C155.905 85.6909 155.942 84.6059 155.942 83.5105C155.942 55.1234 131.902 32.1147 102.815 32.1147C73.7327 32.1147 50.1565 55.1234 50.1565 83.5105C50.1565 103.392 61.7207 120.635 78.6414 129.183L75.1671 145.087V145.092C75.0994 145.377 74.9169 145.627 74.6614 145.772L68.2538 149.401C67.3258 149.93 67.7012 151.342 68.77 151.342H86.8614C87.2941 151.342 87.68 151.078 87.8364 150.678L93.584 134.119C96.581 134.636 99.6655 134.906 102.815 134.906C103.607 134.906 104.394 134.891 105.182 134.854Z"/>
</mask>
<path d="M105.182 134.854L105.256 133.857L105.196 133.853L105.135 133.855L105.182 134.854ZM118.348 134.906L119.292 134.578L119.059 133.906H118.348V134.906ZM123.822 150.678L122.877 151.006L122.884 151.024L122.891 151.042L123.822 150.678ZM143.405 149.401L143.9 148.532L143.897 148.531L143.405 149.401ZM136.997 145.772L136.503 146.641L136.504 146.642L136.997 145.772ZM136.491 145.092H135.491V145.209L135.518 145.323L136.491 145.092ZM136.491 145.087H137.491V144.979L137.468 144.873L136.491 145.087ZM134.267 134.906V133.906H133.025L133.29 135.12L134.267 134.906ZM168.726 114.509L167.726 114.488L167.726 114.488L168.726 114.509ZM160.233 97.3043L160.826 96.4991L160.826 96.499L160.233 97.3043ZM155.838 86.7707L156.836 86.8354L156.836 86.8334L155.838 86.7707ZM78.6414 129.183L79.6184 129.397L79.7837 128.64L79.0923 128.291L78.6414 129.183ZM75.1671 145.087L74.1902 144.873L74.1671 144.979V145.087H75.1671ZM75.1671 145.092L76.1401 145.323L76.1671 145.209V145.092H75.1671ZM74.6614 145.772L75.1542 146.642L75.156 146.641L74.6614 145.772ZM68.2538 149.401L67.761 148.531L67.7582 148.532L68.2538 149.401ZM87.8364 150.678L88.7676 151.042L88.7747 151.024L88.7811 151.006L87.8364 150.678ZM93.584 134.119L93.754 133.134L92.9176 132.989L92.6393 133.791L93.584 134.119ZM106.652 133.906C106.177 133.906 105.713 133.891 105.256 133.857L105.107 135.852C105.62 135.89 106.136 135.906 106.652 135.906V133.906ZM118.348 133.906H106.652V135.906H118.348V133.906ZM117.403 135.234L122.877 151.006L124.767 150.35L119.292 134.578L117.403 135.234ZM122.891 151.042C123.197 151.825 123.952 152.342 124.797 152.342V150.342C124.776 150.342 124.76 150.33 124.753 150.314L122.891 151.042ZM124.797 152.342H142.889V150.342H124.797V152.342ZM142.889 152.342C144.98 152.342 145.722 149.572 143.9 148.532L142.909 150.269C142.919 150.275 142.925 150.28 142.929 150.282C142.932 150.285 142.933 150.287 142.933 150.287C142.933 150.287 142.933 150.286 142.932 150.285C142.932 150.284 142.931 150.283 142.931 150.283C142.93 150.281 142.935 150.292 142.929 150.313C142.923 150.334 142.914 150.342 142.915 150.341C142.916 150.341 142.916 150.34 142.917 150.34C142.918 150.339 142.919 150.339 142.919 150.339C142.918 150.339 142.916 150.34 142.912 150.341C142.908 150.342 142.9 150.342 142.889 150.342V152.342ZM143.897 148.531L137.49 144.902L136.504 146.642L142.912 150.271L143.897 148.531ZM137.492 144.903C137.489 144.901 137.483 144.897 137.477 144.889C137.472 144.881 137.467 144.871 137.464 144.861L135.518 145.323C135.648 145.87 135.999 146.354 136.503 146.641L137.492 144.903ZM137.491 145.092V145.087H135.491V145.092H137.491ZM137.468 144.873L135.244 134.693L133.29 135.12L135.514 145.3L137.468 144.873ZM147.423 133.906H134.267V135.906H147.423V133.906ZM167.726 114.488C167.508 125.14 158.179 133.906 147.423 133.906V135.906C159.211 135.906 169.485 126.325 169.726 114.529L167.726 114.488ZM159.64 98.1095C164.656 101.804 167.865 107.778 167.726 114.488L169.726 114.53C169.879 107.139 166.341 100.561 160.826 96.4991L159.64 98.1095ZM154.84 86.7061C154.558 91.0576 155.976 95.4117 159.64 98.1096L160.826 96.499C157.848 94.3065 156.586 90.6968 156.836 86.8354L154.84 86.7061ZM154.942 83.5105C154.942 84.5836 154.906 85.6477 154.84 86.7081L156.836 86.8334C156.905 85.7341 156.942 84.6281 156.942 83.5105H154.942ZM102.815 33.1147C131.384 33.1147 154.942 55.7098 154.942 83.5105H156.942C156.942 54.5371 132.419 31.1147 102.815 31.1147V33.1147ZM51.1565 83.5105C51.1565 55.6985 74.262 33.1147 102.815 33.1147V31.1147C73.2035 31.1147 49.1565 54.5484 49.1565 83.5105H51.1565ZM79.0923 128.291C62.4867 119.901 51.1565 102.991 51.1565 83.5105H49.1565C49.1565 103.793 60.9548 121.368 78.1905 130.076L79.0923 128.291ZM76.1441 145.3L79.6184 129.397L77.6644 128.97L74.1902 144.873L76.1441 145.3ZM76.1671 145.092V145.087H74.1671V145.092H76.1671ZM75.156 146.641C75.6598 146.354 76.0102 145.87 76.1401 145.323L74.1942 144.861C74.1917 144.871 74.187 144.881 74.181 144.889C74.1752 144.897 74.1699 144.901 74.1669 144.903L75.156 146.641ZM68.7466 150.271L75.1542 146.642L74.1686 144.902L67.761 148.531L68.7466 150.271ZM68.77 150.342C68.7584 150.342 68.7507 150.342 68.7464 150.341C68.7421 150.34 68.7401 150.339 68.7399 150.339C68.7397 150.339 68.7402 150.339 68.7412 150.34C68.7421 150.34 68.7428 150.341 68.7432 150.341C68.7443 150.342 68.7351 150.334 68.7295 150.313C68.7239 150.292 68.7281 150.281 68.7274 150.283C68.7272 150.283 68.7268 150.284 68.7262 150.285C68.7256 150.286 68.7251 150.287 68.7252 150.287C68.7253 150.287 68.7266 150.285 68.7299 150.282C68.7332 150.28 68.7394 150.275 68.7494 150.269L67.7582 148.532C65.9366 149.572 66.6783 152.342 68.77 152.342V150.342ZM86.8614 150.342H68.77V152.342H86.8614V150.342ZM86.9051 150.314C86.8986 150.33 86.8821 150.342 86.8614 150.342V152.342C87.7062 152.342 88.4614 151.825 88.7676 151.042L86.9051 150.314ZM92.6393 133.791L86.8917 150.35L88.7811 151.006L94.5287 134.447L92.6393 133.791ZM102.815 133.906C99.7227 133.906 96.6951 133.641 93.754 133.134L93.4139 135.105C96.4669 135.632 99.6083 135.906 102.815 135.906V133.906ZM105.135 133.855C104.366 133.891 103.594 133.906 102.815 133.906V135.906C103.62 135.906 104.423 135.89 105.228 135.853L105.135 133.855Z" fill="black" mask="url(#path-18-inside-1_795_12618)"/>
<path fill-rule="evenodd" clip-rule="evenodd" d="M86.7157 85.8163C86.4251 86.5841 86.2664 87.4144 86.2664 88.2809C86.2664 92.2037 89.5196 95.3838 93.5327 95.3838C97.5458 95.3838 100.799 92.2037 100.799 88.2809C100.799 87.1669 100.537 86.1127 100.069 85.1743L86.7157 85.8163Z" fill="white"/>
<ellipse cx="93.2301" cy="90.1706" rx="0.908296" ry="1.18381" fill="black"/>
<path d="M86 85.6031C88.8404 85.6899 95.693 85.7072 100.38 85.0825" stroke="black" stroke-linecap="round"/>
<path fill-rule="evenodd" clip-rule="evenodd" d="M114.269 84.8821C114.043 85.661 113.95 86.492 114.014 87.3482C114.306 91.272 117.78 94.2386 121.772 93.9744C125.764 93.7102 128.763 90.3152 128.471 86.3914C128.389 85.2871 128.054 84.2585 127.528 83.3565L114.269 84.8821Z" fill="white"/>
<ellipse rx="0.906348" ry="1.18539" transform="matrix(0.997746 -0.0671612 0.0730498 0.997333 121.076 88.7757)" fill="black"/>
<path d="M113.599 83.9964C116.441 83.9891 123.29 83.7796 127.953 83.0001" stroke="black" stroke-linecap="round"/>
<path d="M103.995 95.4946V99.5875C103.995 101.352 105.425 102.783 107.19 102.783V102.783C108.955 102.783 110.386 101.352 110.386 99.5875V95.4946" stroke="black" stroke-linecap="round"/>
<path d="M107.303 105.646C103.753 106.253 95.48 106.427 90.7932 102.262" stroke="black" stroke-linecap="round"/>
<path d="M95.4871 104.541C95.7303 104.409 96.0383 104.495 96.175 104.734C96.3118 104.973 96.2255 105.274 95.9823 105.407L95.4871 104.541ZM94.5794 107.033C94.6264 107.303 94.4416 107.557 94.1666 107.602C93.8916 107.646 93.6306 107.463 93.5836 107.193L94.5794 107.033ZM95.9823 105.407C94.6168 106.15 94.5617 106.931 94.5794 107.033L93.5836 107.193C93.4698 106.541 93.8917 105.409 95.4871 104.541L95.9823 105.407Z" fill="black"/>
<path d="M93.697 103.911C93.9367 103.773 94.2467 103.852 94.3894 104.088C94.532 104.323 94.4533 104.627 94.2136 104.765L93.697 103.911ZM94.9568 108.715L95.3856 108.979L94.9568 108.715ZM97.4693 105.213C97.7125 105.081 98.0205 105.167 98.1572 105.406C98.2939 105.645 98.2076 105.947 97.9644 106.079L97.4693 105.213ZM94.2136 104.765C93.1525 105.376 92.6521 106.039 92.4628 106.613C92.274 107.185 92.3755 107.725 92.6243 108.142C92.8798 108.571 93.2696 108.839 93.6187 108.903C93.9279 108.96 94.2594 108.871 94.5279 108.451L95.3856 108.979C94.9052 109.732 94.1684 110.01 93.4386 109.876C92.7488 109.749 92.1289 109.268 91.7527 108.637C91.3698 107.995 91.2174 107.164 91.5013 106.303C91.7847 105.444 92.4837 104.61 93.697 103.911L94.2136 104.765ZM94.5279 108.451C95.7445 106.545 96.7443 105.608 97.4693 105.213L97.9644 106.079C97.4557 106.356 96.5656 107.13 95.3856 108.979L94.5279 108.451Z" fill="black"/>
<defs>
<linearGradient id="paint0_linear_795_12618" x1="52.5181" y1="29" x2="154.784" y2="147.131" gradientUnits="userSpaceOnUse">
<stop offset="0.432292" stop-color="#8ED6FE"/>
<stop offset="1" stop-color="#56BEFF"/>
</linearGradient>
</defs>
</svg>
