<svg width="222" height="151" viewBox="0 0 222 151" fill="none" xmlns="http://www.w3.org/2000/svg">
<path d="M42.1167 32.6381L26.6771 6.58366C25.5512 5.05577 22.4311 2 18.9572 2C14.6148 2 10.393 4.77432 10.393 11.2879C10.393 16.4988 10.393 20.0532 10.393 21.179C10.6745 23.3904 12.7813 27.8132 18.9572 27.8132C25.1331 27.8132 39.3826 27.8132 45.7354 27.8132" stroke="#B2C5CF" stroke-linecap="round"/>
<path d="M10.5136 10.2021L4 19.3695H10.5136" stroke="#B2C5CF" stroke-linecap="round"/>
<path d="M20.4047 27.813V32.9998" stroke="#B2C5CF" stroke-linecap="round"/>
<path d="M27.642 27.813V32.9998" stroke="#B2C5CF" stroke-linecap="round"/>
<path d="M134.38 0.669755L85.7429 12.8938C77.9924 14.8385 71.8648 20.8015 69.6629 28.533L55.8657 77.0293C53.6638 84.7608 55.731 93.0818 61.2862 98.8618L96.1262 135.134C101.675 140.914 109.87 143.279 117.62 141.327L166.257 129.103C174.008 127.159 180.135 121.196 182.337 113.464L196.134 64.9679C198.336 57.2364 196.269 48.9154 190.714 43.1354L155.881 6.86308C150.325 1.0831 142.13 -1.27498 134.38 0.669755Z" fill="#EEF4F9"/>
<path d="M180.423 150H203.889C208.667 150 212.778 146.619 213.701 141.931L216.652 126.931C217.868 120.751 213.138 115 206.841 115H177.856C171.66 115 166.955 120.578 168 126.687L170.566 141.687C171.388 146.489 175.551 150 180.423 150Z" stroke="#B2C5CF"/>
<path d="M168.995 126.907H207.931" stroke="#B2C5CF" stroke-linecap="round"/>
<path d="M185.169 91.2651V115.226" stroke="#B2C5CF" stroke-linecap="round"/>
<path d="M178.28 115.226V98.1538C178.28 94.3493 181.364 91.2651 185.168 91.2651V91.2651C188.973 91.2651 192.057 94.3493 192.057 98.1538V115.226" stroke="#B2C5CF" stroke-linecap="round"/>
<path d="M180.676 115.226C180.277 108.836 180.257 95.1586 183.372 91.5645" stroke="#B2C5CF" stroke-linecap="round"/>
<path d="M178.28 97.5546L176.782 96.9556" stroke="#B2C5CF" stroke-linecap="round"/>
<path d="M191.159 94.15L192.277 92.9878" stroke="#B2C5CF" stroke-linecap="round"/>
<path d="M185.087 91.3799L185.132 89.7676" stroke="#B2C5CF" stroke-linecap="round"/>
<path d="M178.28 102.347H176.782" stroke="#B2C5CF" stroke-linecap="round"/>
<path d="M193.854 101.149H192.357" stroke="#B2C5CF" stroke-linecap="round"/>
<path d="M193.854 107.738H192.357" stroke="#B2C5CF" stroke-linecap="round"/>
<path d="M178.28 107.738H176.782" stroke="#B2C5CF" stroke-linecap="round"/>
<path d="M197.149 71.7969L197.149 115.525" stroke="#B2C5CF" stroke-linecap="round"/>
<path d="M187.565 91.5645V81.3812C187.565 76.0879 191.856 71.7969 197.149 71.7969V71.7969C202.442 71.7969 206.733 76.0879 206.733 81.3812V115.525" stroke="#B2C5CF" stroke-linecap="round"/>
<path d="M190.56 92.7626C190.812 81.7536 190.56 76.5244 195.352 72.396" stroke="#B2C5CF" stroke-linecap="round"/>
<path d="M188.463 75.9901L186.965 75.3911" stroke="#B2C5CF" stroke-linecap="round"/>
<path d="M203.738 74.3824L204.856 73.2202" stroke="#B2C5CF" stroke-linecap="round"/>
<path d="M197.067 71.6123L197.112 70" stroke="#B2C5CF" stroke-linecap="round"/>
<path d="M187.265 83.1782H185.767" stroke="#B2C5CF" stroke-linecap="round"/>
<path d="M208.231 81.9805H206.733" stroke="#B2C5CF" stroke-linecap="round"/>
<path d="M208.231 91.5645H206.733" stroke="#B2C5CF" stroke-linecap="round"/>
<path d="M208.231 102.347H206.733" stroke="#B2C5CF" stroke-linecap="round"/>
<path d="M55.6341 48V77H64V20H55.6341V33.5H15V40H55.6341" stroke="#B2C5CF"/>
<line x1="18.5" y1="150.5" x2="57.5" y2="150.5" stroke="#B2C5CF" stroke-linecap="round"/>
<line x1="162.5" y1="150.5" x2="221.5" y2="150.5" stroke="#B2C5CF" stroke-linecap="round"/>
<line x1="0.5" y1="150.5" x2="11.5" y2="150.5" stroke="#B2C5CF" stroke-linecap="round"/>
<path d="M73.6087 80.6777C73.6087 108.18 96.1478 130.479 123.957 130.479H165.957C173.162 130.479 179 124.702 179 117.575V58.2276C179 41.9818 165.685 28.812 149.261 28.812H99.6957C85.2904 28.812 73.6087 40.3655 73.6087 54.6145V80.6777Z" fill="url(#paint0_linear_795_12576)"/>
<mask id="path-33-inside-1_795_12576" fill="white">
<path fill-rule="evenodd" clip-rule="evenodd" d="M71 83.8164C71 106.705 86.297 126.027 107.235 132.125L104.533 144.54V144.545C104.465 144.832 104.282 145.082 104.027 145.228L97.6146 148.873C96.6859 149.404 97.0615 150.823 98.1311 150.823H116.235C116.668 150.823 117.055 150.557 117.211 150.155L122.754 134.128H137.244L142.788 150.155C142.944 150.557 143.33 150.823 143.763 150.823H161.868C162.937 150.823 163.313 149.404 162.384 148.873L155.972 145.228C155.716 145.082 155.534 144.832 155.466 144.545V144.54L153.2 134.128H161.261C168.466 134.128 174.304 128.294 174.304 121.094V59.5728C174.304 45.1778 162.623 33.5044 148.217 33.5044H97.087C82.6817 33.5044 71 45.1726 71 59.5728V83.8164Z"/>
</mask>
<path d="M107.235 132.125L108.212 132.338L108.411 131.426L107.515 131.165L107.235 132.125ZM104.533 144.54L103.556 144.327L103.533 144.433V144.54H104.533ZM104.533 144.545L105.506 144.775L105.533 144.662V144.545H104.533ZM104.027 145.228L104.521 146.098L104.523 146.097L104.027 145.228ZM97.6146 148.873L97.1205 148.003L97.1177 148.005L97.6146 148.873ZM117.211 150.155L118.143 150.518L118.15 150.5L118.156 150.482L117.211 150.155ZM122.754 134.128V133.128H122.042L121.809 133.801L122.754 134.128ZM137.244 134.128L138.189 133.801L137.957 133.128H137.244V134.128ZM142.788 150.155L141.843 150.482L141.849 150.5L141.856 150.518L142.788 150.155ZM162.384 148.873L162.881 148.005L162.878 148.003L162.384 148.873ZM155.972 145.228L155.476 146.097L155.478 146.098L155.972 145.228ZM155.466 144.545H154.466V144.662L154.493 144.775L155.466 144.545ZM155.466 144.54H156.466V144.433L156.443 144.327L155.466 144.54ZM153.2 134.128V133.128H151.958L152.222 134.341L153.2 134.128ZM107.515 131.165C86.9916 125.188 72 106.248 72 83.8164H70C70 107.162 85.6025 126.867 106.956 133.085L107.515 131.165ZM105.51 144.753L108.212 132.338L106.258 131.912L103.556 144.327L105.51 144.753ZM105.533 144.545V144.54H103.533V144.545H105.533ZM104.523 146.097C105.027 145.809 105.377 145.323 105.506 144.775L103.56 144.315C103.557 144.327 103.552 144.337 103.546 144.346C103.539 144.354 103.534 144.358 103.531 144.36L104.523 146.097ZM98.1087 149.742L104.521 146.098L103.533 144.359L97.1205 148.003L98.1087 149.742ZM98.1311 149.823C98.1197 149.823 98.1121 149.822 98.108 149.821C98.1038 149.82 98.102 149.82 98.1019 149.819C98.1017 149.819 98.1023 149.82 98.1033 149.82C98.1042 149.821 98.1049 149.821 98.1052 149.821C98.106 149.822 98.0961 149.813 98.0902 149.791C98.0842 149.768 98.0884 149.756 98.0883 149.756C98.0882 149.756 98.0879 149.757 98.0875 149.757C98.087 149.758 98.0867 149.758 98.087 149.758C98.0872 149.758 98.0886 149.756 98.0919 149.754C98.0953 149.751 98.1015 149.746 98.1115 149.74L97.1177 148.005C95.3043 149.043 96.031 151.823 98.1311 151.823V149.823ZM116.235 149.823H98.1311V151.823H116.235V149.823ZM116.279 149.792C116.272 149.811 116.254 149.823 116.235 149.823V151.823C117.083 151.823 117.837 151.302 118.143 150.518L116.279 149.792ZM121.809 133.801L116.266 149.828L118.156 150.482L123.699 134.455L121.809 133.801ZM137.244 133.128H122.754V135.128H137.244V133.128ZM136.299 134.455L141.843 150.482L143.733 149.828L138.189 133.801L136.299 134.455ZM141.856 150.518C142.162 151.302 142.916 151.823 143.763 151.823V149.823C143.745 149.823 143.727 149.811 143.719 149.792L141.856 150.518ZM143.763 151.823H161.868V149.823H143.763V151.823ZM161.868 151.823C163.968 151.823 164.694 149.043 162.881 148.005L161.887 149.74C161.897 149.746 161.904 149.751 161.907 149.754C161.91 149.756 161.912 149.758 161.912 149.758C161.912 149.758 161.912 149.758 161.911 149.757C161.911 149.757 161.911 149.756 161.911 149.756C161.91 149.756 161.915 149.768 161.909 149.791C161.903 149.813 161.893 149.822 161.894 149.821C161.894 149.821 161.895 149.821 161.896 149.82C161.897 149.82 161.897 149.819 161.897 149.819C161.897 149.82 161.895 149.82 161.891 149.821C161.887 149.822 161.879 149.823 161.868 149.823V151.823ZM162.878 148.003L156.466 144.359L155.478 146.098L161.89 149.742L162.878 148.003ZM156.468 144.36C156.465 144.358 156.459 144.354 156.453 144.346C156.447 144.337 156.442 144.327 156.439 144.315L154.493 144.775C154.622 145.323 154.972 145.809 155.476 146.097L156.468 144.36ZM156.466 144.545V144.54H154.466V144.545H156.466ZM156.443 144.327L154.177 133.916L152.222 134.341L154.489 144.753L156.443 144.327ZM161.261 133.128H153.2V135.128H161.261V133.128ZM173.304 121.094C173.304 127.741 167.914 133.128 161.261 133.128V135.128C169.018 135.128 175.304 128.847 175.304 121.094H173.304ZM173.304 59.5728V121.094H175.304V59.5728H173.304ZM148.217 34.5044C162.071 34.5044 173.304 45.7308 173.304 59.5728H175.304C175.304 44.6249 163.174 32.5044 148.217 32.5044V34.5044ZM97.087 34.5044H148.217V32.5044H97.087V34.5044ZM72 59.5728C72 45.7257 83.2332 34.5044 97.087 34.5044V32.5044C82.1303 32.5044 70 44.6195 70 59.5728H72ZM72 83.8164V59.5728H70V83.8164H72Z" fill="black" mask="url(#path-33-inside-1_795_12576)"/>
<path d="M114 100.5C121 111 139 107.5 143 98.5" stroke="black" stroke-linecap="round"/>
<path fill-rule="evenodd" clip-rule="evenodd" d="M107.688 82.8821C107.462 83.661 107.369 84.492 107.433 85.3482C107.725 89.272 111.198 92.2386 115.191 91.9744C119.183 91.7102 122.182 88.3152 121.89 84.3914C121.808 83.2871 121.473 82.2585 120.946 81.3565L107.688 82.8821Z" fill="white"/>
<ellipse rx="0.906348" ry="1.18539" transform="matrix(0.997746 -0.0671612 0.0730498 0.997333 114.495 86.7757)" fill="black"/>
<path d="M107.018 81.9964C109.86 81.9891 116.709 81.7796 121.372 81.0001" stroke="black" stroke-linecap="round"/>
<path d="M125.41 92.1592V96.258C125.41 97.9502 126.781 99.322 128.474 99.322V99.322C130.166 99.322 131.538 97.9502 131.538 96.258V92.1592" stroke="black" stroke-linecap="round"/>
<path fill-rule="evenodd" clip-rule="evenodd" d="M135.226 82.8821C135 83.661 134.907 84.492 134.971 85.3482C135.263 89.272 138.736 92.2386 142.728 91.9744C146.72 91.7102 149.72 88.3152 149.427 84.3914C149.345 83.2871 149.011 82.2585 148.484 81.3565L135.226 82.8821Z" fill="white"/>
<ellipse rx="0.906348" ry="1.18539" transform="matrix(0.997746 -0.0671612 0.0730498 0.997333 142.032 86.7757)" fill="black"/>
<path d="M134.556 81.9964C137.397 81.9891 144.247 81.7796 148.909 81.0001" stroke="black" stroke-linecap="round"/>
<defs>
<linearGradient id="paint0_linear_795_12576" x1="73.6087" y1="28.812" x2="175.21" y2="134.135" gradientUnits="userSpaceOnUse">
<stop offset="0.432292" stop-color="#59A4CF"/>
<stop offset="1" stop-color="#5787AB"/>
</linearGradient>
</defs>
</svg>
