<svg width="222" height="152" viewBox="0 0 222 152" fill="none" xmlns="http://www.w3.org/2000/svg">
<circle cx="95.9999" cy="85" r="65" fill="#EEF4F9"/>
<path d="M204.664 53.3838V81.6988" stroke="#B2C5CF" stroke-linecap="round" stroke-dasharray="3 3"/>
<path d="M176 53.3838L192.605 36.7793L209.034 53.3838H176Z" stroke="#B2C5CF"/>
<path d="M192.604 20V31.1862" stroke="#B2C5CF" stroke-linecap="round"/>
<rect x="190.133" y="31.686" width="5.29223" height="4.5931" rx="1.5" fill="#B2C5CF" stroke="#B2C5CF"/>
<path d="M200.12 53.2091C200.12 55.156 199.347 57.0232 197.97 58.3999C196.593 59.7766 194.726 60.55 192.779 60.55C190.832 60.55 188.965 59.7766 187.588 58.3999C186.212 57.0232 185.438 55.156 185.438 53.2091L192.779 53.2091H200.12Z" fill="#B2C5CF"/>
<path d="M50.0433 128.077C56.6133 122 65.3734 124.587 68.9321 126.435C67.2212 121.576 60.4321 113.048 46.9636 117.812" stroke="#B2C5CF" stroke-linejoin="round"/>
<path d="M65.4416 123.766C63.5938 121.986 57.9682 119.085 50.2484 121.713" stroke="#B2C5CF" stroke-linejoin="round"/>
<path d="M34.2339 128.077H43.6783H52.0962L47.7846 150.046H39.1614L34.2339 128.077Z" fill="#B2C5CF" stroke="#B2C5CF" stroke-linejoin="round"/>
<path d="M39.3669 128.077C36.8347 120.481 31.5239 102.947 30.5384 93.5845C29.5529 84.2222 26.4321 74.6272 24.9949 71C47.0046 84.6328 48.4007 114.732 46.3476 128.077" stroke="#B2C5CF" stroke-linejoin="round"/>
<path d="M33.4127 85.3721C36.5609 92.2159 42.9393 110.338 43.2678 128.077" stroke="#B2C5CF" stroke-linejoin="round"/>
<path d="M34.3939 128.569C31.342 125.993 24.6918 119.905 22.5065 116.158C20.3213 112.411 16.5237 109.137 14.8981 107.969C32.5006 111.664 35.0383 117.041 35.8783 117.609" stroke="#B2C5CF" stroke-linejoin="round"/>
<path d="M15.9999 108.3C19.2633 109.747 26.7885 114.233 30.7825 120.605" stroke="#B2C5CF" stroke-linejoin="round"/>
<line x1="4.5" y1="150.5" x2="77.5" y2="150.5" stroke="#B2C5CF" stroke-linecap="round"/>
<line x1="172.5" y1="150.5" x2="202.5" y2="150.5" stroke="#B2C5CF" stroke-linecap="round"/>
<line x1="208.5" y1="150.5" x2="218.5" y2="150.5" stroke="#B2C5CF" stroke-linecap="round"/>
<path d="M57.7547 106.277C57.7547 120.416 69.2376 131.883 83.4034 131.883H132.133C152.306 131.883 162.129 121.25 161.367 102.692V43.8035C161.367 36.7339 155.626 31 148.543 31H107.251C79.9167 31 57.7547 53.127 57.7547 80.4191V106.282V106.277Z" fill="url(#paint0_linear_795_12591)"/>
<mask id="path-18-inside-1_795_12591" fill="white">
<path fill-rule="evenodd" clip-rule="evenodd" d="M61.5702 108.906C61.5702 123.072 72.8724 134.605 86.9534 134.983L84.7611 145.057V145.063C84.6933 145.35 84.5106 145.6 84.2548 145.746L77.84 149.393C76.911 149.925 77.2868 151.344 78.3568 151.344H96.4685C96.9017 151.344 97.2879 151.078 97.4445 150.677L102.867 134.993H128.048L133.471 150.677C133.627 151.078 134.013 151.344 134.447 151.344H152.558C153.628 151.344 154.004 149.925 153.075 149.393L146.66 145.746C146.405 145.6 146.222 145.35 146.154 145.063V145.057L143.858 134.507C155.859 132.159 164.917 121.588 164.917 108.906V47.3408C164.917 40.1356 159.076 34.2974 151.868 34.2974H111.938C84.1185 34.2974 61.5702 56.8417 61.5702 84.6452V108.906Z"/>
</mask>
<path d="M86.9534 134.983L87.9305 135.196L88.1873 134.016L86.9802 133.984L86.9534 134.983ZM84.7611 145.057L83.784 144.845L83.7611 144.95V145.057H84.7611ZM84.7611 145.063L85.7343 145.293L85.7611 145.179V145.063H84.7611ZM84.2548 145.746L84.749 146.615L84.7508 146.614L84.2548 145.746ZM77.84 149.393L77.3458 148.524L77.343 148.525L77.84 149.393ZM97.4445 150.677L98.3763 151.04L98.3833 151.022L98.3896 151.003L97.4445 150.677ZM102.867 134.993V133.993H102.155L101.922 134.666L102.867 134.993ZM128.048 134.993L128.993 134.666L128.76 133.993H128.048V134.993ZM133.471 150.677L132.525 151.003L132.532 151.022L132.539 151.04L133.471 150.677ZM153.075 149.393L153.572 148.525L153.569 148.524L153.075 149.393ZM146.66 145.746L146.164 146.614L146.166 146.615L146.66 145.746ZM146.154 145.063H145.154V145.179L145.181 145.293L146.154 145.063ZM146.154 145.057H147.154V144.95L147.131 144.845L146.154 145.057ZM143.858 134.507L143.666 133.526L142.664 133.722L142.881 134.72L143.858 134.507ZM86.9802 133.984C73.4391 133.62 62.5702 122.529 62.5702 108.906H60.5702C60.5702 123.616 72.3058 135.59 86.9265 135.983L86.9802 133.984ZM85.7382 145.27L87.9305 135.196L85.9762 134.771L83.784 144.845L85.7382 145.27ZM85.7611 145.063V145.057H83.7611V145.063H85.7611ZM84.7508 146.614C85.2552 146.326 85.6048 145.84 85.7343 145.293L83.7879 144.833C83.7852 144.844 83.78 144.855 83.7737 144.864C83.7675 144.872 83.7618 144.876 83.7588 144.878L84.7508 146.614ZM78.3343 150.262L84.749 146.615L83.7606 144.877L77.3458 148.524L78.3343 150.262ZM78.3568 150.344C78.3453 150.344 78.3378 150.343 78.3336 150.343C78.3295 150.342 78.3276 150.341 78.3275 150.341C78.3273 150.341 78.3279 150.341 78.3288 150.342C78.3298 150.343 78.3304 150.343 78.3307 150.343C78.3314 150.344 78.3214 150.335 78.3154 150.312C78.3094 150.29 78.3136 150.276 78.3136 150.277C78.3135 150.277 78.3133 150.277 78.3129 150.278C78.3124 150.279 78.3121 150.279 78.3124 150.279C78.3126 150.278 78.3141 150.277 78.3174 150.274C78.3208 150.271 78.327 150.267 78.3371 150.261L77.343 148.525C75.5301 149.564 76.2555 152.344 78.3568 152.344V150.344ZM96.4685 150.344H78.3568V152.344H96.4685V150.344ZM96.5128 150.313C96.5051 150.333 96.4873 150.344 96.4685 150.344V152.344C97.3161 152.344 98.0708 151.823 98.3763 151.04L96.5128 150.313ZM101.922 134.666L96.4994 150.35L98.3896 151.003L103.813 135.32L101.922 134.666ZM128.048 133.993H102.867V135.993H128.048V133.993ZM127.103 135.32L132.525 151.003L134.416 150.35L128.993 134.666L127.103 135.32ZM132.539 151.04C132.844 151.823 133.599 152.344 134.447 152.344V150.344C134.428 150.344 134.41 150.333 134.402 150.313L132.539 151.04ZM134.447 152.344H152.558V150.344H134.447V152.344ZM152.558 152.344C154.66 152.344 155.385 149.564 153.572 148.525L152.578 150.261C152.588 150.267 152.594 150.271 152.598 150.274C152.601 150.277 152.602 150.278 152.603 150.279C152.603 150.279 152.603 150.279 152.602 150.278C152.602 150.277 152.602 150.277 152.602 150.277C152.601 150.276 152.606 150.29 152.6 150.312C152.594 150.335 152.584 150.344 152.584 150.343C152.585 150.343 152.585 150.343 152.586 150.342C152.587 150.341 152.588 150.341 152.588 150.341C152.587 150.341 152.586 150.342 152.581 150.343C152.577 150.343 152.57 150.344 152.558 150.344V152.344ZM153.569 148.524L147.155 144.877L146.166 146.615L152.581 150.262L153.569 148.524ZM147.156 144.878C147.153 144.876 147.148 144.872 147.141 144.864C147.135 144.855 147.13 144.844 147.127 144.833L145.181 145.293C145.31 145.84 145.66 146.326 146.164 146.614L147.156 144.878ZM147.154 145.063V145.057H145.154V145.063H147.154ZM147.131 144.845L144.835 134.294L142.881 134.72L145.177 145.27L147.131 144.845ZM163.917 108.906C163.917 121.1 155.207 131.268 143.666 133.526L144.05 135.488C156.511 133.051 165.917 122.076 165.917 108.906H163.917ZM163.917 47.3408V108.906H165.917V47.3408H163.917ZM151.868 35.2974C158.524 35.2974 163.917 40.6883 163.917 47.3408H165.917C165.917 39.583 159.628 33.2974 151.868 33.2974V35.2974ZM111.938 35.2974H151.868V33.2974H111.938V35.2974ZM62.5702 84.6452C62.5702 57.3943 84.6705 35.2974 111.938 35.2974V33.2974C83.5665 33.2974 60.5702 56.2891 60.5702 84.6452H62.5702ZM62.5702 108.906V84.6452H60.5702V108.906H62.5702Z" fill="black" mask="url(#path-18-inside-1_795_12591)"/>
<path d="M119.423 92.5936C119.488 93.5188 119.756 94.4201 120.211 95.2462C120.667 96.0723 121.301 96.8069 122.077 97.4081C122.853 98.0093 123.757 98.4654 124.736 98.7502C125.715 99.035 126.75 99.143 127.783 99.0681C128.816 98.9931 129.825 98.7367 130.755 98.3134C131.684 97.8901 132.514 97.3082 133.198 96.601C133.882 95.8938 134.407 95.0751 134.742 94.1916C135.077 93.3082 135.216 92.3773 135.15 91.4521L127.286 92.0228L119.423 92.5936Z" fill="white"/>
<path d="M94.4965 94.9319C94.5617 95.8571 94.8303 96.7585 95.287 97.5844C95.7437 98.4104 96.3796 99.1449 97.1583 99.746C97.937 100.347 98.8432 100.803 99.8253 101.087C100.807 101.372 101.846 101.48 102.882 101.405C103.918 101.329 104.931 101.073 105.863 100.649C106.796 100.226 107.629 99.6436 108.315 98.9362C109.002 98.2289 109.528 97.41 109.864 96.5265C110.201 95.6429 110.34 94.712 110.275 93.7868L102.386 94.3594L94.4965 94.9319Z" fill="white"/>
<path d="M112.217 99.5679V103.721C112.217 105.398 113.576 106.757 115.253 106.757V106.757C116.93 106.757 118.289 105.398 118.289 103.721V99.5679" stroke="black" stroke-linecap="round"/>
<mask id="path-23-inside-2_795_12591" fill="white">
<path d="M110.275 93.7868C110.143 91.9183 109.186 90.1866 107.613 88.9728C106.04 87.7589 103.981 87.1623 101.889 87.3141C99.7968 87.466 97.8425 88.3539 96.4561 89.7825C95.0697 91.2111 94.3648 93.0634 94.4965 94.9319L102.386 94.3594L110.275 93.7868Z"/>
</mask>
<path d="M110.275 93.7868C110.143 91.9183 109.186 90.1866 107.613 88.9728C106.04 87.7589 103.981 87.1623 101.889 87.3141C99.7968 87.466 97.8425 88.3539 96.4561 89.7825C95.0697 91.2111 94.3648 93.0634 94.4965 94.9319L102.386 94.3594L110.275 93.7868Z" stroke="black" stroke-width="2" mask="url(#path-23-inside-2_795_12591)"/>
<mask id="path-24-inside-3_795_12591" fill="white">
<path d="M135.195 91.5046C134.981 89.6439 133.949 87.9572 132.324 86.8157C130.7 85.6741 128.617 85.1712 126.533 85.4175C124.45 85.6638 122.536 86.6392 121.214 88.1291C119.892 89.6189 119.269 91.5013 119.482 93.362L127.339 92.4333L135.195 91.5046Z"/>
</mask>
<path d="M135.195 91.5046C134.981 89.6439 133.949 87.9572 132.324 86.8157C130.7 85.6741 128.617 85.1712 126.533 85.4175C124.45 85.6638 122.536 86.6392 121.214 88.1291C119.892 89.6189 119.269 91.5013 119.482 93.362L127.339 92.4333L135.195 91.5046Z" stroke="black" stroke-width="2" mask="url(#path-24-inside-3_795_12591)"/>
<path d="M102.851 93.9558C102.887 94.3792 102.788 94.8031 102.577 95.1343C102.367 95.4655 102.061 95.677 101.727 95.722C101.393 95.7671 101.059 95.6422 100.798 95.3747C100.537 95.1072 100.37 94.7191 100.335 94.2958L101.593 94.1258L102.851 93.9558Z" fill="black"/>
<path d="M128.437 92.0295C128.472 92.4529 128.374 92.8768 128.163 93.208C127.952 93.5393 127.646 93.7507 127.313 93.7958C126.979 93.8408 126.645 93.7159 126.383 93.4484C126.122 93.1809 125.956 92.7928 125.92 92.3695L127.179 92.1995L128.437 92.0295Z" fill="black"/>
<path d="M94.3692 82.1209C94.1346 82.2665 94.0623 82.5747 94.2078 82.8094C94.3534 83.044 94.6616 83.1163 94.8963 82.9708L94.3692 82.1209ZM109.472 84.6502C109.748 84.6667 109.985 84.4566 110.001 84.1809C110.018 83.9053 109.808 83.6685 109.532 83.652L109.472 84.6502ZM94.8963 82.9708C96.2506 82.1308 97.4711 81.7985 98.6184 81.7614C99.7732 81.724 100.884 81.9847 102.023 82.3765C102.593 82.5726 103.163 82.7989 103.749 83.0347C104.33 83.2691 104.929 83.5135 105.538 83.7375C106.76 84.1864 108.058 84.5658 109.472 84.6502L109.532 83.652C108.258 83.5759 107.064 83.233 105.883 82.7989C105.292 82.5815 104.711 82.3443 104.122 82.1072C103.537 81.8714 102.946 81.6362 102.349 81.4309C101.155 81.0202 99.9128 80.719 98.5861 80.7619C97.2518 80.805 95.8622 81.195 94.3692 82.1209L94.8963 82.9708Z" fill="black"/>
<path d="M120.049 83.6971C119.799 83.8128 119.689 84.1098 119.805 84.3606C119.92 84.6113 120.218 84.7208 120.468 84.6052L120.049 83.6971ZM133.919 78.7992C134.155 78.9428 134.463 78.868 134.606 78.6322C134.75 78.3963 134.675 78.0887 134.439 77.9451L133.919 78.7992ZM120.468 84.6052C121.373 84.1877 122.509 83.4865 123.723 82.7234C124.95 81.9525 126.271 81.1082 127.582 80.3735C128.896 79.637 130.169 79.0285 131.292 78.7187C132.427 78.4053 133.306 78.4257 133.919 78.7992L134.439 77.9451C133.471 77.3554 132.253 77.416 131.026 77.7547C129.786 78.097 128.429 78.7527 127.093 79.5011C125.755 80.2513 124.407 81.1125 123.191 81.8767C121.963 82.6487 120.884 83.312 120.049 83.6971L120.468 84.6052Z" fill="black"/>
<path d="M114.881 112.995C111.295 113.102 103.491 111.518 100.96 104.327" stroke="black" stroke-linecap="round" stroke-linejoin="round"/>
<path d="M102.858 103.685C101.698 103.792 99.1885 104.584 98.4292 106.895" stroke="black" stroke-linecap="round" stroke-linejoin="round"/>
<defs>
<linearGradient id="paint0_linear_795_12591" x1="57.7547" y1="31" x2="158.601" y2="134.616" gradientUnits="userSpaceOnUse">
<stop offset="0.432292" stop-color="#BC5E8F"/>
<stop offset="1" stop-color="#FF87C3"/>
</linearGradient>
</defs>
</svg>
