<svg width="222" height="151" viewBox="0 0 222 151" fill="none" xmlns="http://www.w3.org/2000/svg">
<path d="M42.1167 32.6381L26.6771 6.58366C25.5512 5.05577 22.4311 2 18.9572 2C14.6148 2 10.393 4.77432 10.393 11.2879C10.393 16.4988 10.393 20.0532 10.393 21.179C10.6745 23.3904 12.7813 27.8132 18.9572 27.8132C25.1331 27.8132 39.3826 27.8132 45.7354 27.8132" stroke="#B2C5CF" stroke-linecap="round"/>
<path d="M10.5136 10.2021L4 19.3695H10.5136" stroke="#B2C5CF" stroke-linecap="round"/>
<path d="M20.4047 27.813V32.9998" stroke="#B2C5CF" stroke-linecap="round"/>
<path d="M27.642 27.813V32.9998" stroke="#B2C5CF" stroke-linecap="round"/>
<path d="M134.38 0.669755L85.7429 12.8938C77.9924 14.8385 71.8648 20.8015 69.6629 28.533L55.8657 77.0293C53.6638 84.7608 55.731 93.0818 61.2862 98.8618L96.1262 135.134C101.675 140.914 109.87 143.279 117.62 141.327L166.257 129.103C174.008 127.159 180.135 121.196 182.337 113.464L196.134 64.9679C198.336 57.2364 196.269 48.9154 190.714 43.1354L155.881 6.86308C150.325 1.0831 142.13 -1.27498 134.38 0.669755Z" fill="#EEF4F9"/>
<path d="M180.423 150H203.889C208.667 150 212.778 146.619 213.701 141.931L216.652 126.931C217.868 120.751 213.138 115 206.841 115H177.856C171.66 115 166.955 120.578 168 126.687L170.566 141.687C171.388 146.489 175.551 150 180.423 150Z" stroke="#B2C5CF"/>
<path d="M168.995 126.907H207.931" stroke="#B2C5CF" stroke-linecap="round"/>
<path d="M185.169 91.2651V115.226" stroke="#B2C5CF" stroke-linecap="round"/>
<path d="M178.28 115.226V98.1538C178.28 94.3493 181.364 91.2651 185.168 91.2651V91.2651C188.973 91.2651 192.057 94.3493 192.057 98.1538V115.226" stroke="#B2C5CF" stroke-linecap="round"/>
<path d="M180.676 115.226C180.277 108.836 180.257 95.1586 183.372 91.5645" stroke="#B2C5CF" stroke-linecap="round"/>
<path d="M178.28 97.5546L176.782 96.9556" stroke="#B2C5CF" stroke-linecap="round"/>
<path d="M191.159 94.15L192.277 92.9878" stroke="#B2C5CF" stroke-linecap="round"/>
<path d="M185.087 91.3799L185.132 89.7676" stroke="#B2C5CF" stroke-linecap="round"/>
<path d="M178.28 102.347H176.782" stroke="#B2C5CF" stroke-linecap="round"/>
<path d="M193.854 101.149H192.357" stroke="#B2C5CF" stroke-linecap="round"/>
<path d="M193.854 107.738H192.357" stroke="#B2C5CF" stroke-linecap="round"/>
<path d="M178.28 107.738H176.782" stroke="#B2C5CF" stroke-linecap="round"/>
<path d="M197.149 71.7969L197.149 115.525" stroke="#B2C5CF" stroke-linecap="round"/>
<path d="M187.565 91.5645V81.3812C187.565 76.0879 191.856 71.7969 197.149 71.7969V71.7969C202.442 71.7969 206.733 76.0879 206.733 81.3812V115.525" stroke="#B2C5CF" stroke-linecap="round"/>
<path d="M190.56 92.7626C190.812 81.7536 190.56 76.5244 195.352 72.396" stroke="#B2C5CF" stroke-linecap="round"/>
<path d="M188.463 75.9901L186.965 75.3911" stroke="#B2C5CF" stroke-linecap="round"/>
<path d="M203.738 74.3824L204.856 73.2202" stroke="#B2C5CF" stroke-linecap="round"/>
<path d="M197.067 71.6123L197.112 70" stroke="#B2C5CF" stroke-linecap="round"/>
<path d="M187.265 83.1782H185.767" stroke="#B2C5CF" stroke-linecap="round"/>
<path d="M208.231 81.9805H206.733" stroke="#B2C5CF" stroke-linecap="round"/>
<path d="M208.231 91.5645H206.733" stroke="#B2C5CF" stroke-linecap="round"/>
<path d="M208.231 102.347H206.733" stroke="#B2C5CF" stroke-linecap="round"/>
<path d="M55.6341 48V77H64V20H55.6341V33.5H15V40H55.6341" stroke="#B2C5CF"/>
<line x1="18.5" y1="150.5" x2="57.5" y2="150.5" stroke="#B2C5CF" stroke-linecap="round"/>
<line x1="162.5" y1="150.5" x2="221.5" y2="150.5" stroke="#B2C5CF" stroke-linecap="round"/>
<line x1="0.5" y1="150.5" x2="11.5" y2="150.5" stroke="#B2C5CF" stroke-linecap="round"/>
<path d="M101.269 131.7C70.9637 127.227 79.0741 104.624 83.2172 75.8794C87.2517 47.914 56.0931 24.1708 111.438 27.2735C118.172 27.6502 124.829 29.1047 131.015 31.7887C153.128 41.3791 167.083 63.9398 163.648 87.7457C159.505 116.491 131.574 136.174 101.269 131.7Z" fill="url(#paint0_linear_795_12630)"/>
<mask id="path-33-inside-1_795_12630" fill="white">
<path fill-rule="evenodd" clip-rule="evenodd" d="M77.3035 88.7896C73.792 110.011 71.0613 126.515 89.6728 132.42L87.0714 144.517V144.523C87.0041 144.81 86.8231 145.061 86.5696 145.208L80.2127 148.865C79.292 149.399 79.6645 150.822 80.7248 150.822H98.6731C99.1024 150.822 99.4852 150.555 99.6403 150.152L104.952 134.606C109.813 134.619 114.555 134.009 119.083 132.846L124.996 150.152C125.152 150.555 125.534 150.822 125.964 150.822H143.912C144.972 150.822 145.345 149.399 144.424 148.865L138.067 145.208C137.814 145.061 137.633 144.81 137.565 144.523V144.517L133.738 126.719C146.678 118.934 156.039 105.936 158.305 90.2203C161.652 66.9951 148.483 44.9838 127.379 35.1789C120.924 32.1757 113.895 30.5485 106.778 30.1561C69.3433 28.0916 72.061 38.5419 76.1554 54.2867C78.0273 61.4848 80.187 69.7896 78.9293 78.5109C78.4207 82.0375 77.8525 85.4712 77.3035 88.7896Z"/>
</mask>
<path d="M89.6728 132.42L90.6505 132.63L90.8416 131.742L89.9753 131.467L89.6728 132.42ZM77.3035 88.7896L76.3169 88.6264L77.3035 88.7896ZM87.0714 144.517L86.0937 144.307L86.0714 144.411V144.517H87.0714ZM87.0714 144.523L88.0451 144.75L88.0714 144.638V144.523H87.0714ZM86.5696 145.208L87.0683 146.075L87.0701 146.074L86.5696 145.208ZM80.2127 148.865L79.7141 147.998L79.7113 148L80.2127 148.865ZM99.6403 150.152L100.573 150.512L100.58 150.494L100.587 150.476L99.6403 150.152ZM104.952 134.606L104.955 133.606L104.238 133.604L104.006 134.283L104.952 134.606ZM119.083 132.846L120.029 132.522L119.73 131.647L118.834 131.877L119.083 132.846ZM124.996 150.152L124.05 150.476L124.056 150.494L124.063 150.512L124.996 150.152ZM144.424 148.865L144.926 148L144.923 147.998L144.424 148.865ZM138.067 145.208L137.567 146.074L137.568 146.075L138.067 145.208ZM137.565 144.523H136.565V144.638L136.592 144.75L137.565 144.523ZM137.565 144.517H138.565V144.411L138.543 144.307L137.565 144.517ZM133.738 126.719L133.222 125.862L132.61 126.23L132.76 126.929L133.738 126.719ZM158.305 90.2203L159.295 90.363L159.295 90.3629L158.305 90.2203ZM127.379 35.1789L126.958 36.0856L126.958 36.0858L127.379 35.1789ZM106.778 30.1561L106.723 31.1546L106.723 31.1546L106.778 30.1561ZM76.1554 54.2867L75.1876 54.5384L76.1554 54.2867ZM78.9293 78.5109L79.9191 78.6537L79.9191 78.6536L78.9293 78.5109ZM89.9753 131.467C85.4597 130.034 82.3157 127.985 80.156 125.448C77.9962 122.911 76.7605 119.815 76.1794 116.19C75.0062 108.87 76.5244 99.6235 78.29 88.9529L76.3169 88.6264C74.5711 99.1772 72.9682 108.793 74.2046 116.507C74.8284 120.399 76.1802 123.863 78.6331 126.744C81.0862 129.626 84.5802 131.853 89.3704 133.373L89.9753 131.467ZM88.049 144.728L90.6505 132.63L88.6952 132.21L86.0937 144.307L88.049 144.728ZM88.0714 144.523V144.517H86.0714V144.523H88.0714ZM87.0701 146.074C87.5729 145.783 87.9178 145.295 88.0451 144.75L86.0976 144.295C86.0944 144.308 86.0887 144.32 86.0823 144.329C86.0759 144.338 86.0707 144.341 86.0692 144.342L87.0701 146.074ZM80.7114 149.732L87.0683 146.075L86.071 144.341L79.7141 147.998L80.7114 149.732ZM80.7248 149.822C80.7056 149.822 80.6997 149.819 80.7024 149.82C80.7047 149.821 80.7076 149.823 80.7092 149.824C80.7109 149.825 80.7 149.816 80.6933 149.79C80.6867 149.765 80.6909 149.749 80.6918 149.746C80.692 149.746 80.6919 149.746 80.6917 149.747C80.6914 149.747 80.6912 149.747 80.6915 149.747C80.6917 149.747 80.693 149.745 80.6961 149.743C80.6991 149.74 80.7049 149.736 80.7142 149.73L79.7113 148C77.936 149.029 78.6078 151.822 80.7248 151.822V149.822ZM98.6731 149.822H80.7248V151.822H98.6731V149.822ZM98.7072 149.793C98.7025 149.805 98.6957 149.812 98.6895 149.817C98.6835 149.821 98.6785 149.822 98.6731 149.822V151.822C99.524 151.822 100.273 151.293 100.573 150.512L98.7072 149.793ZM104.006 134.283L98.694 149.829L100.587 150.476L105.898 134.93L104.006 134.283ZM118.834 131.877C114.388 133.02 109.73 133.619 104.955 133.606L104.95 135.606C109.895 135.619 114.722 134.999 119.332 133.814L118.834 131.877ZM118.137 133.169L124.05 150.476L125.943 149.829L120.029 132.522L118.137 133.169ZM124.063 150.512C124.364 151.293 125.113 151.822 125.964 151.822V149.822C125.958 149.822 125.953 149.821 125.947 149.817C125.941 149.812 125.934 149.805 125.93 149.793L124.063 150.512ZM125.964 151.822H143.912V149.822H125.964V151.822ZM143.912 151.822C146.029 151.822 146.701 149.029 144.926 148L143.923 149.73C143.932 149.736 143.938 149.74 143.941 149.743C143.944 149.745 143.945 149.747 143.945 149.747C143.946 149.747 143.945 149.747 143.945 149.747C143.945 149.746 143.945 149.746 143.945 149.746C143.946 149.749 143.95 149.765 143.943 149.79C143.937 149.816 143.926 149.825 143.928 149.824C143.929 149.823 143.932 149.821 143.934 149.82C143.937 149.819 143.931 149.822 143.912 149.822V151.822ZM144.923 147.998L138.566 144.341L137.568 146.075L143.925 149.732L144.923 147.998ZM138.568 144.342C138.566 144.341 138.561 144.338 138.555 144.329C138.548 144.32 138.542 144.308 138.539 144.295L136.592 144.75C136.719 145.295 137.064 145.783 137.567 146.074L138.568 144.342ZM138.565 144.523V144.517H136.565V144.523H138.565ZM138.543 144.307L134.716 126.509L132.76 126.929L136.588 144.728L138.543 144.307ZM157.315 90.0775C155.095 105.475 145.924 118.22 133.222 125.862L134.253 127.576C147.432 119.647 156.982 106.397 159.295 90.363L157.315 90.0775ZM126.958 36.0858C147.697 45.7213 160.594 67.3273 157.315 90.0777L159.295 90.3629C162.71 66.6629 149.269 44.2463 127.801 34.272L126.958 36.0858ZM106.723 31.1546C113.725 31.5407 120.629 33.1411 126.958 36.0856L127.801 34.2722C121.22 31.2103 114.064 29.5564 106.833 29.1576L106.723 31.1546ZM77.1232 54.035C76.0927 50.0722 75.1829 46.5608 74.9456 43.5062C74.7097 40.4697 75.1539 38.0515 76.6715 36.1709C78.2023 34.2738 80.9732 32.7389 85.8104 31.824C90.6398 30.9105 97.3961 30.6402 106.723 31.1546L106.833 29.1576C97.4419 28.6397 90.5001 28.9015 85.4387 29.8589C80.3849 30.8147 77.0722 32.4894 75.115 34.9149C73.1445 37.3569 72.6962 40.3744 72.9516 43.6611C73.2056 46.9296 74.1709 50.6288 75.1876 54.5384L77.1232 54.035ZM79.9191 78.6536C81.2098 69.7031 78.9885 61.2077 77.1232 54.035L75.1876 54.5384C77.0661 61.762 79.1642 69.876 77.9396 78.3682L79.9191 78.6536ZM78.29 88.9529C78.8389 85.6359 79.4087 82.1921 79.9191 78.6537L77.9396 78.3682C77.4326 81.8829 76.8662 85.3065 76.3169 88.6264L78.29 88.9529Z" fill="black" mask="url(#path-33-inside-1_795_12630)"/>
<path d="M101.718 80.9226C101.49 81.0784 101.431 81.3895 101.587 81.6175C101.743 81.8456 102.054 81.9042 102.282 81.7484L101.718 80.9226ZM115.967 83.4989C116.243 83.517 116.481 83.3083 116.499 83.0328C116.517 82.7573 116.308 82.5192 116.033 82.5011L115.967 83.4989ZM102.282 81.7484C103.552 80.8809 104.691 80.5416 105.755 80.5036C106.829 80.4654 107.865 80.7321 108.935 81.1373C109.469 81.3399 110.005 81.5741 110.556 81.8186C111.103 82.0614 111.668 82.3153 112.243 82.548C113.394 83.0142 114.624 83.4106 115.967 83.4989L116.033 82.5011C114.844 82.4229 113.728 82.0703 112.618 81.6211C112.062 81.3961 111.516 81.1506 110.962 80.9045C110.411 80.66 109.852 80.4157 109.289 80.2022C108.162 79.7752 106.983 79.4593 105.72 79.5043C104.448 79.5496 103.129 79.9593 101.718 80.9226L102.282 81.7484Z" fill="black"/>
<path d="M136.852 75.6544C137.121 75.7184 137.287 75.988 137.223 76.2567C137.159 76.5253 136.889 76.6912 136.621 76.6272L136.852 75.6544ZM124.017 82.3798C123.76 82.4805 123.47 82.3538 123.369 82.0967C123.268 81.8396 123.395 81.5495 123.652 81.4487L124.017 82.3798ZM136.621 76.6272C135.165 76.2806 133.976 76.3433 132.938 76.6452C131.892 76.9491 130.971 77.5035 130.061 78.1832C129.606 78.5232 129.159 78.8902 128.702 79.2703C128.246 79.648 127.779 80.0398 127.295 80.417C126.326 81.1726 125.267 81.8899 124.017 82.3798L123.652 81.4487C124.773 81.0094 125.745 80.3578 126.68 79.6283C127.149 79.2629 127.602 78.8832 128.063 78.5008C128.521 78.1206 128.985 77.7389 129.463 77.3821C130.419 76.668 131.451 76.0362 132.659 75.6849C133.874 75.3317 135.239 75.2703 136.852 75.6544L136.621 76.6272Z" fill="black"/>
<path d="M117 93V97.0988C117 98.791 118.372 100.163 120.064 100.163V100.163C121.756 100.163 123.128 98.791 123.128 97.0988V93" stroke="black" stroke-linecap="round"/>
<ellipse cx="106.967" cy="88.9804" rx="6.96733" ry="6.98045" fill="white"/>
<ellipse cx="106.677" cy="90.7254" rx="0.870917" ry="1.16341" fill="black"/>
<ellipse cx="132.967" cy="88.9804" rx="6.96733" ry="6.98045" fill="white"/>
<ellipse cx="132.677" cy="90.7254" rx="0.870917" ry="1.16341" fill="black"/>
<path d="M108 101C108.667 103 111.5 106.7 117.5 105.5" stroke="black" stroke-linecap="round"/>
<defs>
<linearGradient id="paint0_linear_795_12630" x1="78.0707" y1="27" x2="181.298" y2="111.374" gradientUnits="userSpaceOnUse">
<stop offset="0.432292" stop-color="#56BEFF"/>
<stop offset="1" stop-color="#59A4CF"/>
</linearGradient>
</defs>
</svg>
