<svg width="222" height="157" viewBox="0 0 222 157" fill="none" xmlns="http://www.w3.org/2000/svg">
<path d="M40.4228 96.6665C30.2312 85.3875 34.2771 67.4177 48.319 61.5949L120.779 31.5476C131.011 27.3044 142.803 31.331 148.303 40.9464L177.68 92.306C183.713 102.853 180.053 116.293 169.506 122.326L115.065 153.466C106.09 158.6 94.7504 156.791 87.8183 149.119L40.4228 96.6665Z" fill="#EEF4F9"/>
<path d="M37.9071 21H17.9602L3 50.4972C19.4779 58.6522 43.6165 53.8951 52 50.4972L37.9071 21Z" stroke="#B2C5CF"/>
<path d="M26 55L26 137" stroke="#B2C5CF"/>
<rect x="15.5" y="137.5" width="22" height="7" stroke="#B2C5CF"/>
<rect x="11.5" y="144.5" width="30" height="6" stroke="#B2C5CF"/>
<path d="M176.522 123.56H191.423H198.139C204.855 123.56 205.484 114.116 202.966 111.387C207.793 111.387 209.262 101.733 200.657 101.733C195.41 76.3393 165.819 88.0919 169.806 104.672C162.461 108.029 162.671 123.56 176.522 123.56Z" stroke="#B2C5CF"/>
<path d="M185.547 123.56V137.621" stroke="#B2C5CF"/>
<path d="M177.991 137.621H185.981H193.102L189.454 150.213H182.16L177.991 137.621Z" stroke="#B2C5CF" stroke-linejoin="round"/>
<circle cx="180.09" cy="104.042" r="0.839474" fill="#B2C5CF"/>
<circle cx="189.744" cy="101.104" r="0.839474" fill="#B2C5CF"/>
<circle cx="198.139" cy="107.819" r="0.839474" fill="#B2C5CF"/>
<circle cx="188.905" cy="111.597" r="0.839474" fill="#B2C5CF"/>
<circle cx="175.473" cy="114.955" r="0.839474" fill="#B2C5CF"/>
<circle cx="193.522" cy="118.313" r="0.839474" fill="#B2C5CF"/>
<circle cx="200.237" cy="116.214" r="0.839474" fill="#B2C5CF"/>
<circle cx="183.868" cy="118.733" r="0.839474" fill="#B2C5CF"/>
<line x1="146.5" y1="150.5" x2="219.5" y2="150.5" stroke="#B2C5CF" stroke-linecap="round"/>
<line x1="46.5" y1="150.5" x2="55.5" y2="150.5" stroke="#B2C5CF" stroke-linecap="round"/>
<path fill-rule="evenodd" clip-rule="evenodd" d="M116.844 132.331C146.003 132.331 169.642 109.198 169.642 80.6657C169.642 52.1333 146.008 29 116.844 29C87.6791 29 64.04 55.0042 64.04 83.5366C64.04 84.7514 64.0815 85.9558 64.1646 87.1499C64.4398 91.0798 62.6846 94.8956 59.5064 97.2266C54.5885 100.84 51.2648 105.305 50.8027 111.529C49.9718 122.815 59.2 132.331 70.5366 132.331H112.996C113.489 132.331 113.982 132.316 114.465 132.279C114.465 132.279 114.465 132.279 114.47 132.279C115.26 132.316 116.049 132.331 116.839 132.331H116.844Z" fill="url(#paint0_linear_795_12606)"/>
<mask id="path-20-inside-1_795_12606" fill="white">
<path fill-rule="evenodd" clip-rule="evenodd" d="M142.257 129.851C159.851 121.556 171.995 103.924 171.995 83.5105C171.995 55.1234 148.511 32.1147 119.544 32.1147C90.5769 32.1147 66.6262 55.1234 66.6262 83.5105C66.6262 84.6059 66.6625 85.6961 66.73 86.7707C66.9897 90.8772 65.6602 94.8591 62.3522 97.3043C57.1071 101.182 53.7472 107.454 53.8926 114.509C54.1263 125.733 63.8842 134.906 75.1117 134.906H86.4792L84.3769 144.568V144.573C84.3094 144.858 84.1277 145.108 83.8732 145.253L77.4909 148.882C76.5665 149.411 76.9404 150.823 78.005 150.823H96.0251C96.4562 150.823 96.8405 150.559 96.9963 150.159L102.27 134.906H115.722C116.215 134.906 116.704 134.891 117.186 134.854C117.971 134.891 118.755 134.906 119.544 134.906C122.204 134.906 124.817 134.712 127.37 134.338L132.84 150.159C132.996 150.559 133.38 150.823 133.811 150.823H151.832C152.896 150.823 153.27 149.411 152.346 148.882L145.963 145.253C145.709 145.108 145.527 144.858 145.46 144.573V144.568L142.257 129.851Z"/>
</mask>
<path d="M142.257 129.851L141.831 128.946L141.111 129.286L141.28 130.063L142.257 129.851ZM66.73 86.7707L65.732 86.8334L65.732 86.8339L66.73 86.7707ZM62.3522 97.3043L61.7578 96.5001L61.7577 96.5002L62.3522 97.3043ZM53.8926 114.509L52.8928 114.529L52.8928 114.53L53.8926 114.509ZM86.4792 134.906L87.4564 135.119L87.7202 133.906H86.4792V134.906ZM84.3769 144.568L83.3998 144.355L83.3769 144.46V144.568H84.3769ZM84.3769 144.573L85.3501 144.803L85.3769 144.689V144.573H84.3769ZM83.8732 145.253L84.3675 146.122L84.3692 146.121L83.8732 145.253ZM77.4909 148.882L76.9966 148.012L76.9938 148.014L77.4909 148.882ZM96.9963 150.159L97.928 150.522L97.935 150.504L97.9414 150.486L96.9963 150.159ZM102.27 134.906V133.906H101.557L101.325 134.579L102.27 134.906ZM117.186 134.854L117.233 133.855L117.172 133.853L117.111 133.857L117.186 134.854ZM127.37 134.338L128.315 134.011L128.045 133.228L127.225 133.349L127.37 134.338ZM132.84 150.159L131.895 150.486L131.901 150.504L131.908 150.522L132.84 150.159ZM152.346 148.882L152.843 148.014L152.84 148.012L152.346 148.882ZM145.963 145.253L145.467 146.121L145.469 146.122L145.963 145.253ZM145.46 144.573H144.46V144.689L144.486 144.803L145.46 144.573ZM145.46 144.568H146.46V144.46L146.437 144.355L145.46 144.568ZM170.995 83.5105C170.995 103.514 159.096 120.807 141.831 128.946L142.684 130.755C160.607 122.305 172.995 104.334 172.995 83.5105H170.995ZM119.544 33.1147C147.978 33.1147 170.995 55.6948 170.995 83.5105H172.995C172.995 54.5521 149.044 31.1147 119.544 31.1147V33.1147ZM67.6262 83.5105C67.6262 55.7062 91.0982 33.1147 119.544 33.1147V31.1147C90.0556 31.1147 65.6262 54.5407 65.6262 83.5105H67.6262ZM67.728 86.708C67.6618 85.6532 67.6262 84.5839 67.6262 83.5105H65.6262C65.6262 84.6279 65.6632 85.7391 65.732 86.8334L67.728 86.708ZM62.9466 98.1084C66.5979 95.4095 68.0029 91.0555 67.728 86.7076L65.732 86.8339C65.9764 90.6989 64.7226 94.3086 61.7578 96.5001L62.9466 98.1084ZM54.8924 114.488C54.754 107.772 57.9508 101.802 62.9467 98.1084L61.7577 96.5002C56.2635 100.562 52.7404 107.136 52.8928 114.529L54.8924 114.488ZM75.1117 133.906C64.4043 133.906 55.1143 125.144 54.8924 114.488L52.8928 114.53C53.1383 126.322 63.3641 135.906 75.1117 135.906V133.906ZM86.4792 133.906H75.1117V135.906H86.4792V133.906ZM85.3541 144.78L87.4564 135.119L85.5021 134.694L83.3998 144.355L85.3541 144.78ZM85.3769 144.573V144.568H83.3769V144.573H85.3769ZM84.3692 146.121C84.8723 145.834 85.221 145.349 85.3501 144.803L83.4038 144.343C83.4012 144.354 83.3963 144.364 83.3904 144.372C83.3847 144.38 83.3796 144.383 83.3772 144.385L84.3692 146.121ZM77.9851 149.751L84.3675 146.122L83.3789 144.384L76.9966 148.012L77.9851 149.751ZM78.005 149.823C77.9939 149.823 77.9867 149.822 77.9828 149.822C77.9808 149.821 77.9795 149.821 77.9787 149.821C77.9783 149.821 77.978 149.821 77.9778 149.821C77.9776 149.821 77.9776 149.821 77.9776 149.821C77.9775 149.821 77.9776 149.821 77.9777 149.821C77.9779 149.821 77.978 149.821 77.9782 149.821C77.9787 149.821 77.9792 149.821 77.9797 149.822C77.9809 149.822 77.9818 149.823 77.9823 149.823C77.9839 149.825 77.9745 149.817 77.9687 149.795C77.963 149.773 77.9671 149.761 77.9667 149.763C77.9666 149.763 77.9662 149.764 77.9657 149.765C77.9651 149.766 77.9646 149.766 77.9647 149.766C77.9647 149.766 77.966 149.765 77.9691 149.762C77.9723 149.759 77.9782 149.755 77.9879 149.749L76.9938 148.014C75.1858 149.05 75.9089 151.823 78.005 151.823V149.823ZM96.0251 149.823H78.005V151.823H96.0251V149.823ZM96.0645 149.796C96.0576 149.814 96.0417 149.823 96.0251 149.823V151.823C96.8706 151.823 97.6234 151.304 97.928 150.522L96.0645 149.796ZM101.325 134.579L96.0512 149.832L97.9414 150.486L103.215 135.233L101.325 134.579ZM115.722 133.906H102.27V135.906H115.722V133.906ZM117.111 133.857C116.657 133.891 116.195 133.906 115.722 133.906V135.906C116.236 135.906 116.75 135.89 117.262 135.851L117.111 133.857ZM119.544 133.906C118.768 133.906 117.999 133.891 117.233 133.855L117.14 135.853C117.942 135.89 118.742 135.906 119.544 135.906V133.906ZM127.225 133.349C124.72 133.716 122.155 133.906 119.544 133.906V135.906C122.252 135.906 124.914 135.709 127.515 135.327L127.225 133.349ZM126.425 134.665L131.895 150.486L133.785 149.832L128.315 134.011L126.425 134.665ZM131.908 150.522C132.213 151.304 132.966 151.823 133.811 151.823V149.823C133.795 149.823 133.779 149.814 133.772 149.796L131.908 150.522ZM133.811 151.823H151.832V149.823H133.811V151.823ZM151.832 151.823C153.928 151.823 154.651 149.05 152.843 148.014L151.849 149.749C151.858 149.755 151.864 149.759 151.867 149.762C151.871 149.765 151.872 149.766 151.872 149.766C151.872 149.766 151.871 149.766 151.871 149.765C151.87 149.764 151.87 149.763 151.87 149.763C151.869 149.761 151.873 149.773 151.868 149.795C151.862 149.817 151.853 149.825 151.854 149.823C151.855 149.823 151.856 149.822 151.857 149.822C151.857 149.821 151.858 149.821 151.858 149.821C151.858 149.821 151.859 149.821 151.859 149.821C151.859 149.821 151.859 149.821 151.859 149.821C151.859 149.821 151.859 149.821 151.859 149.821C151.858 149.821 151.858 149.821 151.858 149.821C151.857 149.821 151.856 149.821 151.854 149.822C151.85 149.822 151.843 149.823 151.832 149.823V151.823ZM152.84 148.012L146.458 144.384L145.469 146.122L151.851 149.751L152.84 148.012ZM146.459 144.385C146.457 144.383 146.452 144.38 146.446 144.372C146.44 144.364 146.435 144.354 146.433 144.343L144.486 144.803C144.615 145.349 144.964 145.834 145.467 146.121L146.459 144.385ZM146.46 144.573V144.568H144.46V144.573H146.46ZM146.437 144.355L143.234 129.638L141.28 130.063L144.482 144.78L146.437 144.355Z" fill="black" mask="url(#path-20-inside-1_795_12606)"/>
<path d="M110.108 98.0396V102.125C110.108 103.837 111.495 105.224 113.206 105.224V105.224C114.917 105.224 116.305 103.837 116.305 102.125V98.0396" stroke="black" stroke-linecap="round"/>
<path d="M119.979 81.276C119.838 81.5131 119.531 81.5907 119.293 81.4495C119.055 81.3082 118.977 81.0016 119.118 80.7645L119.979 81.276ZM131.225 82.5675C131.392 82.7882 131.348 83.1014 131.127 83.2669C130.906 83.4325 130.593 83.3877 130.426 83.1669L131.225 82.5675ZM119.118 80.7645C120.454 78.5143 122.65 77.7845 124.923 78.2316C127.164 78.6722 129.475 80.2451 131.225 82.5675L130.426 83.1669C128.787 80.9918 126.675 79.594 124.733 79.212C122.823 78.8364 121.074 79.432 119.979 81.276L119.118 80.7645Z" fill="black"/>
<path d="M100.711 83.0898C96.1394 80.1573 92.1412 84.3369 91.9383 87.2293" stroke="black" stroke-linecap="round"/>
<path d="M92.773 93.9049C92.8794 94.7811 93.182 95.6249 93.6634 96.3882C94.1449 97.1515 94.7958 97.8193 95.579 98.3534C96.3623 98.8876 97.2625 99.2777 98.2283 99.5014C99.1941 99.7252 100.207 99.7782 101.208 99.6574C102.209 99.5367 103.18 99.2446 104.064 98.7977C104.948 98.3508 105.729 97.758 106.362 97.0531C106.995 96.3482 107.467 95.5449 107.752 94.6892C108.037 93.8335 108.129 92.9421 108.023 92.066L100.398 92.9854L92.773 93.9049Z" fill="white"/>
<path d="M116.931 91.3776C117.037 92.2537 117.341 93.0975 117.823 93.8607C118.305 94.6238 118.957 95.2915 119.742 95.8254C120.527 96.3594 121.429 96.7493 122.397 96.9728C123.365 97.1962 124.38 97.249 125.384 97.1279C126.387 97.0069 127.36 96.7145 128.247 96.2674C129.133 95.8202 129.916 95.2272 130.551 94.5221C131.185 93.8169 131.659 93.0135 131.945 92.1577C132.23 91.3019 132.323 90.4105 132.216 89.5343L124.574 90.4559L116.931 91.3776Z" fill="white"/>
<mask id="path-27-inside-2_795_12606" fill="white">
<path d="M116.979 91.6987C116.785 89.9267 117.406 88.14 118.703 86.7315C120 85.3231 121.869 84.4083 123.897 84.1884C125.925 83.9685 127.947 84.4616 129.517 85.5591C131.088 86.6566 132.079 88.2687 132.272 90.0406L124.625 90.8697L116.979 91.6987Z"/>
</mask>
<path d="M116.979 91.6987C116.785 89.9267 117.406 88.14 118.703 86.7315C120 85.3231 121.869 84.4083 123.897 84.1884C125.925 83.9685 127.947 84.4616 129.517 85.5591C131.088 86.6566 132.079 88.2687 132.272 90.0406L124.625 90.8697L116.979 91.6987Z" stroke="black" stroke-width="2" mask="url(#path-27-inside-2_795_12606)"/>
<mask id="path-28-inside-3_795_12606" fill="white">
<path d="M92.7514 93.864C92.6378 92.0852 93.3377 90.3277 94.697 88.978C96.0564 87.6284 97.9638 86.7971 99.9998 86.6672C102.036 86.5372 104.033 87.1192 105.553 88.2851C107.073 89.451 107.991 91.1053 108.104 92.8841L100.428 93.374L92.7514 93.864Z"/>
</mask>
<path d="M92.7514 93.864C92.6378 92.0852 93.3377 90.3277 94.697 88.978C96.0564 87.6284 97.9638 86.7971 99.9998 86.6672C102.036 86.5372 104.033 87.1192 105.553 88.2851C107.073 89.451 107.991 91.1053 108.104 92.8841L100.428 93.374L92.7514 93.864Z" stroke="black" stroke-width="2" mask="url(#path-28-inside-3_795_12606)"/>
<path d="M124.111 90.5726C124.149 90.9752 124.316 91.3551 124.574 91.6287C124.832 91.9023 125.161 92.0473 125.488 92.0318C125.815 92.0162 126.114 91.8414 126.318 91.5458C126.522 91.2502 126.615 90.8579 126.577 90.4554L125.344 90.514L124.111 90.5726Z" fill="black"/>
<path d="M99.3075 93.1864C99.3459 93.589 99.5126 93.9688 99.7709 94.2425C100.029 94.5161 100.358 94.6611 100.685 94.6456C101.012 94.63 101.311 94.4552 101.515 94.1596C101.719 93.8639 101.812 93.4717 101.774 93.0692L100.541 93.1278L99.3075 93.1864Z" fill="black"/>
<path d="M116.953 110.5C115.918 113.538 110.774 114.551 105.465 112.765C100.156 110.978 96.691 107.067 97.7264 104.029C98.7618 100.992 102.538 104.383 107.847 106.17C113.156 107.957 117.988 107.462 116.953 110.5Z" fill="black"/>
<path d="M100.99 109.609C102.325 107.903 105.568 109.039 105.492 110.897C105.432 112.383 102.465 110.658 100.99 109.609Z" fill="white"/>
<defs>
<linearGradient id="paint0_linear_795_12606" x1="50.7506" y1="29" x2="153.074" y2="146.732" gradientUnits="userSpaceOnUse">
<stop offset="0.432292" stop-color="#FF81C1"/>
<stop offset="1" stop-color="#FFC8E2"/>
</linearGradient>
</defs>
</svg>
