<svg width="222" height="151" viewBox="0 0 222 151" fill="none" xmlns="http://www.w3.org/2000/svg">
<path d="M42.1167 32.6381L26.6771 6.58366C25.5512 5.05577 22.4311 2 18.9572 2C14.6148 2 10.393 4.77432 10.393 11.2879C10.393 16.4988 10.393 20.0532 10.393 21.179C10.6745 23.3904 12.7813 27.8132 18.9572 27.8132C25.1331 27.8132 39.3826 27.8132 45.7354 27.8132" stroke="#B2C5CF" stroke-linecap="round"/>
<path d="M10.5136 10.2021L4 19.3695H10.5136" stroke="#B2C5CF" stroke-linecap="round"/>
<path d="M20.4047 27.813V32.9998" stroke="#B2C5CF" stroke-linecap="round"/>
<path d="M27.642 27.813V32.9998" stroke="#B2C5CF" stroke-linecap="round"/>
<path d="M134.38 0.669755L85.7429 12.8938C77.9924 14.8385 71.8648 20.8015 69.6629 28.533L55.8657 77.0293C53.6638 84.7608 55.731 93.0818 61.2862 98.8618L96.1262 135.134C101.675 140.914 109.87 143.279 117.62 141.327L166.257 129.103C174.008 127.159 180.135 121.196 182.337 113.464L196.134 64.9679C198.336 57.2364 196.269 48.9154 190.714 43.1354L155.881 6.86308C150.325 1.0831 142.13 -1.27498 134.38 0.669755Z" fill="#EEF4F9"/>
<path d="M180.423 150H203.889C208.667 150 212.778 146.619 213.701 141.931L216.652 126.931C217.868 120.751 213.138 115 206.841 115H177.856C171.66 115 166.955 120.578 168 126.687L170.566 141.687C171.388 146.489 175.551 150 180.423 150Z" stroke="#B2C5CF"/>
<path d="M168.995 126.907H207.931" stroke="#B2C5CF" stroke-linecap="round"/>
<path d="M185.169 91.2651V115.226" stroke="#B2C5CF" stroke-linecap="round"/>
<path d="M178.28 115.226V98.1538C178.28 94.3493 181.364 91.2651 185.168 91.2651V91.2651C188.973 91.2651 192.057 94.3493 192.057 98.1538V115.226" stroke="#B2C5CF" stroke-linecap="round"/>
<path d="M180.676 115.226C180.277 108.836 180.257 95.1586 183.372 91.5645" stroke="#B2C5CF" stroke-linecap="round"/>
<path d="M178.28 97.5546L176.782 96.9556" stroke="#B2C5CF" stroke-linecap="round"/>
<path d="M191.159 94.15L192.277 92.9878" stroke="#B2C5CF" stroke-linecap="round"/>
<path d="M185.087 91.3799L185.132 89.7676" stroke="#B2C5CF" stroke-linecap="round"/>
<path d="M178.28 102.347H176.782" stroke="#B2C5CF" stroke-linecap="round"/>
<path d="M193.854 101.149H192.357" stroke="#B2C5CF" stroke-linecap="round"/>
<path d="M193.854 107.738H192.357" stroke="#B2C5CF" stroke-linecap="round"/>
<path d="M178.28 107.738H176.782" stroke="#B2C5CF" stroke-linecap="round"/>
<path d="M197.149 71.7969L197.149 115.525" stroke="#B2C5CF" stroke-linecap="round"/>
<path d="M187.565 91.5645V81.3812C187.565 76.0879 191.856 71.7969 197.149 71.7969V71.7969C202.442 71.7969 206.733 76.0879 206.733 81.3812V115.525" stroke="#B2C5CF" stroke-linecap="round"/>
<path d="M190.56 92.7626C190.812 81.7536 190.56 76.5244 195.352 72.396" stroke="#B2C5CF" stroke-linecap="round"/>
<path d="M188.463 75.9901L186.965 75.3911" stroke="#B2C5CF" stroke-linecap="round"/>
<path d="M203.738 74.3824L204.856 73.2202" stroke="#B2C5CF" stroke-linecap="round"/>
<path d="M197.067 71.6123L197.112 70" stroke="#B2C5CF" stroke-linecap="round"/>
<path d="M187.265 83.1782H185.767" stroke="#B2C5CF" stroke-linecap="round"/>
<path d="M208.231 81.9805H206.733" stroke="#B2C5CF" stroke-linecap="round"/>
<path d="M208.231 91.5645H206.733" stroke="#B2C5CF" stroke-linecap="round"/>
<path d="M208.231 102.347H206.733" stroke="#B2C5CF" stroke-linecap="round"/>
<path d="M55.6341 48V77H64V20H55.6341V33.5H15V40H55.6341" stroke="#B2C5CF"/>
<line x1="18.5" y1="150.5" x2="57.5" y2="150.5" stroke="#B2C5CF" stroke-linecap="round"/>
<line x1="162.5" y1="150.5" x2="221.5" y2="150.5" stroke="#B2C5CF" stroke-linecap="round"/>
<line x1="0.5" y1="150.5" x2="11.5" y2="150.5" stroke="#B2C5CF" stroke-linecap="round"/>
<path d="M71.3187 85.3247C68.8056 61.3985 83.7953 39.4238 106.497 30.7386C112.845 28.3109 119.626 27.1284 126.434 27.0238C182.422 26.1657 150.024 48.627 152.976 76.7337C155.928 104.84 163.289 128.542 132.521 131.78C101.753 135.019 74.3542 114.221 71.3187 85.33V85.3247Z" fill="url(#paint0_linear_795_12594)"/>
<mask id="path-33-inside-1_795_12594" fill="white">
<path fill-rule="evenodd" clip-rule="evenodd" d="M76.6165 88.0142C74.1661 64.6739 88.346 43.212 110.034 34.2704C116.669 31.534 123.832 30.1894 131.027 30.09C168.894 29.5442 165.732 39.8749 160.968 55.4408C158.79 62.557 156.278 70.7674 157.197 79.533C157.569 83.0775 158.005 86.5316 158.426 89.8696C160.808 108.748 162.721 123.913 149.977 130.728L152.972 144.518V144.523C153.04 144.811 153.223 145.062 153.479 145.208L159.9 148.866C160.83 149.399 160.454 150.822 159.383 150.822H141.253C140.82 150.822 140.433 150.555 140.276 150.153L134.851 134.435C129.892 134.772 125.035 134.474 120.372 133.612L114.664 150.153C114.507 150.555 114.12 150.822 113.687 150.822H95.5568C94.4858 150.822 94.1096 149.399 95.0396 148.866L101.461 145.208C101.717 145.062 101.9 144.811 101.968 144.523V144.518L105.421 128.619C89.7928 120.816 78.4972 105.987 76.6113 88.0142H76.6165Z"/>
</mask>
<path d="M110.034 34.2704L110.415 35.1949L110.415 35.1949L110.034 34.2704ZM76.6165 88.0142V89.0142H77.727L77.6111 87.9098L76.6165 88.0142ZM131.027 30.09L131.041 31.0899L131.041 31.0899L131.027 30.09ZM160.968 55.4408L160.012 55.1482L160.968 55.4408ZM157.197 79.533L156.203 79.6373L156.203 79.6374L157.197 79.533ZM158.426 89.8696L159.418 89.7444L158.426 89.8696ZM149.977 130.728L149.505 129.846L148.839 130.202L149 130.94L149.977 130.728ZM152.972 144.518H153.972V144.41L153.949 144.305L152.972 144.518ZM152.972 144.523H151.972V144.639L151.999 144.753L152.972 144.523ZM153.479 145.208L152.982 146.076L152.984 146.077L153.479 145.208ZM159.9 148.866L160.398 147.998L160.395 147.997L159.9 148.866ZM140.276 150.153L139.331 150.479L139.337 150.497L139.344 150.515L140.276 150.153ZM134.851 134.435L135.797 134.109L135.547 133.386L134.784 133.437L134.851 134.435ZM120.372 133.612L120.554 132.629L119.708 132.472L119.427 133.286L120.372 133.612ZM114.664 150.153L115.596 150.515L115.603 150.497L115.609 150.479L114.664 150.153ZM95.0396 148.866L94.5447 147.997L94.5419 147.998L95.0396 148.866ZM101.461 145.208L101.956 146.077L101.957 146.076L101.461 145.208ZM101.968 144.523L102.941 144.753L102.968 144.639V144.523H101.968ZM101.968 144.518L100.99 144.305L100.968 144.41V144.518H101.968ZM105.421 128.619L106.398 128.831L106.563 128.071L105.868 127.724L105.421 128.619ZM76.6113 88.0142V87.0142H75.5009L75.6168 88.1185L76.6113 88.0142ZM109.653 33.3459C87.5967 42.4393 73.1207 64.2939 75.622 88.1186L77.6111 87.9098C75.2115 65.054 89.0954 43.9847 110.415 35.1949L109.653 33.3459ZM131.013 29.0901C123.704 29.191 116.415 30.557 109.653 33.3459L110.415 35.1949C116.923 32.511 123.96 31.1877 131.041 31.0899L131.013 29.0901ZM161.925 55.7334C163.107 51.8685 164.23 48.2107 164.618 44.9543C165.007 41.6786 164.675 38.6435 162.784 36.1232C160.907 33.6221 157.633 31.8162 152.573 30.6571C147.505 29.496 140.511 28.9532 131.012 29.0901L131.041 31.0899C140.476 30.9539 147.287 31.4977 152.127 32.6066C156.976 33.7174 159.714 35.3648 161.184 37.3238C162.64 39.2637 162.991 41.6957 162.632 44.718C162.27 47.7594 161.211 51.2301 160.012 55.1482L161.925 55.7334ZM158.192 79.4287C157.297 70.8957 159.739 62.8752 161.925 55.7334L160.012 55.1482C157.842 62.2389 155.259 70.6392 156.203 79.6373L158.192 79.4287ZM159.418 89.7444C158.997 86.405 158.563 82.9611 158.192 79.4286L156.203 79.6374C156.576 83.194 157.013 86.6582 157.434 89.9947L159.418 89.7444ZM150.448 131.61C157.191 128.004 160.024 122.162 160.867 114.938C161.701 107.789 160.604 99.1425 159.418 89.7444L157.434 89.9947C158.63 99.4751 159.68 107.851 158.88 114.707C158.089 121.488 155.507 126.637 149.505 129.846L150.448 131.61ZM153.949 144.305L150.954 130.516L149 130.94L151.995 144.73L153.949 144.305ZM153.972 144.523V144.518H151.972V144.523H153.972ZM153.976 144.34C153.973 144.339 153.967 144.334 153.96 144.326C153.954 144.317 153.948 144.305 153.945 144.293L151.999 144.753C152.128 145.3 152.478 145.787 152.982 146.076L153.976 144.34ZM160.395 147.997L153.974 144.339L152.984 146.077L159.405 149.734L160.395 147.997ZM159.383 151.822C161.489 151.822 162.207 149.036 160.398 147.998L159.403 149.733C159.413 149.739 159.419 149.743 159.422 149.746C159.426 149.749 159.427 149.751 159.428 149.751C159.428 149.752 159.428 149.751 159.427 149.751C159.427 149.75 159.427 149.75 159.427 149.75C159.427 149.751 159.431 149.765 159.425 149.789C159.419 149.812 159.409 149.822 159.409 149.821C159.409 149.821 159.41 149.82 159.411 149.82C159.412 149.819 159.412 149.819 159.412 149.819C159.412 149.819 159.41 149.82 159.406 149.821C159.402 149.821 159.394 149.822 159.383 149.822V151.822ZM141.253 151.822H159.383V149.822H141.253V151.822ZM139.344 150.515C139.649 151.299 140.404 151.822 141.253 151.822V149.822C141.235 149.822 141.216 149.812 141.208 149.79L139.344 150.515ZM133.906 134.761L139.331 150.479L141.221 149.826L135.797 134.109L133.906 134.761ZM120.191 134.595C124.935 135.472 129.875 135.775 134.919 135.433L134.784 133.437C129.908 133.768 125.135 133.475 120.554 132.629L120.191 134.595ZM115.609 150.479L121.318 133.938L119.427 133.286L113.718 149.826L115.609 150.479ZM113.687 151.822C114.536 151.822 115.29 151.299 115.596 150.515L113.732 149.79C113.723 149.812 113.705 149.822 113.687 149.822V151.822ZM95.5568 151.822H113.687V149.822H95.5568V151.822ZM94.5419 147.998C92.7325 149.036 93.4506 151.822 95.5568 151.822V149.822C95.5454 149.822 95.5379 149.821 95.5338 149.821C95.5297 149.82 95.5278 149.819 95.5277 149.819C95.5275 149.819 95.5281 149.819 95.5291 149.82C95.53 149.82 95.5306 149.821 95.5308 149.821C95.5313 149.822 95.5208 149.812 95.5146 149.789C95.5083 149.765 95.5126 149.751 95.5129 149.75C95.5129 149.75 95.5127 149.75 95.5124 149.751C95.5121 149.751 95.5119 149.752 95.5122 149.751C95.5126 149.751 95.5141 149.749 95.5175 149.746C95.521 149.743 95.5272 149.739 95.5373 149.733L94.5419 147.998ZM100.966 144.339L94.5447 147.997L95.5345 149.734L101.956 146.077L100.966 144.339ZM100.994 144.293C100.991 144.305 100.986 144.317 100.979 144.326C100.973 144.334 100.967 144.339 100.964 144.34L101.957 146.076C102.462 145.787 102.812 145.3 102.941 144.753L100.994 144.293ZM100.968 144.518V144.523H102.968V144.518H100.968ZM104.444 128.406L100.99 144.305L102.945 144.73L106.398 128.831L104.444 128.406ZM75.6168 88.1185C77.5415 106.461 89.0684 121.572 104.974 129.513L105.868 127.724C90.5171 120.06 79.453 105.513 77.6059 87.9098L75.6168 88.1185ZM76.6165 87.0142H76.6113V89.0142H76.6165V87.0142Z" fill="black" mask="url(#path-33-inside-1_795_12594)"/>
<path d="M123.29 108.352C121.505 109.343 117.184 110.626 114.177 107.84" stroke="black" stroke-linecap="round" stroke-linejoin="round"/>
<path d="M104.051 89.0425C105.316 91.875 110.886 92.1325 112.911 89.0425" stroke="black" stroke-linecap="round"/>
<path d="M106.835 79.0165C105.316 78.8448 101.823 79.9435 100 85.7115" stroke="black" stroke-linecap="round"/>
<path d="M135.949 89.0425C134.684 91.875 129.114 92.1325 127.089 89.0425" stroke="black" stroke-linecap="round"/>
<path d="M133.165 79.0165C134.684 78.8448 138.177 79.9435 140 85.7115" stroke="black" stroke-linecap="round"/>
<path d="M117.215 94.9648V99.1369C117.215 100.815 118.575 102.175 120.253 102.175V102.175C121.931 102.175 123.291 100.815 123.291 99.1369V94.9648" stroke="black" stroke-linecap="round"/>
<defs>
<linearGradient id="paint0_linear_795_12594" x1="71.0443" y1="27" x2="174.642" y2="114.33" gradientUnits="userSpaceOnUse">
<stop offset="0.432292" stop-color="#589F55"/>
<stop offset="1" stop-color="#569D97"/>
</linearGradient>
</defs>
</svg>
