<svg width="222" height="152" viewBox="0 0 222 152" fill="none" xmlns="http://www.w3.org/2000/svg">
<path d="M42.1167 32.6381L26.677 6.58366C25.5512 5.05577 22.4311 2 18.9571 2C14.6147 2 10.3929 4.77432 10.3929 11.2879C10.3929 16.4988 10.3929 20.0532 10.3929 21.179C10.6744 23.3904 12.7813 27.8132 18.9571 27.8132C25.133 27.8132 39.3826 27.8132 45.7354 27.8132" stroke="#B2C5CF" stroke-linecap="round"/>
<path d="M10.5136 10.2021L4 19.3695H10.5136" stroke="#B2C5CF" stroke-linecap="round"/>
<path d="M20.4047 27.813V32.9998" stroke="#B2C5CF" stroke-linecap="round"/>
<path d="M27.642 27.813V32.9998" stroke="#B2C5CF" stroke-linecap="round"/>
<path d="M134.38 0.669755L85.7429 12.8938C77.9924 14.8385 71.8648 20.8015 69.6629 28.533L55.8657 77.0293C53.6638 84.7608 55.731 93.0818 61.2862 98.8618L96.1262 135.134C101.675 140.914 109.87 143.279 117.62 141.327L166.257 129.103C174.008 127.159 180.135 121.196 182.337 113.464L196.134 64.9679C198.336 57.2364 196.269 48.9154 190.714 43.1354L155.881 6.86308C150.325 1.0831 142.13 -1.27498 134.38 0.669755Z" fill="#EEF4F9"/>
<path d="M180.423 150H203.889C208.667 150 212.778 146.619 213.701 141.931L216.652 126.931C217.868 120.751 213.138 115 206.841 115H177.856C171.66 115 166.955 120.578 168 126.687L170.566 141.687C171.388 146.489 175.551 150 180.423 150Z" stroke="#B2C5CF"/>
<path d="M168.995 126.907H207.931" stroke="#B2C5CF" stroke-linecap="round"/>
<path d="M185.169 91.2651V115.226" stroke="#B2C5CF" stroke-linecap="round"/>
<path d="M178.28 115.226V98.1538C178.28 94.3493 181.364 91.2651 185.168 91.2651V91.2651C188.973 91.2651 192.057 94.3493 192.057 98.1538V115.226" stroke="#B2C5CF" stroke-linecap="round"/>
<path d="M180.676 115.226C180.277 108.836 180.257 95.1586 183.371 91.5645" stroke="#B2C5CF" stroke-linecap="round"/>
<path d="M178.28 97.5546L176.782 96.9556" stroke="#B2C5CF" stroke-linecap="round"/>
<path d="M191.159 94.15L192.277 92.9878" stroke="#B2C5CF" stroke-linecap="round"/>
<path d="M185.087 91.3799L185.132 89.7676" stroke="#B2C5CF" stroke-linecap="round"/>
<path d="M178.28 102.347H176.782" stroke="#B2C5CF" stroke-linecap="round"/>
<path d="M193.854 101.149H192.357" stroke="#B2C5CF" stroke-linecap="round"/>
<path d="M193.854 107.738H192.357" stroke="#B2C5CF" stroke-linecap="round"/>
<path d="M178.28 107.738H176.782" stroke="#B2C5CF" stroke-linecap="round"/>
<path d="M197.149 71.7969L197.149 115.525" stroke="#B2C5CF" stroke-linecap="round"/>
<path d="M187.565 91.5645V81.3812C187.565 76.0879 191.856 71.7969 197.149 71.7969V71.7969C202.442 71.7969 206.733 76.0879 206.733 81.3812V115.525" stroke="#B2C5CF" stroke-linecap="round"/>
<path d="M190.56 92.7626C190.812 81.7536 190.56 76.5244 195.352 72.396" stroke="#B2C5CF" stroke-linecap="round"/>
<path d="M188.463 75.9901L186.965 75.3911" stroke="#B2C5CF" stroke-linecap="round"/>
<path d="M203.738 74.3824L204.856 73.2202" stroke="#B2C5CF" stroke-linecap="round"/>
<path d="M197.067 71.6123L197.112 70" stroke="#B2C5CF" stroke-linecap="round"/>
<path d="M187.265 83.1782H185.767" stroke="#B2C5CF" stroke-linecap="round"/>
<path d="M208.23 81.9805H206.733" stroke="#B2C5CF" stroke-linecap="round"/>
<path d="M208.23 91.5645H206.733" stroke="#B2C5CF" stroke-linecap="round"/>
<path d="M208.23 102.347H206.733" stroke="#B2C5CF" stroke-linecap="round"/>
<path d="M55.6341 48V77H64V20H55.6341V33.5H15V40H55.6341" stroke="#B2C5CF"/>
<line x1="18.5" y1="150.5" x2="57.5" y2="150.5" stroke="#B2C5CF" stroke-linecap="round"/>
<line x1="162.5" y1="150.5" x2="221.5" y2="150.5" stroke="#B2C5CF" stroke-linecap="round"/>
<line x1="0.5" y1="150.5" x2="11.5" y2="150.5" stroke="#B2C5CF" stroke-linecap="round"/>
<path d="M66.7546 106.277C66.7546 120.416 78.2375 131.883 92.4033 131.883H141.133C161.306 131.883 171.129 121.25 170.367 102.692V43.8035C170.367 36.7339 164.626 31 157.543 31H116.251C88.9167 31 66.7546 53.127 66.7546 80.4191V106.282V106.277Z" fill="url(#paint0_linear_795_12585)"/>
<mask id="path-33-inside-1_795_12585" fill="white">
<path fill-rule="evenodd" clip-rule="evenodd" d="M70.5702 108.906C70.5702 123.072 81.8724 134.605 95.9534 134.983L93.7611 145.057V145.063C93.6933 145.35 93.5106 145.6 93.2548 145.746L86.84 149.393C85.911 149.925 86.2868 151.344 87.3568 151.344H105.468C105.902 151.344 106.288 151.078 106.445 150.677L111.867 134.993H137.048L142.471 150.677C142.627 151.078 143.013 151.344 143.447 151.344H161.558C162.628 151.344 163.004 149.925 162.075 149.393L155.66 145.746C155.405 145.6 155.222 145.35 155.154 145.063V145.057L152.858 134.507C164.859 132.159 173.917 121.588 173.917 108.906V47.3408C173.917 40.1356 168.076 34.2974 160.868 34.2974H120.938C93.1185 34.2974 70.5702 56.8417 70.5702 84.6452V108.906Z"/>
</mask>
<path d="M95.9534 134.983L96.9305 135.196L97.1873 134.016L95.9802 133.984L95.9534 134.983ZM93.7611 145.057L92.784 144.845L92.7611 144.95V145.057H93.7611ZM93.7611 145.063L94.7343 145.293L94.7611 145.179V145.063H93.7611ZM93.2548 145.746L93.749 146.615L93.7508 146.614L93.2548 145.746ZM86.84 149.393L86.3458 148.524L86.343 148.525L86.84 149.393ZM106.445 150.677L107.376 151.04L107.383 151.022L107.39 151.003L106.445 150.677ZM111.867 134.993V133.993H111.155L110.922 134.666L111.867 134.993ZM137.048 134.993L137.993 134.666L137.76 133.993H137.048V134.993ZM142.471 150.677L141.525 151.003L141.532 151.022L141.539 151.04L142.471 150.677ZM162.075 149.393L162.572 148.525L162.569 148.524L162.075 149.393ZM155.66 145.746L155.164 146.614L155.166 146.615L155.66 145.746ZM155.154 145.063H154.154V145.179L154.181 145.293L155.154 145.063ZM155.154 145.057H156.154V144.95L156.131 144.845L155.154 145.057ZM152.858 134.507L152.666 133.526L151.664 133.722L151.881 134.72L152.858 134.507ZM95.9802 133.984C82.4391 133.62 71.5702 122.529 71.5702 108.906H69.5702C69.5702 123.616 81.3058 135.59 95.9265 135.983L95.9802 133.984ZM94.7382 145.27L96.9305 135.196L94.9762 134.771L92.784 144.845L94.7382 145.27ZM94.7611 145.063V145.057H92.7611V145.063H94.7611ZM93.7508 146.614C94.2552 146.326 94.6048 145.84 94.7343 145.293L92.7879 144.833C92.7852 144.844 92.78 144.855 92.7737 144.864C92.7675 144.872 92.7618 144.876 92.7588 144.878L93.7508 146.614ZM87.3343 150.262L93.749 146.615L92.7606 144.877L86.3458 148.524L87.3343 150.262ZM87.3568 150.344C87.3453 150.344 87.3378 150.343 87.3336 150.343C87.3295 150.342 87.3276 150.341 87.3275 150.341C87.3273 150.341 87.3279 150.341 87.3288 150.342C87.3298 150.343 87.3304 150.343 87.3307 150.343C87.3314 150.344 87.3214 150.335 87.3154 150.312C87.3094 150.29 87.3136 150.276 87.3136 150.277C87.3135 150.277 87.3133 150.277 87.3129 150.278C87.3124 150.279 87.3121 150.279 87.3124 150.279C87.3126 150.278 87.3141 150.277 87.3174 150.274C87.3208 150.271 87.327 150.267 87.3371 150.261L86.343 148.525C84.5301 149.564 85.2555 152.344 87.3568 152.344V150.344ZM105.468 150.344H87.3568V152.344H105.468V150.344ZM105.513 150.313C105.505 150.333 105.487 150.344 105.468 150.344V152.344C106.316 152.344 107.071 151.823 107.376 151.04L105.513 150.313ZM110.922 134.666L105.499 150.35L107.39 151.003L112.813 135.32L110.922 134.666ZM137.048 133.993H111.867V135.993H137.048V133.993ZM136.103 135.32L141.525 151.003L143.416 150.35L137.993 134.666L136.103 135.32ZM141.539 151.04C141.844 151.823 142.599 152.344 143.447 152.344V150.344C143.428 150.344 143.41 150.333 143.402 150.313L141.539 151.04ZM143.447 152.344H161.558V150.344H143.447V152.344ZM161.558 152.344C163.66 152.344 164.385 149.564 162.572 148.525L161.578 150.261C161.588 150.267 161.594 150.271 161.598 150.274C161.601 150.277 161.602 150.278 161.603 150.279C161.603 150.279 161.603 150.279 161.602 150.278C161.602 150.277 161.602 150.277 161.602 150.277C161.601 150.276 161.606 150.29 161.6 150.312C161.594 150.335 161.584 150.344 161.584 150.343C161.585 150.343 161.585 150.343 161.586 150.342C161.587 150.341 161.588 150.341 161.588 150.341C161.587 150.341 161.586 150.342 161.581 150.343C161.577 150.343 161.57 150.344 161.558 150.344V152.344ZM162.569 148.524L156.155 144.877L155.166 146.615L161.581 150.262L162.569 148.524ZM156.156 144.878C156.153 144.876 156.148 144.872 156.141 144.864C156.135 144.855 156.13 144.844 156.127 144.833L154.181 145.293C154.31 145.84 154.66 146.326 155.164 146.614L156.156 144.878ZM156.154 145.063V145.057H154.154V145.063H156.154ZM156.131 144.845L153.835 134.294L151.881 134.72L154.177 145.27L156.131 144.845ZM172.917 108.906C172.917 121.1 164.207 131.268 152.666 133.526L153.05 135.488C165.511 133.051 174.917 122.076 174.917 108.906H172.917ZM172.917 47.3408V108.906H174.917V47.3408H172.917ZM160.868 35.2974C167.524 35.2974 172.917 40.6883 172.917 47.3408H174.917C174.917 39.583 168.628 33.2974 160.868 33.2974V35.2974ZM120.938 35.2974H160.868V33.2974H120.938V35.2974ZM71.5702 84.6452C71.5702 57.3943 93.6705 35.2974 120.938 35.2974V33.2974C92.5665 33.2974 69.5702 56.2891 69.5702 84.6452H71.5702ZM71.5702 108.906V84.6452H69.5702V108.906H71.5702Z" fill="black" mask="url(#path-33-inside-1_795_12585)"/>
<path d="M117.432 94.0815V98.4351C117.432 100.13 118.805 101.503 120.5 101.503V101.503C122.194 101.503 123.568 100.13 123.568 98.4351V94.0815" stroke="black" stroke-linecap="round"/>
<ellipse cx="106.125" cy="89.7754" rx="7.50024" ry="7.7754" fill="white"/>
<ellipse cx="105.813" cy="91.7192" rx="0.93753" ry="1.2959" fill="black"/>
<ellipse cx="134.876" cy="89.7754" rx="7.50024" ry="7.7754" fill="white"/>
<ellipse cx="134.564" cy="91.7192" rx="0.93753" ry="1.2959" fill="black"/>
<path d="M114.875 110.516C117.432 111.929 123.415 113.59 126.892 108.925" stroke="black" stroke-linecap="round"/>
<path d="M113.352 92.7565C113.352 97.0355 110.011 100.473 105.926 100.473C101.842 100.473 98.5 97.0355 98.5 92.7565C98.5 88.4774 101.842 85.0396 105.926 85.0396C110.011 85.0396 113.352 88.4774 113.352 92.7565Z" stroke="black"/>
<path d="M142.5 92.7565C142.5 97.0355 139.158 100.473 135.074 100.473C130.989 100.473 127.648 97.0355 127.648 92.7565C127.648 88.4774 130.989 85.0396 135.074 85.0396C139.158 85.0396 142.5 88.4774 142.5 92.7565Z" stroke="black"/>
<path d="M113.341 91.4311C115.518 88.6308 121.429 84.7103 127.659 91.4311" stroke="black" stroke-linecap="round"/>
<defs>
<linearGradient id="paint0_linear_795_12585" x1="66.7546" y1="31" x2="167.601" y2="134.616" gradientUnits="userSpaceOnUse">
<stop offset="0.432292" stop-color="#CF6358"/>
<stop offset="1" stop-color="#8E2B21"/>
</linearGradient>
</defs>
</svg>
