<svg width="222" height="157" viewBox="0 0 222 157" fill="none" xmlns="http://www.w3.org/2000/svg">
<path d="M40.4228 96.6665C30.2312 85.3875 34.2771 67.4177 48.319 61.5949L120.779 31.5476C131.011 27.3044 142.803 31.331 148.303 40.9464L177.68 92.306C183.713 102.853 180.053 116.293 169.506 122.326L115.065 153.466C106.09 158.6 94.7504 156.791 87.8183 149.119L40.4228 96.6665Z" fill="#EEF4F9"/>
<path d="M37.9071 21H17.9602L3 50.4972C19.4779 58.6522 43.6165 53.8951 52 50.4972L37.9071 21Z" stroke="#B2C5CF"/>
<path d="M26 55L26 137" stroke="#B2C5CF"/>
<rect x="15.5" y="137.5" width="22" height="7" stroke="#B2C5CF"/>
<rect x="11.5" y="144.5" width="30" height="6" stroke="#B2C5CF"/>
<path d="M176.522 123.56H191.423H198.139C204.855 123.56 205.484 114.116 202.966 111.387C207.793 111.387 209.262 101.733 200.657 101.733C195.41 76.3393 165.819 88.0919 169.806 104.672C162.461 108.029 162.671 123.56 176.522 123.56Z" stroke="#B2C5CF"/>
<path d="M185.547 123.56V137.621" stroke="#B2C5CF"/>
<path d="M177.991 137.621H185.981H193.102L189.454 150.213H182.16L177.991 137.621Z" stroke="#B2C5CF" stroke-linejoin="round"/>
<circle cx="180.09" cy="104.042" r="0.839474" fill="#B2C5CF"/>
<circle cx="189.744" cy="101.104" r="0.839474" fill="#B2C5CF"/>
<circle cx="198.139" cy="107.819" r="0.839474" fill="#B2C5CF"/>
<circle cx="188.905" cy="111.597" r="0.839474" fill="#B2C5CF"/>
<circle cx="175.473" cy="114.955" r="0.839474" fill="#B2C5CF"/>
<circle cx="193.522" cy="118.313" r="0.839474" fill="#B2C5CF"/>
<circle cx="200.237" cy="116.214" r="0.839474" fill="#B2C5CF"/>
<circle cx="183.868" cy="118.733" r="0.839474" fill="#B2C5CF"/>
<line x1="146.5" y1="150.5" x2="219.5" y2="150.5" stroke="#B2C5CF" stroke-linecap="round"/>
<line x1="46.5" y1="150.5" x2="55.5" y2="150.5" stroke="#B2C5CF" stroke-linecap="round"/>
<path d="M57.7546 106.277C57.7546 120.416 69.2375 131.883 83.4033 131.883H132.133C152.306 131.883 162.129 121.25 161.367 102.692V43.8035C161.367 36.7339 155.626 31 148.543 31H107.251C79.9167 31 57.7546 53.127 57.7546 80.4191V106.282V106.277Z" fill="url(#paint0_linear_795_12588)"/>
<mask id="path-20-inside-1_795_12588" fill="white">
<path fill-rule="evenodd" clip-rule="evenodd" d="M61.5702 108.906C61.5702 123.072 72.8724 134.605 86.9534 134.983L84.7611 145.057V145.063C84.6933 145.35 84.5106 145.6 84.2548 145.746L77.84 149.393C76.911 149.925 77.2868 151.344 78.3568 151.344H96.4685C96.9017 151.344 97.2879 151.078 97.4445 150.677L102.867 134.993H128.048L133.471 150.677C133.627 151.078 134.013 151.344 134.447 151.344H152.558C153.628 151.344 154.004 149.925 153.075 149.393L146.66 145.746C146.405 145.6 146.222 145.35 146.154 145.063V145.057L143.858 134.507C155.859 132.159 164.917 121.588 164.917 108.906V47.3408C164.917 40.1356 159.076 34.2974 151.868 34.2974H111.938C84.1185 34.2974 61.5702 56.8417 61.5702 84.6452V108.906Z"/>
</mask>
<path d="M86.9534 134.983L87.9305 135.196L88.1873 134.016L86.9802 133.984L86.9534 134.983ZM84.7611 145.057L83.784 144.845L83.7611 144.95V145.057H84.7611ZM84.7611 145.063L85.7343 145.293L85.7611 145.179V145.063H84.7611ZM84.2548 145.746L84.749 146.615L84.7508 146.614L84.2548 145.746ZM77.84 149.393L77.3458 148.524L77.343 148.525L77.84 149.393ZM97.4445 150.677L98.3763 151.04L98.3833 151.022L98.3896 151.003L97.4445 150.677ZM102.867 134.993V133.993H102.155L101.922 134.666L102.867 134.993ZM128.048 134.993L128.993 134.666L128.76 133.993H128.048V134.993ZM133.471 150.677L132.525 151.003L132.532 151.022L132.539 151.04L133.471 150.677ZM153.075 149.393L153.572 148.525L153.569 148.524L153.075 149.393ZM146.66 145.746L146.164 146.614L146.166 146.615L146.66 145.746ZM146.154 145.063H145.154V145.179L145.181 145.293L146.154 145.063ZM146.154 145.057H147.154V144.95L147.131 144.845L146.154 145.057ZM143.858 134.507L143.666 133.526L142.664 133.722L142.881 134.72L143.858 134.507ZM86.9802 133.984C73.4391 133.62 62.5702 122.529 62.5702 108.906H60.5702C60.5702 123.616 72.3058 135.59 86.9265 135.983L86.9802 133.984ZM85.7382 145.27L87.9305 135.196L85.9762 134.771L83.784 144.845L85.7382 145.27ZM85.7611 145.063V145.057H83.7611V145.063H85.7611ZM84.7508 146.614C85.2552 146.326 85.6048 145.84 85.7343 145.293L83.7879 144.833C83.7852 144.844 83.78 144.855 83.7737 144.864C83.7675 144.872 83.7618 144.876 83.7588 144.878L84.7508 146.614ZM78.3343 150.262L84.749 146.615L83.7606 144.877L77.3458 148.524L78.3343 150.262ZM78.3568 150.344C78.3453 150.344 78.3378 150.343 78.3336 150.343C78.3295 150.342 78.3276 150.341 78.3275 150.341C78.3273 150.341 78.3279 150.341 78.3288 150.342C78.3298 150.343 78.3304 150.343 78.3307 150.343C78.3314 150.344 78.3214 150.335 78.3154 150.312C78.3094 150.29 78.3136 150.276 78.3136 150.277C78.3135 150.277 78.3133 150.277 78.3129 150.278C78.3124 150.279 78.3121 150.279 78.3124 150.279C78.3126 150.278 78.3141 150.277 78.3174 150.274C78.3208 150.271 78.327 150.267 78.3371 150.261L77.343 148.525C75.5301 149.564 76.2555 152.344 78.3568 152.344V150.344ZM96.4685 150.344H78.3568V152.344H96.4685V150.344ZM96.5128 150.313C96.5051 150.333 96.4873 150.344 96.4685 150.344V152.344C97.3161 152.344 98.0708 151.823 98.3763 151.04L96.5128 150.313ZM101.922 134.666L96.4994 150.35L98.3896 151.003L103.813 135.32L101.922 134.666ZM128.048 133.993H102.867V135.993H128.048V133.993ZM127.103 135.32L132.525 151.003L134.416 150.35L128.993 134.666L127.103 135.32ZM132.539 151.04C132.844 151.823 133.599 152.344 134.447 152.344V150.344C134.428 150.344 134.41 150.333 134.402 150.313L132.539 151.04ZM134.447 152.344H152.558V150.344H134.447V152.344ZM152.558 152.344C154.66 152.344 155.385 149.564 153.572 148.525L152.578 150.261C152.588 150.267 152.594 150.271 152.598 150.274C152.601 150.277 152.602 150.278 152.603 150.279C152.603 150.279 152.603 150.279 152.602 150.278C152.602 150.277 152.602 150.277 152.602 150.277C152.601 150.276 152.606 150.29 152.6 150.312C152.594 150.335 152.584 150.344 152.584 150.343C152.585 150.343 152.585 150.343 152.586 150.342C152.587 150.341 152.588 150.341 152.588 150.341C152.587 150.341 152.586 150.342 152.581 150.343C152.577 150.343 152.57 150.344 152.558 150.344V152.344ZM153.569 148.524L147.155 144.877L146.166 146.615L152.581 150.262L153.569 148.524ZM147.156 144.878C147.153 144.876 147.148 144.872 147.141 144.864C147.135 144.855 147.13 144.844 147.127 144.833L145.181 145.293C145.31 145.84 145.66 146.326 146.164 146.614L147.156 144.878ZM147.154 145.063V145.057H145.154V145.063H147.154ZM147.131 144.845L144.835 134.294L142.881 134.72L145.177 145.27L147.131 144.845ZM163.917 108.906C163.917 121.1 155.207 131.268 143.666 133.526L144.05 135.488C156.511 133.051 165.917 122.076 165.917 108.906H163.917ZM163.917 47.3408V108.906H165.917V47.3408H163.917ZM151.868 35.2974C158.524 35.2974 163.917 40.6883 163.917 47.3408H165.917C165.917 39.583 159.628 33.2974 151.868 33.2974V35.2974ZM111.938 35.2974H151.868V33.2974H111.938V35.2974ZM62.5702 84.6452C62.5702 57.3943 84.6705 35.2974 111.938 35.2974V33.2974C83.5665 33.2974 60.5702 56.2891 60.5702 84.6452H62.5702ZM62.5702 108.906V84.6452H60.5702V108.906H62.5702Z" fill="black" mask="url(#path-20-inside-1_795_12588)"/>
<path d="M92.4531 110.28C92.4352 110.554 92.6447 110.793 92.9212 110.813C93.1976 110.833 93.4363 110.627 93.4542 110.352L92.4531 110.28ZM97.3084 106.817C97.5776 106.884 97.8487 106.722 97.9139 106.455C97.9791 106.188 97.8136 105.917 97.5444 105.85L97.3084 106.817ZM93.4542 110.352C93.559 108.749 94.2072 107.799 94.9551 107.283C95.7206 106.755 96.6333 106.65 97.3084 106.817L97.5444 105.85C96.5973 105.615 95.387 105.767 94.3784 106.463C93.352 107.171 92.575 108.413 92.4531 110.28L93.4542 110.352Z" fill="black"/>
<path d="M128.205 109.144C128.479 109.118 128.682 108.874 128.656 108.599C128.63 108.324 128.387 108.122 128.112 108.148L128.205 109.144ZM103.383 110.952L103.426 111.45L103.429 111.449L103.383 110.952ZM95.1651 107.214C95.1021 106.945 94.833 106.778 94.5642 106.841C94.2953 106.904 94.1285 107.173 94.1916 107.442L95.1651 107.214ZM128.112 108.148L103.337 110.454L103.429 111.449L128.205 109.144L128.112 108.148ZM103.34 110.453C102.099 110.56 100.188 110.51 98.5078 110.026C96.8104 109.538 95.5038 108.658 95.1651 107.214L94.1916 107.442C94.6564 109.424 96.4188 110.466 98.2312 110.987C100.061 111.514 102.101 111.563 103.426 111.45L103.34 110.453Z" fill="black"/>
<path d="M112.984 98.0967V102.175C112.984 103.913 114.393 105.322 116.131 105.322V105.322C117.869 105.322 119.279 103.913 119.279 102.175V98.0967" stroke="black" stroke-linecap="round"/>
<path d="M92.5954 90.0668C92.6736 91.1003 92.9666 92.1078 93.4577 93.0319C93.9488 93.956 94.6283 94.7786 95.4575 95.4527C96.2867 96.1267 97.2493 96.6391 98.2904 96.9605C99.3315 97.282 100.431 97.4061 101.525 97.326C102.62 97.2458 103.688 96.9629 104.669 96.4933C105.65 96.0238 106.525 95.3768 107.244 94.5894C107.963 93.802 108.511 92.8895 108.857 91.904C109.204 90.9185 109.342 89.8794 109.264 88.846L100.93 89.4564L92.5954 90.0668Z" fill="white"/>
<path d="M124.736 88.0903C124.814 89.1237 125.107 90.1312 125.598 91.0554C126.089 91.9795 126.769 92.802 127.598 93.4761C128.427 94.1502 129.39 94.6625 130.431 94.984C131.472 95.3054 132.571 95.4296 133.666 95.3494C134.76 95.2692 135.829 94.9863 136.81 94.5168C137.791 94.0472 138.666 93.4003 139.385 92.6128C140.103 91.8254 140.651 90.9129 140.998 89.9274C141.345 88.942 141.483 87.9029 141.405 86.8694L133.07 87.4798L124.736 88.0903Z" fill="white"/>
<rect width="17.7889" height="1.00067" rx="0.500333" transform="matrix(0.998125 -0.0612057 0.0632208 0.998 92 89.2002)" fill="black"/>
<ellipse cx="104.722" cy="92.176" rx="1.33919" ry="1.3176" fill="black"/>
<rect width="17.7889" height="1.00298" rx="0.501489" transform="matrix(0.998125 -0.0612057 0.0632208 0.998 124.141 87.2241)" fill="black"/>
<ellipse cx="136.863" cy="90.1994" rx="1.33919" ry="1.3176" fill="black"/>
<defs>
<linearGradient id="paint0_linear_795_12588" x1="57.7546" y1="31" x2="158.601" y2="134.616" gradientUnits="userSpaceOnUse">
<stop offset="0.432292" stop-color="#FFB9B3"/>
<stop offset="1" stop-color="#FE9889"/>
</linearGradient>
</defs>
</svg>
