<svg width="222" height="157" viewBox="0 0 222 157" fill="none" xmlns="http://www.w3.org/2000/svg">
<path d="M40.4228 96.6665C30.2312 85.3875 34.2771 67.4177 48.319 61.5949L120.779 31.5476C131.011 27.3044 142.803 31.331 148.303 40.9464L177.68 92.306C183.713 102.853 180.053 116.293 169.506 122.326L115.065 153.466C106.09 158.6 94.7504 156.791 87.8183 149.119L40.4228 96.6665Z" fill="#EEF4F9"/>
<path d="M37.9071 21H17.9602L3 50.4972C19.4779 58.6522 43.6165 53.8951 52 50.4972L37.9071 21Z" stroke="#B2C5CF"/>
<path d="M26 55L26 137" stroke="#B2C5CF"/>
<rect x="15.5" y="137.5" width="22" height="7" stroke="#B2C5CF"/>
<rect x="11.5" y="144.5" width="30" height="6" stroke="#B2C5CF"/>
<path d="M176.522 123.56H191.423H198.139C204.855 123.56 205.484 114.116 202.966 111.387C207.793 111.387 209.262 101.733 200.657 101.733C195.41 76.3393 165.819 88.0919 169.806 104.672C162.461 108.029 162.671 123.56 176.522 123.56Z" stroke="#B2C5CF"/>
<path d="M185.547 123.56V137.621" stroke="#B2C5CF"/>
<path d="M177.991 137.621H185.981H193.102L189.454 150.213H182.16L177.991 137.621Z" stroke="#B2C5CF" stroke-linejoin="round"/>
<circle cx="180.09" cy="104.042" r="0.839474" fill="#B2C5CF"/>
<circle cx="189.744" cy="101.104" r="0.839474" fill="#B2C5CF"/>
<circle cx="198.139" cy="107.819" r="0.839474" fill="#B2C5CF"/>
<circle cx="188.905" cy="111.597" r="0.839474" fill="#B2C5CF"/>
<circle cx="175.473" cy="114.955" r="0.839474" fill="#B2C5CF"/>
<circle cx="193.522" cy="118.313" r="0.839474" fill="#B2C5CF"/>
<circle cx="200.237" cy="116.214" r="0.839474" fill="#B2C5CF"/>
<circle cx="183.868" cy="118.733" r="0.839474" fill="#B2C5CF"/>
<line x1="146.5" y1="150.5" x2="219.5" y2="150.5" stroke="#B2C5CF" stroke-linecap="round"/>
<line x1="46.5" y1="150.5" x2="55.5" y2="150.5" stroke="#B2C5CF" stroke-linecap="round"/>
<path d="M59.6086 80.6777C59.6086 108.18 82.1478 130.479 109.956 130.479H151.956C159.162 130.479 165 124.702 165 117.575V58.2276C165 41.9818 151.685 28.812 135.261 28.812H85.6956C71.2904 28.812 59.6086 40.3655 59.6086 54.6145V80.6777Z" fill="url(#paint0_linear_795_12570)"/>
<mask id="path-20-inside-1_795_12570" fill="white">
<path fill-rule="evenodd" clip-rule="evenodd" d="M57 83.8164C57 106.705 72.297 126.027 93.2354 132.125L90.5328 144.54V144.545C90.465 144.832 90.2824 145.082 90.0268 145.228L83.6146 148.873C82.6859 149.404 83.0615 150.823 84.1311 150.823H102.235C102.668 150.823 103.055 150.557 103.211 150.155L108.754 134.128H123.244L128.788 150.155C128.944 150.557 129.33 150.823 129.763 150.823H147.868C148.937 150.823 149.313 149.404 148.384 148.873L141.972 145.228C141.716 145.082 141.534 144.832 141.466 144.545V144.54L139.2 134.128H147.261C154.466 134.128 160.304 128.294 160.304 121.094V59.5728C160.304 45.1778 148.623 33.5044 134.217 33.5044H83.087C68.6817 33.5044 57 45.1726 57 59.5728V83.8164Z"/>
</mask>
<path d="M93.2354 132.125L94.2125 132.338L94.411 131.426L93.515 131.165L93.2354 132.125ZM90.5328 144.54L89.5557 144.327L89.5328 144.433V144.54H90.5328ZM90.5328 144.545L91.506 144.775L91.5328 144.662V144.545H90.5328ZM90.0268 145.228L90.5209 146.098L90.5226 146.097L90.0268 145.228ZM83.6146 148.873L83.1205 148.003L83.1177 148.005L83.6146 148.873ZM103.211 150.155L104.143 150.518L104.15 150.5L104.156 150.482L103.211 150.155ZM108.754 134.128V133.128H108.042L107.809 133.801L108.754 134.128ZM123.244 134.128L124.189 133.801L123.957 133.128H123.244V134.128ZM128.788 150.155L127.843 150.482L127.849 150.5L127.856 150.518L128.788 150.155ZM148.384 148.873L148.881 148.005L148.878 148.003L148.384 148.873ZM141.972 145.228L141.476 146.097L141.478 146.098L141.972 145.228ZM141.466 144.545H140.466V144.662L140.493 144.775L141.466 144.545ZM141.466 144.54H142.466V144.433L142.443 144.327L141.466 144.54ZM139.2 134.128V133.128H137.958L138.222 134.341L139.2 134.128ZM93.515 131.165C72.9916 125.188 58 106.248 58 83.8164H56C56 107.162 71.6025 126.867 92.9558 133.085L93.515 131.165ZM91.51 144.753L94.2125 132.338L92.2583 131.912L89.5557 144.327L91.51 144.753ZM91.5328 144.545V144.54H89.5328V144.545H91.5328ZM90.5226 146.097C91.0269 145.809 91.3765 145.323 91.506 144.775L89.5597 144.315C89.557 144.327 89.5519 144.337 89.5456 144.346C89.5395 144.354 89.5339 144.358 89.5309 144.36L90.5226 146.097ZM84.1087 149.742L90.5209 146.098L89.5326 144.359L83.1205 148.003L84.1087 149.742ZM84.1311 149.823C84.1197 149.823 84.1121 149.822 84.108 149.821C84.1038 149.82 84.102 149.82 84.1019 149.819C84.1017 149.819 84.1023 149.82 84.1033 149.82C84.1042 149.821 84.1049 149.821 84.1052 149.821C84.106 149.822 84.0961 149.813 84.0902 149.791C84.0842 149.768 84.0884 149.756 84.0883 149.756C84.0882 149.756 84.0879 149.757 84.0875 149.757C84.087 149.758 84.0867 149.758 84.087 149.758C84.0872 149.758 84.0886 149.756 84.0919 149.754C84.0953 149.751 84.1015 149.746 84.1115 149.74L83.1177 148.005C81.3043 149.043 82.031 151.823 84.1311 151.823V149.823ZM102.235 149.823H84.1311V151.823H102.235V149.823ZM102.279 149.792C102.272 149.811 102.254 149.823 102.235 149.823V151.823C103.083 151.823 103.837 151.302 104.143 150.518L102.279 149.792ZM107.809 133.801L102.266 149.828L104.156 150.482L109.699 134.455L107.809 133.801ZM123.244 133.128H108.754V135.128H123.244V133.128ZM122.299 134.455L127.843 150.482L129.733 149.828L124.189 133.801L122.299 134.455ZM127.856 150.518C128.162 151.302 128.916 151.823 129.763 151.823V149.823C129.745 149.823 129.727 149.811 129.719 149.792L127.856 150.518ZM129.763 151.823H147.868V149.823H129.763V151.823ZM147.868 151.823C149.968 151.823 150.694 149.043 148.881 148.005L147.887 149.74C147.897 149.746 147.904 149.751 147.907 149.754C147.91 149.756 147.912 149.758 147.912 149.758C147.912 149.758 147.912 149.758 147.911 149.757C147.911 149.757 147.911 149.756 147.911 149.756C147.91 149.756 147.915 149.768 147.909 149.791C147.903 149.813 147.893 149.822 147.894 149.821C147.894 149.821 147.895 149.821 147.896 149.82C147.897 149.82 147.897 149.819 147.897 149.819C147.897 149.82 147.895 149.82 147.891 149.821C147.887 149.822 147.879 149.823 147.868 149.823V151.823ZM148.878 148.003L142.466 144.359L141.478 146.098L147.89 149.742L148.878 148.003ZM142.468 144.36C142.465 144.358 142.459 144.354 142.453 144.346C142.447 144.337 142.442 144.327 142.439 144.315L140.493 144.775C140.622 145.323 140.972 145.809 141.476 146.097L142.468 144.36ZM142.466 144.545V144.54H140.466V144.545H142.466ZM142.443 144.327L140.177 133.916L138.222 134.341L140.489 144.753L142.443 144.327ZM147.261 133.128H139.2V135.128H147.261V133.128ZM159.304 121.094C159.304 127.741 153.914 133.128 147.261 133.128V135.128C155.018 135.128 161.304 128.847 161.304 121.094H159.304ZM159.304 59.5728V121.094H161.304V59.5728H159.304ZM134.217 34.5044C148.071 34.5044 159.304 45.7308 159.304 59.5728H161.304C161.304 44.6249 149.174 32.5044 134.217 32.5044V34.5044ZM83.087 34.5044H134.217V32.5044H83.087V34.5044ZM58 59.5728C58 45.7257 69.2332 34.5044 83.087 34.5044V32.5044C68.1303 32.5044 56 44.6195 56 59.5728H58ZM58 83.8164V59.5728H56V83.8164H58Z" fill="black" mask="url(#path-20-inside-1_795_12570)"/>
<path d="M108.394 109.995C104.874 110.1 97.2121 108.54 94.7273 101.458" stroke="black" stroke-linecap="round" stroke-linejoin="round"/>
<path d="M96.5909 100.825C95.4521 100.931 92.9879 101.711 92.2425 103.987" stroke="black" stroke-linecap="round" stroke-linejoin="round"/>
<path d="M106.869 94.8872V99.1115C106.869 100.808 108.244 102.183 109.941 102.183V102.183C111.637 102.183 113.012 100.808 113.012 99.1115V94.8872" stroke="black" stroke-linecap="round"/>
<ellipse cx="124.545" cy="86.2801" rx="7.45455" ry="7.58874" fill="white"/>
<ellipse cx="124.235" cy="88.1774" rx="0.931818" ry="1.26479" fill="black"/>
<path d="M92.553 87.8611C95.659 83.4344 101.25 85.6478 101.871 87.2287" stroke="black" stroke-linecap="round" stroke-linejoin="round"/>
<path d="M91 80.5886C94.1061 77.3662 99.697 78.9774 100.318 80.1282" stroke="black" stroke-linecap="round" stroke-linejoin="round"/>
<path d="M120.197 74.439C124.173 71.6288 128.066 73.5735 129.515 74.8972" stroke="black" stroke-linecap="round" stroke-linejoin="round"/>
<defs>
<linearGradient id="paint0_linear_795_12570" x1="59.6086" y1="28.812" x2="161.21" y2="134.135" gradientUnits="userSpaceOnUse">
<stop offset="0.432292" stop-color="#FFFA55"/>
<stop offset="1" stop-color="#FEE577"/>
</linearGradient>
</defs>
</svg>
