<svg width="222" height="151" viewBox="0 0 222 151" fill="none" xmlns="http://www.w3.org/2000/svg">
<circle cx="96" cy="85" r="65" fill="#EEF4F9"/>
<path d="M204.665 53.3838V81.6988" stroke="#B2C5CF" stroke-linecap="round" stroke-dasharray="3 3"/>
<path d="M176 53.3838L192.605 36.7793L209.034 53.3838H176Z" stroke="#B2C5CF"/>
<path d="M192.604 20V31.1862" stroke="#B2C5CF" stroke-linecap="round"/>
<rect x="190.133" y="31.686" width="5.29223" height="4.5931" rx="1.5" fill="#B2C5CF" stroke="#B2C5CF"/>
<path d="M200.12 53.2091C200.12 55.156 199.347 57.0232 197.97 58.3999C196.593 59.7766 194.726 60.55 192.779 60.55C190.832 60.55 188.965 59.7766 187.588 58.3999C186.212 57.0232 185.438 55.156 185.438 53.2091L192.779 53.2091H200.12Z" fill="#B2C5CF"/>
<path d="M50.0433 128.077C56.6134 122 65.3734 124.587 68.9322 126.435C67.2213 121.576 60.4322 113.048 46.9636 117.812" stroke="#B2C5CF" stroke-linejoin="round"/>
<path d="M65.4418 123.766C63.5939 121.986 57.9683 119.085 50.2485 121.713" stroke="#B2C5CF" stroke-linejoin="round"/>
<path d="M34.2339 128.077H43.6783H52.0962L47.7846 150.046H39.1614L34.2339 128.077Z" fill="#B2C5CF" stroke="#B2C5CF" stroke-linejoin="round"/>
<path d="M39.3668 128.077C36.8346 120.481 31.5239 102.947 30.5383 93.5845C29.5528 84.2222 26.4321 74.6272 24.9949 71C47.0045 84.6328 48.4007 114.732 46.3475 128.077" stroke="#B2C5CF" stroke-linejoin="round"/>
<path d="M33.4126 85.3721C36.5607 92.2159 42.9392 110.338 43.2677 128.077" stroke="#B2C5CF" stroke-linejoin="round"/>
<path d="M34.3939 128.569C31.342 125.993 24.6918 119.905 22.5066 116.158C20.3213 112.411 16.5238 109.137 14.8982 107.969C32.5006 111.664 35.0383 117.041 35.8784 117.609" stroke="#B2C5CF" stroke-linejoin="round"/>
<path d="M16 108.3C19.2634 109.747 26.7886 114.233 30.7826 120.605" stroke="#B2C5CF" stroke-linejoin="round"/>
<line x1="4.5" y1="150.5" x2="77.5" y2="150.5" stroke="#B2C5CF" stroke-linecap="round"/>
<line x1="172.5" y1="150.5" x2="202.5" y2="150.5" stroke="#B2C5CF" stroke-linecap="round"/>
<line x1="208.5" y1="150.5" x2="218.5" y2="150.5" stroke="#B2C5CF" stroke-linecap="round"/>
<path d="M62.6086 80.6777C62.6086 108.18 85.1478 130.479 112.956 130.479H154.956C162.162 130.479 168 124.702 168 117.575V58.2276C168 41.9818 154.685 28.812 138.261 28.812H88.6956C74.2904 28.812 62.6086 40.3655 62.6086 54.6145V80.6777Z" fill="url(#paint0_linear_795_12564)"/>
<mask id="path-18-inside-1_795_12564" fill="white">
<path fill-rule="evenodd" clip-rule="evenodd" d="M60 83.8164C60 106.705 75.297 126.027 96.2354 132.125L93.5328 144.54V144.545C93.465 144.832 93.2824 145.082 93.0268 145.228L86.6146 148.873C85.6859 149.404 86.0615 150.823 87.1311 150.823H105.235C105.668 150.823 106.055 150.557 106.211 150.155L111.754 134.128H126.244L131.788 150.155C131.944 150.557 132.33 150.823 132.763 150.823H150.868C151.937 150.823 152.313 149.404 151.384 148.873L144.972 145.228C144.716 145.082 144.534 144.832 144.466 144.545V144.54L142.2 134.128H150.261C157.466 134.128 163.304 128.294 163.304 121.094V59.5728C163.304 45.1778 151.623 33.5044 137.217 33.5044H86.087C71.6817 33.5044 60 45.1726 60 59.5728V83.8164Z"/>
</mask>
<path d="M96.2354 132.125L97.2125 132.338L97.411 131.426L96.515 131.165L96.2354 132.125ZM93.5328 144.54L92.5557 144.327L92.5328 144.433V144.54H93.5328ZM93.5328 144.545L94.506 144.775L94.5328 144.662V144.545H93.5328ZM93.0268 145.228L93.5209 146.098L93.5226 146.097L93.0268 145.228ZM86.6146 148.873L86.1205 148.003L86.1177 148.005L86.6146 148.873ZM106.211 150.155L107.143 150.518L107.15 150.5L107.156 150.482L106.211 150.155ZM111.754 134.128V133.128H111.042L110.809 133.801L111.754 134.128ZM126.244 134.128L127.189 133.801L126.957 133.128H126.244V134.128ZM131.788 150.155L130.843 150.482L130.849 150.5L130.856 150.518L131.788 150.155ZM151.384 148.873L151.881 148.005L151.878 148.003L151.384 148.873ZM144.972 145.228L144.476 146.097L144.478 146.098L144.972 145.228ZM144.466 144.545H143.466V144.662L143.493 144.775L144.466 144.545ZM144.466 144.54H145.466V144.433L145.443 144.327L144.466 144.54ZM142.2 134.128V133.128H140.958L141.222 134.341L142.2 134.128ZM96.515 131.165C75.9916 125.188 61 106.248 61 83.8164H59C59 107.162 74.6025 126.867 95.9558 133.085L96.515 131.165ZM94.51 144.753L97.2125 132.338L95.2583 131.912L92.5557 144.327L94.51 144.753ZM94.5328 144.545V144.54H92.5328V144.545H94.5328ZM93.5226 146.097C94.0269 145.809 94.3765 145.323 94.506 144.775L92.5597 144.315C92.557 144.327 92.5519 144.337 92.5456 144.346C92.5395 144.354 92.5339 144.358 92.5309 144.36L93.5226 146.097ZM87.1087 149.742L93.5209 146.098L92.5326 144.359L86.1205 148.003L87.1087 149.742ZM87.1311 149.823C87.1197 149.823 87.1121 149.822 87.108 149.821C87.1038 149.82 87.102 149.82 87.1019 149.819C87.1017 149.819 87.1023 149.82 87.1033 149.82C87.1042 149.821 87.1049 149.821 87.1052 149.821C87.106 149.822 87.0961 149.813 87.0902 149.791C87.0842 149.768 87.0884 149.756 87.0883 149.756C87.0882 149.756 87.0879 149.757 87.0875 149.757C87.087 149.758 87.0867 149.758 87.087 149.758C87.0872 149.758 87.0886 149.756 87.0919 149.754C87.0953 149.751 87.1015 149.746 87.1115 149.74L86.1177 148.005C84.3043 149.043 85.031 151.823 87.1311 151.823V149.823ZM105.235 149.823H87.1311V151.823H105.235V149.823ZM105.279 149.792C105.272 149.811 105.254 149.823 105.235 149.823V151.823C106.083 151.823 106.837 151.302 107.143 150.518L105.279 149.792ZM110.809 133.801L105.266 149.828L107.156 150.482L112.699 134.455L110.809 133.801ZM126.244 133.128H111.754V135.128H126.244V133.128ZM125.299 134.455L130.843 150.482L132.733 149.828L127.189 133.801L125.299 134.455ZM130.856 150.518C131.162 151.302 131.916 151.823 132.763 151.823V149.823C132.745 149.823 132.727 149.811 132.719 149.792L130.856 150.518ZM132.763 151.823H150.868V149.823H132.763V151.823ZM150.868 151.823C152.968 151.823 153.694 149.043 151.881 148.005L150.887 149.74C150.897 149.746 150.904 149.751 150.907 149.754C150.91 149.756 150.912 149.758 150.912 149.758C150.912 149.758 150.912 149.758 150.911 149.757C150.911 149.757 150.911 149.756 150.911 149.756C150.91 149.756 150.915 149.768 150.909 149.791C150.903 149.813 150.893 149.822 150.894 149.821C150.894 149.821 150.895 149.821 150.896 149.82C150.897 149.82 150.897 149.819 150.897 149.819C150.897 149.82 150.895 149.82 150.891 149.821C150.887 149.822 150.879 149.823 150.868 149.823V151.823ZM151.878 148.003L145.466 144.359L144.478 146.098L150.89 149.742L151.878 148.003ZM145.468 144.36C145.465 144.358 145.459 144.354 145.453 144.346C145.447 144.337 145.442 144.327 145.439 144.315L143.493 144.775C143.622 145.323 143.972 145.809 144.476 146.097L145.468 144.36ZM145.466 144.545V144.54H143.466V144.545H145.466ZM145.443 144.327L143.177 133.916L141.222 134.341L143.489 144.753L145.443 144.327ZM150.261 133.128H142.2V135.128H150.261V133.128ZM162.304 121.094C162.304 127.741 156.914 133.128 150.261 133.128V135.128C158.018 135.128 164.304 128.847 164.304 121.094H162.304ZM162.304 59.5728V121.094H164.304V59.5728H162.304ZM137.217 34.5044C151.071 34.5044 162.304 45.7308 162.304 59.5728H164.304C164.304 44.6249 152.174 32.5044 137.217 32.5044V34.5044ZM86.087 34.5044H137.217V32.5044H86.087V34.5044ZM61 59.5728C61 45.7257 72.2332 34.5044 86.087 34.5044V32.5044C71.1303 32.5044 59 44.6195 59 59.5728H61ZM61 83.8164V59.5728H59V83.8164H61Z" fill="black" mask="url(#path-18-inside-1_795_12564)"/>
<ellipse cx="99.2286" cy="83.2487" rx="8.22857" ry="8.24867" fill="white"/>
<ellipse cx="99.0286" cy="85.3108" rx="1.02857" ry="1.37478" fill="black"/>
<ellipse cx="130.772" cy="83.2487" rx="8.22857" ry="8.24867" fill="white"/>
<ellipse cx="131.029" cy="85.3108" rx="1.02857" ry="1.37478" fill="black"/>
<path d="M111.657 91.5V95.6325C111.657 97.337 113.038 98.7187 114.743 98.7187V98.7187C116.447 98.7187 117.829 97.337 117.829 95.6325V91.5" stroke="black" stroke-linecap="round"/>
<path d="M115.343 107.995C119.228 108.109 127.686 106.414 130.428 98.7148" stroke="black" stroke-linecap="round" stroke-linejoin="round"/>
<path d="M128.371 98.0273C129.628 98.1419 132.348 98.9897 133.171 101.464" stroke="black" stroke-linecap="round" stroke-linejoin="round"/>
<defs>
<linearGradient id="paint0_linear_795_12564" x1="62.6086" y1="28.812" x2="164.21" y2="134.135" gradientUnits="userSpaceOnUse">
<stop offset="0.432292" stop-color="#C9F31A"/>
<stop offset="1" stop-color="#ABD500"/>
</linearGradient>
</defs>
</svg>
